# Blender v2.78 (sub 0) OBJ File: ''
# www.blender.org
mtllib Object_14.mtl
o mesh_1_Long-8
v -0.038176 0.030730 -0.002404
v -0.020176 0.008730 -0.002404
v -0.020176 0.030730 -0.002404
v -0.038176 0.008730 -0.002404
v -0.038176 0.030730 -0.062404
v -0.020176 0.030730 -0.002404
v -0.020176 0.030730 -0.062404
v -0.038176 0.030730 -0.002404
v -0.038176 0.008730 -0.062404
v -0.020176 0.030730 -0.062404
v -0.020176 0.008730 -0.062404
v -0.038176 0.030730 -0.062404
v -0.020176 0.008730 -0.062404
v -0.038176 0.008730 -0.002404
v -0.038176 0.008730 -0.062404
v -0.020176 0.008730 -0.002404
v -0.038176 0.030730 -0.062404
v -0.038176 0.008730 -0.002404
v -0.038176 0.030730 -0.002404
v -0.038176 0.008730 -0.062404
v -0.020176 0.008730 -0.002404
v -0.020176 0.030730 -0.062404
v -0.020176 0.030730 -0.002404
v -0.020176 0.008730 -0.062404
v 0.015858 0.053730 -0.012511
v -0.002142 0.031730 -0.012511
v -0.002142 0.053730 -0.012511
v 0.015858 0.031730 -0.012511
v 0.015858 0.053730 0.047489
v -0.002142 0.053730 -0.012511
v -0.002142 0.053730 0.047489
v 0.015858 0.053730 -0.012511
v 0.015858 0.031730 0.047489
v -0.002142 0.053730 0.047489
v -0.002142 0.031730 0.047489
v 0.015858 0.053730 0.047489
v -0.002142 0.031730 0.047489
v 0.015858 0.031730 -0.012511
v 0.015858 0.031730 0.047489
v -0.002142 0.031730 -0.012511
v 0.015858 0.053730 0.047489
v 0.015858 0.031730 -0.012511
v 0.015858 0.053730 -0.012511
v 0.015858 0.031730 0.047489
v -0.002142 0.031730 -0.012511
v -0.002142 0.053730 0.047489
v -0.002142 0.053730 -0.012511
v -0.002142 0.031730 0.047489
v 0.051858 0.018730 -0.040511
v 0.033858 -0.006270 -0.040511
v 0.033858 0.018730 -0.040511
v 0.051858 -0.006270 -0.040511
v 0.051858 0.018730 0.009489
v 0.033858 0.018730 -0.040511
v 0.033858 0.018730 0.009489
v 0.051858 0.018730 -0.040511
v 0.051858 -0.006270 0.009489
v 0.033858 0.018730 0.009489
v 0.033858 -0.006270 0.009489
v 0.051858 0.018730 0.009489
v 0.033858 -0.006270 0.009489
v 0.051858 -0.006270 -0.040511
v 0.051858 -0.006270 0.009489
v 0.033858 -0.006270 -0.040511
v 0.051858 0.018730 0.009489
v 0.051858 -0.006270 -0.040511
v 0.051858 0.018730 -0.040511
v 0.051858 -0.006270 0.009489
v 0.033858 -0.006270 -0.040511
v 0.033858 0.018730 0.009489
v 0.033858 0.018730 -0.040511
v 0.033858 -0.006270 0.009489
v -0.055176 0.030730 0.065596
v -0.080176 0.012730 0.065596
v -0.055176 0.012730 0.065596
v -0.080176 0.030730 0.065596
v -0.055176 0.030730 0.015596
v -0.055176 0.012730 0.065596
v -0.055176 0.012730 0.015596
v -0.055176 0.030730 0.065596
v -0.080176 0.030730 0.015596
v -0.055176 0.012730 0.015596
v -0.080176 0.012730 0.015596
v -0.055176 0.030730 0.015596
v -0.080176 0.012730 0.015596
v -0.080176 0.030730 0.065596
v -0.080176 0.030730 0.015596
v -0.080176 0.012730 0.065596
v -0.055176 0.030730 0.015596
v -0.080176 0.030730 0.065596
v -0.055176 0.030730 0.065596
v -0.080176 0.030730 0.015596
v -0.080176 0.012730 0.065596
v -0.055176 0.012730 0.015596
v -0.055176 0.012730 0.065596
v -0.080176 0.012730 0.015596
v 0.051858 -0.041270 -0.018511
v 0.069858 -0.041270 -0.040511
v 0.069858 -0.041270 -0.018511
v 0.051858 -0.041270 -0.040511
v 0.051858 0.018730 -0.018511
v 0.069858 -0.041270 -0.018511
v 0.069858 0.018730 -0.018511
v 0.051858 -0.041270 -0.018511
v 0.051858 0.018730 -0.040511
v 0.069858 0.018730 -0.018511
v 0.069858 0.018730 -0.040511
v 0.051858 0.018730 -0.018511
v 0.069858 0.018730 -0.040511
v 0.051858 -0.041270 -0.040511
v 0.051858 0.018730 -0.040511
v 0.069858 -0.041270 -0.040511
v 0.051858 0.018730 -0.018511
v 0.051858 -0.041270 -0.040511
v 0.051858 -0.041270 -0.018511
v 0.051858 0.018730 -0.040511
v 0.069858 -0.041270 -0.040511
v 0.069858 0.018730 -0.018511
v 0.069858 -0.041270 -0.018511
v 0.069858 0.018730 -0.040511
v -0.055176 -0.023270 0.031489
v -0.055176 -0.041270 -0.018511
v -0.055176 -0.041270 0.031489
v -0.055176 -0.023270 -0.018511
v -0.055176 -0.041270 0.031489
v 0.007341 -0.023270 0.031489
v -0.055176 -0.023270 0.031489
v 0.007341 -0.041270 0.031489
v 0.069858 -0.023270 0.031489
v 0.069858 -0.041270 0.031489
v 0.069858 -0.023270 -0.018511
v 0.069858 -0.041270 0.031489
v 0.069858 -0.041270 -0.018511
v 0.069858 -0.023270 0.031489
v 0.007341 -0.041270 -0.018511
v -0.055176 -0.023270 -0.018511
v 0.007341 -0.023270 -0.018511
v 0.069858 -0.041270 -0.018511
v 0.069858 -0.023270 -0.018511
v -0.055176 -0.041270 -0.018511
v 0.069858 -0.023270 0.031489
v 0.007341 -0.023270 -0.018511
v 0.007341 -0.023270 0.031489
v -0.055176 -0.023270 -0.018511
v -0.055176 -0.023270 0.031489
v 0.069858 -0.023270 -0.018511
v 0.069858 -0.041270 0.031489
v 0.007341 -0.041270 -0.018511
v 0.069858 -0.041270 -0.018511
v 0.007341 -0.041270 0.031489
v -0.055176 -0.041270 -0.018511
v -0.055176 -0.041270 0.031489
v -0.030176 -0.041270 -0.018511
v -0.055176 -0.041270 -0.036511
v -0.030176 -0.041270 -0.036511
v -0.055176 -0.041270 -0.018511
v -0.030176 0.008730 -0.018511
v -0.030176 -0.041270 -0.036511
v -0.030176 0.008730 -0.036511
v -0.030176 -0.041270 -0.018511
v -0.055176 0.008730 -0.018511
v -0.030176 0.008730 -0.036511
v -0.055176 0.008730 -0.036511
v -0.030176 0.008730 -0.018511
v -0.055176 0.008730 -0.036511
v -0.055176 -0.041270 -0.018511
v -0.055176 0.008730 -0.018511
v -0.055176 -0.041270 -0.036511
v -0.030176 0.008730 -0.018511
v -0.055176 -0.041270 -0.018511
v -0.030176 -0.041270 -0.018511
v -0.055176 0.008730 -0.018511
v -0.055176 -0.041270 -0.036511
v -0.030176 0.008730 -0.036511
v -0.030176 -0.041270 -0.036511
v -0.055176 0.008730 -0.036511
v -0.030176 0.008730 0.031489
v -0.055176 0.008730 0.049489
v -0.030176 0.008730 0.049489
v -0.055176 0.008730 0.031489
v -0.030176 -0.041270 0.031489
v -0.030176 0.008730 0.049489
v -0.030176 -0.041270 0.049489
v -0.030176 0.008730 0.031489
v -0.055176 -0.041270 0.031489
v -0.030176 -0.041270 0.049489
v -0.055176 -0.041270 0.049489
v -0.030176 -0.041270 0.031489
v -0.055176 -0.041270 0.049489
v -0.055176 0.008730 0.031489
v -0.055176 -0.041270 0.031489
v -0.055176 0.008730 0.049489
v -0.030176 -0.041270 0.031489
v -0.055176 0.008730 0.031489
v -0.030176 0.008730 0.031489
v -0.055176 -0.041270 0.031489
v -0.055176 0.008730 0.049489
v -0.030176 -0.041270 0.049489
v -0.030176 0.008730 0.049489
v -0.055176 -0.041270 0.049489
v -0.080176 -0.041270 -0.002404
v -0.055176 -0.041270 0.015596
v -0.080176 -0.041270 0.015596
v -0.055176 -0.041270 -0.002404
v -0.080176 0.008730 -0.002404
v -0.080176 -0.041270 0.015596
v -0.080176 0.008730 0.015596
v -0.080176 -0.041270 -0.002404
v -0.055176 0.008730 -0.002404
v -0.080176 0.008730 0.015596
v -0.055176 0.008730 0.015596
v -0.080176 0.008730 -0.002404
v -0.055176 0.008730 0.015596
v -0.055176 -0.041270 -0.002404
v -0.055176 0.008730 -0.002404
v -0.055176 -0.041270 0.015596
v -0.080176 0.008730 -0.002404
v -0.055176 -0.041270 -0.002404
v -0.080176 -0.041270 -0.002404
v -0.055176 0.008730 -0.002404
v -0.055176 -0.041270 0.015596
v -0.080176 0.008730 0.015596
v -0.080176 -0.041270 0.015596
v -0.055176 0.008730 0.015596
v -0.080176 0.008730 0.015596
v -0.080176 0.030730 -0.002404
v -0.080176 0.008730 -0.002404
v -0.080176 0.030730 0.015596
v -0.020176 0.008730 0.015596
v -0.080176 0.008730 -0.002404
v -0.020176 0.008730 -0.002404
v -0.080176 0.008730 0.015596
v -0.020176 0.030730 0.015596
v -0.020176 0.008730 -0.002404
v -0.020176 0.030730 -0.002404
v -0.020176 0.008730 0.015596
v -0.020176 0.030730 -0.002404
v -0.080176 0.030730 0.015596
v -0.020176 0.030730 0.015596
v -0.080176 0.030730 -0.002404
v -0.020176 0.008730 0.015596
v -0.080176 0.030730 0.015596
v -0.080176 0.008730 0.015596
v -0.020176 0.030730 0.015596
v -0.080176 0.030730 -0.002404
v -0.020176 0.008730 -0.002404
v -0.080176 0.008730 -0.002404
v -0.020176 0.030730 -0.002404
v 0.091858 -0.006270 -0.002511
v 0.109858 0.018730 -0.002511
v 0.109858 -0.006270 -0.002511
v 0.091858 0.018730 -0.002511
v 0.091858 -0.006270 0.047489
v 0.109858 -0.006270 -0.002511
v 0.109858 -0.006270 0.047489
v 0.091858 -0.006270 -0.002511
v 0.091858 0.018730 0.047489
v 0.109858 -0.006270 0.047489
v 0.109858 0.018730 0.047489
v 0.091858 -0.006270 0.047489
v 0.109858 0.018730 0.047489
v 0.091858 0.018730 -0.002511
v 0.091858 0.018730 0.047489
v 0.109858 0.018730 -0.002511
v 0.091858 -0.006270 0.047489
v 0.091858 0.018730 -0.002511
v 0.091858 -0.006270 -0.002511
v 0.091858 0.018730 0.047489
v 0.109858 0.018730 -0.002511
v 0.109858 -0.006270 0.047489
v 0.109858 -0.006270 -0.002511
v 0.109858 0.018730 0.047489
v 0.091858 -0.041270 0.015489
v 0.069858 -0.041270 -0.002511
v 0.091858 -0.041270 -0.002511
v 0.069858 -0.041270 0.015489
v 0.091858 0.018730 0.015489
v 0.091858 -0.041270 -0.002511
v 0.091858 0.018730 -0.002511
v 0.091858 -0.041270 0.015489
v 0.069858 0.018730 0.015489
v 0.091858 0.018730 -0.002511
v 0.069858 0.018730 -0.002511
v 0.091858 0.018730 0.015489
v 0.069858 0.018730 -0.002511
v 0.069858 -0.041270 0.015489
v 0.069858 0.018730 0.015489
v 0.069858 -0.041270 -0.002511
v 0.091858 0.018730 0.015489
v 0.069858 -0.041270 0.015489
v 0.091858 -0.041270 0.015489
v 0.069858 0.018730 0.015489
v 0.069858 -0.041270 -0.002511
v 0.091858 0.018730 -0.002511
v 0.091858 -0.041270 -0.002511
v 0.069858 0.018730 -0.002511
v 0.015858 -0.006270 0.009489
v 0.033858 -0.006270 -0.012511
v 0.033858 -0.006270 0.009489
v 0.015858 -0.006270 -0.012511
v 0.015858 0.053730 0.009489
v 0.033858 -0.006270 0.009489
v 0.033858 0.053730 0.009489
v 0.015858 -0.006270 0.009489
v 0.015858 0.053730 -0.012511
v 0.033858 0.053730 0.009489
v 0.033858 0.053730 -0.012511
v 0.015858 0.053730 0.009489
v 0.033858 0.053730 -0.012511
v 0.015858 -0.006270 -0.012511
v 0.015858 0.053730 -0.012511
v 0.033858 -0.006270 -0.012511
v 0.015858 0.053730 0.009489
v 0.015858 -0.006270 -0.012511
v 0.015858 -0.006270 0.009489
v 0.015858 0.053730 -0.012511
v 0.033858 -0.006270 -0.012511
v 0.033858 0.053730 0.009489
v 0.033858 -0.006270 0.009489
v 0.033858 0.053730 -0.012511
v -0.056176 0.008730 -0.040404
v -0.038176 0.008730 -0.062404
v -0.038176 0.008730 -0.040404
v -0.056176 0.008730 -0.062404
v -0.056176 0.068730 -0.040404
v -0.038176 0.008730 -0.040404
v -0.038176 0.068730 -0.040404
v -0.056176 0.008730 -0.040404
v -0.056176 0.068730 -0.062404
v -0.038176 0.068730 -0.040404
v -0.038176 0.068730 -0.062404
v -0.056176 0.068730 -0.040404
v -0.038176 0.068730 -0.062404
v -0.056176 0.008730 -0.062404
v -0.056176 0.068730 -0.062404
v -0.038176 0.008730 -0.062404
v -0.056176 0.068730 -0.040404
v -0.056176 0.008730 -0.062404
v -0.056176 0.008730 -0.040404
v -0.056176 0.068730 -0.062404
v -0.038176 0.008730 -0.062404
v -0.038176 0.068730 -0.040404
v -0.038176 0.008730 -0.040404
v -0.038176 0.068730 -0.062404
vt 0.0000 0.0000
vt 0.0220 -0.0180
vt 0.0000 -0.0180
vt 0.0220 0.0000
vt -0.0600 0.0000
vt 0.0000 -0.0180
vt -0.0600 -0.0180
vt 0.0000 0.0000
vt -0.0220 0.0000
vt 0.0000 -0.0180
vt -0.0220 -0.0180
vt 0.0000 0.0000
vt 0.0600 -0.0180
vt 0.0000 0.0000
vt 0.0600 0.0000
vt 0.0000 -0.0180
vt 0.0000 0.0600
vt 0.0220 -0.0000
vt 0.0000 -0.0000
vt 0.0220 0.0600
vt 0.0220 -0.0000
vt 0.0000 0.0600
vt 0.0000 -0.0000
vt 0.0220 0.0600
vt 0.0000 0.0000
vt 0.0220 -0.0180
vt 0.0000 -0.0180
vt 0.0220 0.0000
vt -0.0600 0.0000
vt 0.0000 -0.0180
vt -0.0600 -0.0180
vt 0.0000 0.0000
vt -0.0220 0.0000
vt 0.0000 -0.0180
vt -0.0220 -0.0180
vt 0.0000 0.0000
vt 0.0600 -0.0180
vt 0.0000 0.0000
vt 0.0600 0.0000
vt 0.0000 -0.0180
vt 0.0000 0.0600
vt 0.0220 -0.0000
vt 0.0000 -0.0000
vt 0.0220 0.0600
vt 0.0220 -0.0000
vt 0.0000 0.0600
vt 0.0000 -0.0000
vt 0.0220 0.0600
vt 0.0000 0.0000
vt 0.0250 -0.0180
vt 0.0000 -0.0180
vt 0.0250 0.0000
vt -0.0500 0.0000
vt 0.0000 -0.0180
vt -0.0500 -0.0180
vt 0.0000 0.0000
vt -0.0250 0.0000
vt 0.0000 -0.0180
vt -0.0250 -0.0180
vt 0.0000 0.0000
vt 0.0500 -0.0180
vt 0.0000 0.0000
vt 0.0500 0.0000
vt 0.0000 -0.0180
vt 0.0000 0.0500
vt 0.0250 -0.0000
vt 0.0000 -0.0000
vt 0.0250 0.0500
vt 0.0250 -0.0000
vt 0.0000 0.0500
vt 0.0000 -0.0000
vt 0.0250 0.0500
vt 0.0000 0.0000
vt 0.0250 -0.0180
vt 0.0000 -0.0180
vt 0.0250 0.0000
vt -0.0500 0.0000
vt 0.0000 -0.0180
vt -0.0500 -0.0180
vt 0.0000 0.0000
vt -0.0250 0.0000
vt 0.0000 -0.0180
vt -0.0250 -0.0180
vt 0.0000 0.0000
vt 0.0500 -0.0180
vt 0.0000 0.0000
vt 0.0500 0.0000
vt 0.0000 -0.0180
vt 0.0000 0.0500
vt 0.0250 -0.0000
vt 0.0000 -0.0000
vt 0.0250 0.0500
vt 0.0250 -0.0000
vt 0.0000 0.0500
vt 0.0000 -0.0000
vt 0.0250 0.0500
vt 0.0000 0.0000
vt 0.0220 -0.0180
vt 0.0000 -0.0180
vt 0.0220 0.0000
vt -0.0600 0.0000
vt 0.0000 -0.0180
vt -0.0600 -0.0180
vt 0.0000 0.0000
vt -0.0220 0.0000
vt 0.0000 -0.0180
vt -0.0220 -0.0180
vt 0.0000 0.0000
vt 0.0600 -0.0180
vt 0.0000 0.0000
vt 0.0600 0.0000
vt 0.0000 -0.0180
vt 0.0000 0.0600
vt 0.0220 -0.0000
vt 0.0000 -0.0000
vt 0.0220 0.0600
vt 0.0220 -0.0000
vt 0.0000 0.0600
vt 0.0000 -0.0000
vt 0.0220 0.0600
vt 0.0000 0.0000
vt 0.0500 -0.0180
vt 0.0000 -0.0180
vt 0.0500 0.0000
vt 0.0000 -0.0180
vt -0.0625 0.0000
vt 0.0000 0.0000
vt -0.0625 -0.0180
vt -0.1250 0.0000
vt -0.1250 -0.0180
vt -0.0500 0.0000
vt 0.0000 -0.0180
vt -0.0500 -0.0180
vt 0.0000 0.0000
vt 0.0625 -0.0180
vt 0.0000 0.0000
vt 0.0625 0.0000
vt 0.1250 -0.0180
vt 0.1250 0.0000
vt 0.0000 -0.0180
vt 0.0000 0.1250
vt 0.0500 0.0625
vt 0.0000 0.0625
vt 0.0500 0.0000
vt 0.0000 0.0000
vt 0.0500 0.1250
vt 0.0000 0.1250
vt 0.0500 0.0625
vt 0.0500 0.1250
vt 0.0000 0.0625
vt 0.0500 0.0000
vt 0.0000 0.0000
vt 0.0000 0.0000
vt 0.0250 -0.0180
vt 0.0000 -0.0180
vt 0.0250 0.0000
vt -0.0500 0.0000
vt 0.0000 -0.0180
vt -0.0500 -0.0180
vt 0.0000 0.0000
vt -0.0250 0.0000
vt 0.0000 -0.0180
vt -0.0250 -0.0180
vt 0.0000 0.0000
vt 0.0500 -0.0180
vt 0.0000 0.0000
vt 0.0500 0.0000
vt 0.0000 -0.0180
vt 0.0000 0.0500
vt 0.0250 -0.0000
vt 0.0000 -0.0000
vt 0.0250 0.0500
vt 0.0250 -0.0000
vt 0.0000 0.0500
vt 0.0000 -0.0000
vt 0.0250 0.0500
vt 0.0000 0.0000
vt 0.0250 -0.0180
vt 0.0000 -0.0180
vt 0.0250 0.0000
vt -0.0500 0.0000
vt 0.0000 -0.0180
vt -0.0500 -0.0180
vt 0.0000 0.0000
vt -0.0250 0.0000
vt 0.0000 -0.0180
vt -0.0250 -0.0180
vt 0.0000 0.0000
vt 0.0500 -0.0180
vt 0.0000 0.0000
vt 0.0500 0.0000
vt 0.0000 -0.0180
vt 0.0000 0.0500
vt 0.0250 -0.0000
vt 0.0000 -0.0000
vt 0.0250 0.0500
vt 0.0250 -0.0000
vt 0.0000 0.0500
vt 0.0000 -0.0000
vt 0.0250 0.0500
vt 0.0000 0.0000
vt 0.0250 -0.0180
vt 0.0000 -0.0180
vt 0.0250 0.0000
vt -0.0500 0.0000
vt 0.0000 -0.0180
vt -0.0500 -0.0180
vt 0.0000 0.0000
vt -0.0250 0.0000
vt 0.0000 -0.0180
vt -0.0250 -0.0180
vt 0.0000 0.0000
vt 0.0500 -0.0180
vt 0.0000 0.0000
vt 0.0500 0.0000
vt 0.0000 -0.0180
vt 0.0000 0.0500
vt 0.0250 -0.0000
vt 0.0000 -0.0000
vt 0.0250 0.0500
vt 0.0250 -0.0000
vt 0.0000 0.0500
vt 0.0000 -0.0000
vt 0.0250 0.0500
vt 0.0000 0.0000
vt 0.0220 -0.0180
vt 0.0000 -0.0180
vt 0.0220 0.0000
vt -0.0600 0.0000
vt 0.0000 -0.0180
vt -0.0600 -0.0180
vt 0.0000 0.0000
vt -0.0220 0.0000
vt 0.0000 -0.0180
vt -0.0220 -0.0180
vt 0.0000 0.0000
vt 0.0600 -0.0180
vt 0.0000 0.0000
vt 0.0600 0.0000
vt 0.0000 -0.0180
vt 0.0000 0.0600
vt 0.0220 -0.0000
vt 0.0000 -0.0000
vt 0.0220 0.0600
vt 0.0220 -0.0000
vt 0.0000 0.0600
vt 0.0000 -0.0000
vt 0.0220 0.0600
vt 0.0000 0.0000
vt 0.0250 -0.0180
vt 0.0000 -0.0180
vt 0.0250 0.0000
vt -0.0500 0.0000
vt 0.0000 -0.0180
vt -0.0500 -0.0180
vt 0.0000 0.0000
vt -0.0250 0.0000
vt 0.0000 -0.0180
vt -0.0250 -0.0180
vt 0.0000 0.0000
vt 0.0500 -0.0180
vt 0.0000 0.0000
vt 0.0500 0.0000
vt 0.0000 -0.0180
vt 0.0000 0.0500
vt 0.0250 -0.0000
vt 0.0000 -0.0000
vt 0.0250 0.0500
vt 0.0250 -0.0000
vt 0.0000 0.0500
vt 0.0000 -0.0000
vt 0.0250 0.0500
vt 0.0000 0.0000
vt 0.0220 -0.0180
vt 0.0000 -0.0180
vt 0.0220 0.0000
vt -0.0600 0.0000
vt 0.0000 -0.0180
vt -0.0600 -0.0180
vt 0.0000 0.0000
vt -0.0220 0.0000
vt 0.0000 -0.0180
vt -0.0220 -0.0180
vt 0.0000 0.0000
vt 0.0600 -0.0180
vt 0.0000 0.0000
vt 0.0600 0.0000
vt 0.0000 -0.0180
vt 0.0000 0.0600
vt 0.0220 -0.0000
vt 0.0000 -0.0000
vt 0.0220 0.0600
vt 0.0220 -0.0000
vt 0.0000 0.0600
vt 0.0000 -0.0000
vt 0.0220 0.0600
vt 0.0000 0.0000
vt 0.0220 -0.0180
vt 0.0000 -0.0180
vt 0.0220 0.0000
vt -0.0600 0.0000
vt 0.0000 -0.0180
vt -0.0600 -0.0180
vt 0.0000 0.0000
vt -0.0220 0.0000
vt 0.0000 -0.0180
vt -0.0220 -0.0180
vt 0.0000 0.0000
vt 0.0600 -0.0180
vt 0.0000 0.0000
vt 0.0600 0.0000
vt 0.0000 -0.0180
vt 0.0000 0.0600
vt 0.0220 -0.0000
vt 0.0000 -0.0000
vt 0.0220 0.0600
vt 0.0220 -0.0000
vt 0.0000 0.0600
vt 0.0000 -0.0000
vt 0.0220 0.0600
vt 0.0000 0.0000
vt 0.0220 -0.0180
vt 0.0000 -0.0180
vt 0.0220 0.0000
vt -0.0600 0.0000
vt 0.0000 -0.0180
vt -0.0600 -0.0180
vt 0.0000 0.0000
vt -0.0220 0.0000
vt 0.0000 -0.0180
vt -0.0220 -0.0180
vt 0.0000 0.0000
vt 0.0600 -0.0180
vt 0.0000 0.0000
vt 0.0600 0.0000
vt 0.0000 -0.0180
vt 0.0000 0.0600
vt 0.0220 -0.0000
vt 0.0000 -0.0000
vt 0.0220 0.0600
vt 0.0220 -0.0000
vt 0.0000 0.0600
vt 0.0000 -0.0000
vt 0.0220 0.0600
vn 0.0000 -0.0000 1.0000
vn 0.0000 1.0000 0.0000
vn 0.0000 0.0000 -1.0000
vn 0.0000 -1.0000 -0.0000
vn -1.0000 0.0000 0.0000
vn 1.0000 0.0000 0.0000
usemtl 1.030
s 1
f 1/1/1 2/2/1 3/3/1
f 2/2/1 1/1/1 4/4/1
f 5/5/2 6/6/2 7/7/2
f 6/6/2 5/5/2 8/8/2
f 9/9/3 10/10/3 11/11/3
f 10/10/3 9/9/3 12/12/3
f 13/13/4 14/14/4 15/15/4
f 14/14/4 13/13/4 16/16/4
f 17/17/5 18/18/5 19/19/5
f 18/18/5 17/17/5 20/20/5
f 21/21/6 22/22/6 23/23/6
f 22/22/6 21/21/6 24/24/6
f 25/25/3 26/26/3 27/27/3
f 26/26/3 25/25/3 28/28/3
f 29/29/2 30/30/2 31/31/2
f 30/30/2 29/29/2 32/32/2
f 33/33/1 34/34/1 35/35/1
f 34/34/1 33/33/1 36/36/1
f 37/37/4 38/38/4 39/39/4
f 38/38/4 37/37/4 40/40/4
f 41/41/6 42/42/6 43/43/6
f 42/42/6 41/41/6 44/44/6
f 45/45/5 46/46/5 47/47/5
f 46/46/5 45/45/5 48/48/5
f 49/49/3 50/50/3 51/51/3
f 50/50/3 49/49/3 52/52/3
f 53/53/2 54/54/2 55/55/2
f 54/54/2 53/53/2 56/56/2
f 57/57/1 58/58/1 59/59/1
f 58/58/1 57/57/1 60/60/1
f 61/61/4 62/62/4 63/63/4
f 62/62/4 61/61/4 64/64/4
f 65/65/6 66/66/6 67/67/6
f 66/66/6 65/65/6 68/68/6
f 69/69/5 70/70/5 71/71/5
f 70/70/5 69/69/5 72/72/5
f 73/73/1 74/74/1 75/75/1
f 74/74/1 73/73/1 76/76/1
f 77/77/6 78/78/6 79/79/6
f 78/78/6 77/77/6 80/80/6
f 81/81/3 82/82/3 83/83/3
f 82/82/3 81/81/3 84/84/3
f 85/85/5 86/86/5 87/87/5
f 86/86/5 85/85/5 88/88/5
f 89/89/2 90/90/2 91/91/2
f 90/90/2 89/89/2 92/92/2
f 93/93/4 94/94/4 95/95/4
f 94/94/4 93/93/4 96/96/4
f 97/97/4 98/98/4 99/99/4
f 98/98/4 97/97/4 100/100/4
f 101/101/1 102/102/1 103/103/1
f 102/102/1 101/101/1 104/104/1
f 105/105/2 106/106/2 107/107/2
f 106/106/2 105/105/2 108/108/2
f 109/109/3 110/110/3 111/111/3
f 110/110/3 109/109/3 112/112/3
f 113/113/5 114/114/5 115/115/5
f 114/114/5 113/113/5 116/116/5
f 117/117/6 118/118/6 119/119/6
f 118/118/6 117/117/6 120/120/6
f 121/121/5 122/122/5 123/123/5
f 122/122/5 121/121/5 124/124/5
f 125/125/1 126/126/1 127/127/1
f 126/126/1 125/125/1 128/128/1
f 129/129/1 128/128/1 130/130/1
f 128/128/1 129/129/1 126/126/1
f 131/131/6 132/132/6 133/133/6
f 132/132/6 131/131/6 134/134/6
f 135/135/3 136/136/3 137/137/3
f 138/138/3 137/137/3 139/139/3
f 137/137/3 138/138/3 135/135/3
f 136/136/3 135/135/3 140/140/3
f 141/141/2 142/142/2 143/143/2
f 143/143/2 144/144/2 145/145/2
f 144/144/2 143/143/2 142/142/2
f 142/142/2 141/141/2 146/146/2
f 147/147/4 148/148/4 149/149/4
f 148/148/4 147/147/4 150/150/4
f 151/151/4 150/150/4 152/152/4
f 150/150/4 151/151/4 148/148/4
f 153/153/4 154/154/4 155/155/4
f 154/154/4 153/153/4 156/156/4
f 157/157/6 158/158/6 159/159/6
f 158/158/6 157/157/6 160/160/6
f 161/161/2 162/162/2 163/163/2
f 162/162/2 161/161/2 164/164/2
f 165/165/5 166/166/5 167/167/5
f 166/166/5 165/165/5 168/168/5
f 169/169/1 170/170/1 171/171/1
f 170/170/1 169/169/1 172/172/1
f 173/173/3 174/174/3 175/175/3
f 174/174/3 173/173/3 176/176/3
f 177/177/2 178/178/2 179/179/2
f 178/178/2 177/177/2 180/180/2
f 181/181/6 182/182/6 183/183/6
f 182/182/6 181/181/6 184/184/6
f 185/185/4 186/186/4 187/187/4
f 186/186/4 185/185/4 188/188/4
f 189/189/5 190/190/5 191/191/5
f 190/190/5 189/189/5 192/192/5
f 193/193/3 194/194/3 195/195/3
f 194/194/3 193/193/3 196/196/3
f 197/197/1 198/198/1 199/199/1
f 198/198/1 197/197/1 200/200/1
f 201/201/4 202/202/4 203/203/4
f 202/202/4 201/201/4 204/204/4
f 205/205/5 206/206/5 207/207/5
f 206/206/5 205/205/5 208/208/5
f 209/209/2 210/210/2 211/211/2
f 210/210/2 209/209/2 212/212/2
f 213/213/6 214/214/6 215/215/6
f 214/214/6 213/213/6 216/216/6
f 217/217/3 218/218/3 219/219/3
f 218/218/3 217/217/3 220/220/3
f 221/221/1 222/222/1 223/223/1
f 222/222/1 221/221/1 224/224/1
f 225/225/5 226/226/5 227/227/5
f 226/226/5 225/225/5 228/228/5
f 229/229/4 230/230/4 231/231/4
f 230/230/4 229/229/4 232/232/4
f 233/233/6 234/234/6 235/235/6
f 234/234/6 233/233/6 236/236/6
f 237/237/2 238/238/2 239/239/2
f 238/238/2 237/237/2 240/240/2
f 241/241/1 242/242/1 243/243/1
f 242/242/1 241/241/1 244/244/1
f 245/245/3 246/246/3 247/247/3
f 246/246/3 245/245/3 248/248/3
f 249/249/3 250/250/3 251/251/3
f 250/250/3 249/249/3 252/252/3
f 253/253/4 254/254/4 255/255/4
f 254/254/4 253/253/4 256/256/4
f 257/257/1 258/258/1 259/259/1
f 258/258/1 257/257/1 260/260/1
f 261/261/2 262/262/2 263/263/2
f 262/262/2 261/261/2 264/264/2
f 265/265/5 266/266/5 267/267/5
f 266/266/5 265/265/5 268/268/5
f 269/269/6 270/270/6 271/271/6
f 270/270/6 269/269/6 272/272/6
f 273/273/4 274/274/4 275/275/4
f 274/274/4 273/273/4 276/276/4
f 277/277/6 278/278/6 279/279/6
f 278/278/6 277/277/6 280/280/6
f 281/281/2 282/282/2 283/283/2
f 282/282/2 281/281/2 284/284/2
f 285/285/5 286/286/5 287/287/5
f 286/286/5 285/285/5 288/288/5
f 289/289/1 290/290/1 291/291/1
f 290/290/1 289/289/1 292/292/1
f 293/293/3 294/294/3 295/295/3
f 294/294/3 293/293/3 296/296/3
f 297/297/4 298/298/4 299/299/4
f 298/298/4 297/297/4 300/300/4
f 301/301/1 302/302/1 303/303/1
f 302/302/1 301/301/1 304/304/1
f 305/305/2 306/306/2 307/307/2
f 306/306/2 305/305/2 308/308/2
f 309/309/3 310/310/3 311/311/3
f 310/310/3 309/309/3 312/312/3
f 313/313/5 314/314/5 315/315/5
f 314/314/5 313/313/5 316/316/5
f 317/317/6 318/318/6 319/319/6
f 318/318/6 317/317/6 320/320/6
f 321/321/4 322/322/4 323/323/4
f 322/322/4 321/321/4 324/324/4
f 325/325/1 326/326/1 327/327/1
f 326/326/1 325/325/1 328/328/1
f 329/329/2 330/330/2 331/331/2
f 330/330/2 329/329/2 332/332/2
f 333/333/3 334/334/3 335/335/3
f 334/334/3 333/333/3 336/336/3
f 337/337/5 338/338/5 339/339/5
f 338/338/5 337/337/5 340/340/5
f 341/341/6 342/342/6 343/343/6
f 342/342/6 341/341/6 344/344/6
