# Blender v2.78 (sub 0) OBJ File: ''
# www.blender.org
mtllib Object_15.mtl
o mesh_1_Long-10.001
v 0.073151 0.029208 0.027217
v 0.073151 0.051208 0.045217
v 0.073151 0.029208 0.045217
v 0.073151 0.051208 0.027217
v 0.013151 0.029208 0.027217
v 0.073151 0.029208 0.045217
v 0.013151 0.029208 0.045217
v 0.073151 0.029208 0.027217
v 0.013151 0.051208 0.027217
v 0.013151 0.029208 0.045217
v 0.013151 0.051208 0.045217
v 0.013151 0.029208 0.027217
v 0.013151 0.051208 0.045217
v 0.073151 0.051208 0.027217
v 0.013151 0.051208 0.027217
v 0.073151 0.051208 0.045217
v 0.013151 0.029208 0.027217
v 0.073151 0.051208 0.027217
v 0.073151 0.029208 0.027217
v 0.013151 0.051208 0.027217
v 0.073151 0.051208 0.045217
v 0.013151 0.029208 0.045217
v 0.073151 0.029208 0.045217
v 0.013151 0.051208 0.045217
v -0.082882 0.006208 0.013324
v -0.082882 0.028208 -0.004676
v -0.082882 0.006208 -0.004676
v -0.082882 0.028208 0.013324
v -0.022882 0.006208 0.013324
v -0.082882 0.006208 -0.004676
v -0.022882 0.006208 -0.004676
v -0.082882 0.006208 0.013324
v -0.022882 0.028208 0.013324
v -0.022882 0.006208 -0.004676
v -0.022882 0.028208 -0.004676
v -0.022882 0.006208 0.013324
v -0.022882 0.028208 -0.004676
v -0.082882 0.028208 0.013324
v -0.022882 0.028208 0.013324
v -0.082882 0.028208 -0.004676
v -0.022882 0.006208 0.013324
v -0.082882 0.028208 0.013324
v -0.082882 0.006208 0.013324
v -0.022882 0.028208 0.013324
v -0.082882 0.028208 -0.004676
v -0.022882 0.006208 -0.004676
v -0.082882 0.006208 -0.004676
v -0.022882 0.028208 -0.004676
v 0.013151 0.051208 -0.014783
v -0.004849 0.029208 -0.014783
v -0.004849 0.051208 -0.014783
v 0.013151 0.029208 -0.014783
v 0.013151 0.051208 0.045217
v -0.004849 0.051208 -0.014783
v -0.004849 0.051208 0.045217
v 0.013151 0.051208 -0.014783
v 0.013151 0.029208 0.045217
v -0.004849 0.051208 0.045217
v -0.004849 0.029208 0.045217
v 0.013151 0.051208 0.045217
v -0.004849 0.029208 0.045217
v 0.013151 0.029208 -0.014783
v 0.013151 0.029208 0.045217
v -0.004849 0.029208 -0.014783
v 0.013151 0.051208 0.045217
v 0.013151 0.029208 -0.014783
v 0.013151 0.051208 -0.014783
v 0.013151 0.029208 0.045217
v -0.004849 0.029208 -0.014783
v -0.004849 0.051208 0.045217
v -0.004849 0.051208 -0.014783
v -0.004849 0.029208 0.045217
v -0.040882 0.028208 -0.004676
v -0.022882 0.006208 -0.004676
v -0.022882 0.028208 -0.004676
v -0.040882 0.006208 -0.004676
v -0.040882 0.028208 -0.064676
v -0.022882 0.028208 -0.004676
v -0.022882 0.028208 -0.064676
v -0.040882 0.028208 -0.004676
v -0.040882 0.006208 -0.064676
v -0.022882 0.028208 -0.064676
v -0.022882 0.006208 -0.064676
v -0.040882 0.028208 -0.064676
v -0.022882 0.006208 -0.064676
v -0.040882 0.006208 -0.004676
v -0.040882 0.006208 -0.064676
v -0.022882 0.006208 -0.004676
v -0.040882 0.028208 -0.064676
v -0.040882 0.006208 -0.004676
v -0.040882 0.028208 -0.004676
v -0.040882 0.006208 -0.064676
v -0.022882 0.006208 -0.004676
v -0.022882 0.028208 -0.064676
v -0.022882 0.028208 -0.004676
v -0.022882 0.006208 -0.064676
v -0.058882 0.006208 -0.042676
v -0.040882 0.006208 -0.064676
v -0.040882 0.006208 -0.042676
v -0.058882 0.006208 -0.064676
v -0.058882 0.066208 -0.042676
v -0.040882 0.006208 -0.042676
v -0.040882 0.066208 -0.042676
v -0.058882 0.006208 -0.042676
v -0.058882 0.066208 -0.064676
v -0.040882 0.066208 -0.042676
v -0.040882 0.066208 -0.064676
v -0.058882 0.066208 -0.042676
v -0.040882 0.066208 -0.064676
v -0.058882 0.006208 -0.064676
v -0.058882 0.066208 -0.064676
v -0.040882 0.006208 -0.064676
v -0.058882 0.066208 -0.042676
v -0.058882 0.006208 -0.064676
v -0.058882 0.006208 -0.042676
v -0.058882 0.066208 -0.064676
v -0.040882 0.006208 -0.064676
v -0.040882 0.066208 -0.042676
v -0.040882 0.006208 -0.042676
v -0.040882 0.066208 -0.064676
v -0.057882 0.028208 0.063324
v -0.082882 0.010208 0.063324
v -0.057882 0.010208 0.063324
v -0.082882 0.028208 0.063324
v -0.057882 0.028208 0.013324
v -0.057882 0.010208 0.063324
v -0.057882 0.010208 0.013324
v -0.057882 0.028208 0.063324
v -0.082882 0.028208 0.013324
v -0.057882 0.010208 0.013324
v -0.082882 0.010208 0.013324
v -0.057882 0.028208 0.013324
v -0.082882 0.010208 0.013324
v -0.082882 0.028208 0.063324
v -0.082882 0.028208 0.013324
v -0.082882 0.010208 0.063324
v -0.057882 0.028208 0.013324
v -0.082882 0.028208 0.063324
v -0.057882 0.028208 0.063324
v -0.082882 0.028208 0.013324
v -0.082882 0.010208 0.063324
v -0.057882 0.010208 0.013324
v -0.057882 0.010208 0.063324
v -0.082882 0.010208 0.013324
v -0.057882 -0.025792 0.029217
v -0.057882 -0.043792 -0.020783
v -0.057882 -0.043792 0.029217
v -0.057882 -0.025792 -0.020783
v -0.057882 -0.043792 0.029217
v 0.004634 -0.025792 0.029217
v -0.057882 -0.025792 0.029217
v 0.004634 -0.043792 0.029217
v 0.067151 -0.025792 0.029217
v 0.067151 -0.043792 0.029217
v 0.067151 -0.025792 -0.020783
v 0.067151 -0.043792 0.029217
v 0.067151 -0.043792 -0.020783
v 0.067151 -0.025792 0.029217
v 0.004634 -0.043792 -0.020783
v -0.057882 -0.025792 -0.020783
v 0.004634 -0.025792 -0.020783
v 0.067151 -0.043792 -0.020783
v 0.067151 -0.025792 -0.020783
v -0.057882 -0.043792 -0.020783
v 0.067151 -0.025792 0.029217
v 0.004634 -0.025792 -0.020783
v 0.004634 -0.025792 0.029217
v -0.057882 -0.025792 -0.020783
v -0.057882 -0.025792 0.029217
v 0.067151 -0.025792 -0.020783
v 0.067151 -0.043792 0.029217
v 0.004634 -0.043792 -0.020783
v 0.067151 -0.043792 -0.020783
v 0.004634 -0.043792 0.029217
v -0.057882 -0.043792 -0.020783
v -0.057882 -0.043792 0.029217
v -0.032882 -0.043792 -0.020783
v -0.057882 -0.043792 -0.038783
v -0.032882 -0.043792 -0.038783
v -0.057882 -0.043792 -0.020783
v -0.032882 0.006208 -0.020783
v -0.032882 -0.043792 -0.038783
v -0.032882 0.006208 -0.038783
v -0.032882 -0.043792 -0.020783
v -0.057882 0.006208 -0.020783
v -0.032882 0.006208 -0.038783
v -0.057882 0.006208 -0.038783
v -0.032882 0.006208 -0.020783
v -0.057882 0.006208 -0.038783
v -0.057882 -0.043792 -0.020783
v -0.057882 0.006208 -0.020783
v -0.057882 -0.043792 -0.038783
v -0.032882 0.006208 -0.020783
v -0.057882 -0.043792 -0.020783
v -0.032882 -0.043792 -0.020783
v -0.057882 0.006208 -0.020783
v -0.057882 -0.043792 -0.038783
v -0.032882 0.006208 -0.038783
v -0.032882 -0.043792 -0.038783
v -0.057882 0.006208 -0.038783
v -0.082882 -0.043792 -0.004676
v -0.057882 -0.043792 0.013324
v -0.082882 -0.043792 0.013324
v -0.057882 -0.043792 -0.004676
v -0.082882 0.006208 -0.004676
v -0.082882 -0.043792 0.013324
v -0.082882 0.006208 0.013324
v -0.082882 -0.043792 -0.004676
v -0.057882 0.006208 -0.004676
v -0.082882 0.006208 0.013324
v -0.057882 0.006208 0.013324
v -0.082882 0.006208 -0.004676
v -0.057882 0.006208 0.013324
v -0.057882 -0.043792 -0.004676
v -0.057882 0.006208 -0.004676
v -0.057882 -0.043792 0.013324
v -0.082882 0.006208 -0.004676
v -0.057882 -0.043792 -0.004676
v -0.082882 -0.043792 -0.004676
v -0.057882 0.006208 -0.004676
v -0.057882 -0.043792 0.013324
v -0.082882 0.006208 0.013324
v -0.082882 -0.043792 0.013324
v -0.057882 0.006208 0.013324
v 0.049151 -0.043792 -0.020783
v 0.067151 -0.043792 -0.042783
v 0.067151 -0.043792 -0.020783
v 0.049151 -0.043792 -0.042783
v 0.049151 0.016208 -0.020783
v 0.067151 -0.043792 -0.020783
v 0.067151 0.016208 -0.020783
v 0.049151 -0.043792 -0.020783
v 0.049151 0.016208 -0.042783
v 0.067151 0.016208 -0.020783
v 0.067151 0.016208 -0.042783
v 0.049151 0.016208 -0.020783
v 0.067151 0.016208 -0.042783
v 0.049151 -0.043792 -0.042783
v 0.049151 0.016208 -0.042783
v 0.067151 -0.043792 -0.042783
v 0.049151 0.016208 -0.020783
v 0.049151 -0.043792 -0.042783
v 0.049151 -0.043792 -0.020783
v 0.049151 0.016208 -0.042783
v 0.067151 -0.043792 -0.042783
v 0.067151 0.016208 -0.020783
v 0.067151 -0.043792 -0.020783
v 0.067151 0.016208 -0.042783
v 0.049151 0.016208 -0.042783
v 0.031151 -0.008792 -0.042783
v 0.031151 0.016208 -0.042783
v 0.049151 -0.008792 -0.042783
v 0.049151 0.016208 0.007217
v 0.031151 0.016208 -0.042783
v 0.031151 0.016208 0.007217
v 0.049151 0.016208 -0.042783
v 0.049151 -0.008792 0.007217
v 0.031151 0.016208 0.007217
v 0.031151 -0.008792 0.007217
v 0.049151 0.016208 0.007217
v 0.031151 -0.008792 0.007217
v 0.049151 -0.008792 -0.042783
v 0.049151 -0.008792 0.007217
v 0.031151 -0.008792 -0.042783
v 0.049151 0.016208 0.007217
v 0.049151 -0.008792 -0.042783
v 0.049151 0.016208 -0.042783
v 0.049151 -0.008792 0.007217
v 0.031151 -0.008792 -0.042783
v 0.031151 0.016208 0.007217
v 0.031151 0.016208 -0.042783
v 0.031151 -0.008792 0.007217
v 0.013151 -0.008792 0.007217
v 0.031151 -0.008792 -0.014783
v 0.031151 -0.008792 0.007217
v 0.013151 -0.008792 -0.014783
v 0.013151 0.051208 0.007217
v 0.031151 -0.008792 0.007217
v 0.031151 0.051208 0.007217
v 0.013151 -0.008792 0.007217
v 0.013151 0.051208 -0.014783
v 0.031151 0.051208 0.007217
v 0.031151 0.051208 -0.014783
v 0.013151 0.051208 0.007217
v 0.031151 0.051208 -0.014783
v 0.013151 -0.008792 -0.014783
v 0.013151 0.051208 -0.014783
v 0.031151 -0.008792 -0.014783
v 0.013151 0.051208 0.007217
v 0.013151 -0.008792 -0.014783
v 0.013151 -0.008792 0.007217
v 0.013151 0.051208 -0.014783
v 0.031151 -0.008792 -0.014783
v 0.031151 0.051208 0.007217
v 0.031151 -0.008792 0.007217
v 0.031151 0.051208 -0.014783
v -0.032882 0.006208 0.029217
v -0.057882 0.006208 0.047217
v -0.032882 0.006208 0.047217
v -0.057882 0.006208 0.029217
v -0.032882 -0.043792 0.029217
v -0.032882 0.006208 0.047217
v -0.032882 -0.043792 0.047217
v -0.032882 0.006208 0.029217
v -0.057882 -0.043792 0.029217
v -0.032882 -0.043792 0.047217
v -0.057882 -0.043792 0.047217
v -0.032882 -0.043792 0.029217
v -0.057882 -0.043792 0.047217
v -0.057882 0.006208 0.029217
v -0.057882 -0.043792 0.029217
v -0.057882 0.006208 0.047217
v -0.032882 -0.043792 0.029217
v -0.057882 0.006208 0.029217
v -0.032882 0.006208 0.029217
v -0.057882 -0.043792 0.029217
v -0.057882 0.006208 0.047217
v -0.032882 -0.043792 0.047217
v -0.032882 0.006208 0.047217
v -0.057882 -0.043792 0.047217
v 0.089151 -0.043792 0.013217
v 0.067151 -0.043792 -0.004783
v 0.089151 -0.043792 -0.004783
v 0.067151 -0.043792 0.013217
v 0.089151 0.016208 0.013217
v 0.089151 -0.043792 -0.004783
v 0.089151 0.016208 -0.004783
v 0.089151 -0.043792 0.013217
v 0.067151 0.016208 0.013217
v 0.089151 0.016208 -0.004783
v 0.067151 0.016208 -0.004783
v 0.089151 0.016208 0.013217
v 0.067151 0.016208 -0.004783
v 0.067151 -0.043792 0.013217
v 0.067151 0.016208 0.013217
v 0.067151 -0.043792 -0.004783
v 0.089151 0.016208 0.013217
v 0.067151 -0.043792 0.013217
v 0.089151 -0.043792 0.013217
v 0.067151 0.016208 0.013217
v 0.067151 -0.043792 -0.004783
v 0.089151 0.016208 -0.004783
v 0.089151 -0.043792 -0.004783
v 0.067151 0.016208 -0.004783
v 0.089151 -0.008792 -0.004783
v 0.107151 0.016208 -0.004783
v 0.107151 -0.008792 -0.004783
v 0.089151 0.016208 -0.004783
v 0.089151 -0.008792 0.045217
v 0.107151 -0.008792 -0.004783
v 0.107151 -0.008792 0.045217
v 0.089151 -0.008792 -0.004783
v 0.089151 0.016208 0.045217
v 0.107151 -0.008792 0.045217
v 0.107151 0.016208 0.045217
v 0.089151 -0.008792 0.045217
v 0.107151 0.016208 0.045217
v 0.089151 0.016208 -0.004783
v 0.089151 0.016208 0.045217
v 0.107151 0.016208 -0.004783
v 0.089151 -0.008792 0.045217
v 0.089151 0.016208 -0.004783
v 0.089151 -0.008792 -0.004783
v 0.089151 0.016208 0.045217
v 0.107151 0.016208 -0.004783
v 0.107151 -0.008792 0.045217
v 0.107151 -0.008792 -0.004783
v 0.107151 0.016208 0.045217
vt 0.0000 0.0000
vt 0.0220 -0.0180
vt 0.0000 -0.0180
vt 0.0220 0.0000
vt -0.0600 0.0000
vt 0.0000 -0.0180
vt -0.0600 -0.0180
vt 0.0000 0.0000
vt -0.0220 0.0000
vt 0.0000 -0.0180
vt -0.0220 -0.0180
vt 0.0000 0.0000
vt 0.0600 -0.0180
vt 0.0000 0.0000
vt 0.0600 0.0000
vt 0.0000 -0.0180
vt 0.0000 0.0600
vt 0.0220 -0.0000
vt 0.0000 -0.0000
vt 0.0220 0.0600
vt 0.0220 -0.0000
vt 0.0000 0.0600
vt 0.0000 -0.0000
vt 0.0220 0.0600
vt 0.0000 0.0000
vt 0.0220 -0.0180
vt 0.0000 -0.0180
vt 0.0220 0.0000
vt -0.0600 0.0000
vt 0.0000 -0.0180
vt -0.0600 -0.0180
vt 0.0000 0.0000
vt -0.0220 0.0000
vt 0.0000 -0.0180
vt -0.0220 -0.0180
vt 0.0000 0.0000
vt 0.0600 -0.0180
vt 0.0000 0.0000
vt 0.0600 0.0000
vt 0.0000 -0.0180
vt 0.0000 0.0600
vt 0.0220 -0.0000
vt 0.0000 -0.0000
vt 0.0220 0.0600
vt 0.0220 -0.0000
vt 0.0000 0.0600
vt 0.0000 -0.0000
vt 0.0220 0.0600
vt 0.0000 0.0000
vt 0.0220 -0.0180
vt 0.0000 -0.0180
vt 0.0220 0.0000
vt -0.0600 0.0000
vt 0.0000 -0.0180
vt -0.0600 -0.0180
vt 0.0000 0.0000
vt -0.0220 0.0000
vt 0.0000 -0.0180
vt -0.0220 -0.0180
vt 0.0000 0.0000
vt 0.0600 -0.0180
vt 0.0000 0.0000
vt 0.0600 0.0000
vt 0.0000 -0.0180
vt 0.0000 0.0600
vt 0.0220 -0.0000
vt 0.0000 -0.0000
vt 0.0220 0.0600
vt 0.0220 -0.0000
vt 0.0000 0.0600
vt 0.0000 -0.0000
vt 0.0220 0.0600
vt 0.0000 0.0000
vt 0.0220 -0.0180
vt 0.0000 -0.0180
vt 0.0220 0.0000
vt -0.0600 0.0000
vt 0.0000 -0.0180
vt -0.0600 -0.0180
vt 0.0000 0.0000
vt -0.0220 0.0000
vt 0.0000 -0.0180
vt -0.0220 -0.0180
vt 0.0000 0.0000
vt 0.0600 -0.0180
vt 0.0000 0.0000
vt 0.0600 0.0000
vt 0.0000 -0.0180
vt 0.0000 0.0600
vt 0.0220 -0.0000
vt 0.0000 -0.0000
vt 0.0220 0.0600
vt 0.0220 -0.0000
vt 0.0000 0.0600
vt 0.0000 -0.0000
vt 0.0220 0.0600
vt 0.0000 0.0000
vt 0.0220 -0.0180
vt 0.0000 -0.0180
vt 0.0220 0.0000
vt -0.0600 0.0000
vt 0.0000 -0.0180
vt -0.0600 -0.0180
vt 0.0000 0.0000
vt -0.0220 0.0000
vt 0.0000 -0.0180
vt -0.0220 -0.0180
vt 0.0000 0.0000
vt 0.0600 -0.0180
vt 0.0000 0.0000
vt 0.0600 0.0000
vt 0.0000 -0.0180
vt 0.0000 0.0600
vt 0.0220 -0.0000
vt 0.0000 -0.0000
vt 0.0220 0.0600
vt 0.0220 -0.0000
vt 0.0000 0.0600
vt 0.0000 -0.0000
vt 0.0220 0.0600
vt 0.0000 0.0000
vt 0.0250 -0.0180
vt 0.0000 -0.0180
vt 0.0250 0.0000
vt -0.0500 0.0000
vt 0.0000 -0.0180
vt -0.0500 -0.0180
vt 0.0000 0.0000
vt -0.0250 0.0000
vt 0.0000 -0.0180
vt -0.0250 -0.0180
vt 0.0000 0.0000
vt 0.0500 -0.0180
vt 0.0000 0.0000
vt 0.0500 0.0000
vt 0.0000 -0.0180
vt 0.0000 0.0500
vt 0.0250 -0.0000
vt 0.0000 -0.0000
vt 0.0250 0.0500
vt 0.0250 -0.0000
vt 0.0000 0.0500
vt 0.0000 -0.0000
vt 0.0250 0.0500
vt 0.0000 0.0000
vt 0.0500 -0.0180
vt 0.0000 -0.0180
vt 0.0500 0.0000
vt 0.0000 -0.0180
vt -0.0625 0.0000
vt 0.0000 0.0000
vt -0.0625 -0.0180
vt -0.1250 0.0000
vt -0.1250 -0.0180
vt -0.0500 0.0000
vt 0.0000 -0.0180
vt -0.0500 -0.0180
vt 0.0000 0.0000
vt 0.0625 -0.0180
vt 0.0000 0.0000
vt 0.0625 0.0000
vt 0.1250 -0.0180
vt 0.1250 0.0000
vt 0.0000 -0.0180
vt 0.0000 0.1250
vt 0.0500 0.0625
vt 0.0000 0.0625
vt 0.0500 0.0000
vt 0.0000 0.0000
vt 0.0500 0.1250
vt 0.0000 0.1250
vt 0.0500 0.0625
vt 0.0500 0.1250
vt 0.0000 0.0625
vt 0.0500 0.0000
vt 0.0000 0.0000
vt 0.0000 0.0000
vt 0.0250 -0.0180
vt 0.0000 -0.0180
vt 0.0250 0.0000
vt -0.0500 0.0000
vt 0.0000 -0.0180
vt -0.0500 -0.0180
vt 0.0000 0.0000
vt -0.0250 0.0000
vt 0.0000 -0.0180
vt -0.0250 -0.0180
vt 0.0000 0.0000
vt 0.0500 -0.0180
vt 0.0000 0.0000
vt 0.0500 0.0000
vt 0.0000 -0.0180
vt 0.0000 0.0500
vt 0.0250 -0.0000
vt 0.0000 -0.0000
vt 0.0250 0.0500
vt 0.0250 -0.0000
vt 0.0000 0.0500
vt 0.0000 -0.0000
vt 0.0250 0.0500
vt 0.0000 0.0000
vt 0.0250 -0.0180
vt 0.0000 -0.0180
vt 0.0250 0.0000
vt -0.0500 0.0000
vt 0.0000 -0.0180
vt -0.0500 -0.0180
vt 0.0000 0.0000
vt -0.0250 0.0000
vt 0.0000 -0.0180
vt -0.0250 -0.0180
vt 0.0000 0.0000
vt 0.0500 -0.0180
vt 0.0000 0.0000
vt 0.0500 0.0000
vt 0.0000 -0.0180
vt 0.0000 0.0500
vt 0.0250 -0.0000
vt 0.0000 -0.0000
vt 0.0250 0.0500
vt 0.0250 -0.0000
vt 0.0000 0.0500
vt 0.0000 -0.0000
vt 0.0250 0.0500
vt 0.0000 0.0000
vt 0.0220 -0.0180
vt 0.0000 -0.0180
vt 0.0220 0.0000
vt -0.0600 0.0000
vt 0.0000 -0.0180
vt -0.0600 -0.0180
vt 0.0000 0.0000
vt -0.0220 0.0000
vt 0.0000 -0.0180
vt -0.0220 -0.0180
vt 0.0000 0.0000
vt 0.0600 -0.0180
vt 0.0000 0.0000
vt 0.0600 0.0000
vt 0.0000 -0.0180
vt 0.0000 0.0600
vt 0.0220 -0.0000
vt 0.0000 -0.0000
vt 0.0220 0.0600
vt 0.0220 -0.0000
vt 0.0000 0.0600
vt 0.0000 -0.0000
vt 0.0220 0.0600
vt 0.0000 0.0000
vt 0.0250 -0.0180
vt 0.0000 -0.0180
vt 0.0250 0.0000
vt -0.0500 0.0000
vt 0.0000 -0.0180
vt -0.0500 -0.0180
vt 0.0000 0.0000
vt -0.0250 0.0000
vt 0.0000 -0.0180
vt -0.0250 -0.0180
vt 0.0000 0.0000
vt 0.0500 -0.0180
vt 0.0000 0.0000
vt 0.0500 0.0000
vt 0.0000 -0.0180
vt 0.0000 0.0500
vt 0.0250 -0.0000
vt 0.0000 -0.0000
vt 0.0250 0.0500
vt 0.0250 -0.0000
vt 0.0000 0.0500
vt 0.0000 -0.0000
vt 0.0250 0.0500
vt 0.0000 0.0000
vt 0.0220 -0.0180
vt 0.0000 -0.0180
vt 0.0220 0.0000
vt -0.0600 0.0000
vt 0.0000 -0.0180
vt -0.0600 -0.0180
vt 0.0000 0.0000
vt -0.0220 0.0000
vt 0.0000 -0.0180
vt -0.0220 -0.0180
vt 0.0000 0.0000
vt 0.0600 -0.0180
vt 0.0000 0.0000
vt 0.0600 0.0000
vt 0.0000 -0.0180
vt 0.0000 0.0600
vt 0.0220 -0.0000
vt 0.0000 -0.0000
vt 0.0220 0.0600
vt 0.0220 -0.0000
vt 0.0000 0.0600
vt 0.0000 -0.0000
vt 0.0220 0.0600
vt 0.0000 0.0000
vt 0.0250 -0.0180
vt 0.0000 -0.0180
vt 0.0250 0.0000
vt -0.0500 0.0000
vt 0.0000 -0.0180
vt -0.0500 -0.0180
vt 0.0000 0.0000
vt -0.0250 0.0000
vt 0.0000 -0.0180
vt -0.0250 -0.0180
vt 0.0000 0.0000
vt 0.0500 -0.0180
vt 0.0000 0.0000
vt 0.0500 0.0000
vt 0.0000 -0.0180
vt 0.0000 0.0500
vt 0.0250 -0.0000
vt 0.0000 -0.0000
vt 0.0250 0.0500
vt 0.0250 -0.0000
vt 0.0000 0.0500
vt 0.0000 -0.0000
vt 0.0250 0.0500
vt 0.0000 0.0000
vt 0.0220 -0.0180
vt 0.0000 -0.0180
vt 0.0220 0.0000
vt -0.0600 0.0000
vt 0.0000 -0.0180
vt -0.0600 -0.0180
vt 0.0000 0.0000
vt -0.0220 0.0000
vt 0.0000 -0.0180
vt -0.0220 -0.0180
vt 0.0000 0.0000
vt 0.0600 -0.0180
vt 0.0000 0.0000
vt 0.0600 0.0000
vt 0.0000 -0.0180
vt 0.0000 0.0600
vt 0.0220 -0.0000
vt 0.0000 -0.0000
vt 0.0220 0.0600
vt 0.0220 -0.0000
vt 0.0000 0.0600
vt 0.0000 -0.0000
vt 0.0220 0.0600
vt 0.0000 0.0000
vt 0.0250 -0.0180
vt 0.0000 -0.0180
vt 0.0250 0.0000
vt -0.0500 0.0000
vt 0.0000 -0.0180
vt -0.0500 -0.0180
vt 0.0000 0.0000
vt -0.0250 0.0000
vt 0.0000 -0.0180
vt -0.0250 -0.0180
vt 0.0000 0.0000
vt 0.0500 -0.0180
vt 0.0000 0.0000
vt 0.0500 0.0000
vt 0.0000 -0.0180
vt 0.0000 0.0500
vt 0.0250 -0.0000
vt 0.0000 -0.0000
vt 0.0250 0.0500
vt 0.0250 -0.0000
vt 0.0000 0.0500
vt 0.0000 -0.0000
vt 0.0250 0.0500
vn 1.0000 0.0000 0.0000
vn 0.0000 -1.0000 0.0000
vn -1.0000 -0.0000 0.0000
vn 0.0000 1.0000 0.0000
vn 0.0000 0.0000 -1.0000
vn 0.0000 -0.0000 1.0000
usemtl 1.031
s 1
f 1/1/1 2/2/1 3/3/1
f 2/2/1 1/1/1 4/4/1
f 5/5/2 6/6/2 7/7/2
f 6/6/2 5/5/2 8/8/2
f 9/9/3 10/10/3 11/11/3
f 10/10/3 9/9/3 12/12/3
f 13/13/4 14/14/4 15/15/4
f 14/14/4 13/13/4 16/16/4
f 17/17/5 18/18/5 19/19/5
f 18/18/5 17/17/5 20/20/5
f 21/21/6 22/22/6 23/23/6
f 22/22/6 21/21/6 24/24/6
f 25/25/3 26/26/3 27/27/3
f 26/26/3 25/25/3 28/28/3
f 29/29/2 30/30/2 31/31/2
f 30/30/2 29/29/2 32/32/2
f 33/33/1 34/34/1 35/35/1
f 34/34/1 33/33/1 36/36/1
f 37/37/4 38/38/4 39/39/4
f 38/38/4 37/37/4 40/40/4
f 41/41/6 42/42/6 43/43/6
f 42/42/6 41/41/6 44/44/6
f 45/45/5 46/46/5 47/47/5
f 46/46/5 45/45/5 48/48/5
f 49/49/5 50/50/5 51/51/5
f 50/50/5 49/49/5 52/52/5
f 53/53/4 54/54/4 55/55/4
f 54/54/4 53/53/4 56/56/4
f 57/57/6 58/58/6 59/59/6
f 58/58/6 57/57/6 60/60/6
f 61/61/2 62/62/2 63/63/2
f 62/62/2 61/61/2 64/64/2
f 65/65/1 66/66/1 67/67/1
f 66/66/1 65/65/1 68/68/1
f 69/69/3 70/70/3 71/71/3
f 70/70/3 69/69/3 72/72/3
f 73/73/6 74/74/6 75/75/6
f 74/74/6 73/73/6 76/76/6
f 77/77/4 78/78/4 79/79/4
f 78/78/4 77/77/4 80/80/4
f 81/81/5 82/82/5 83/83/5
f 82/82/5 81/81/5 84/84/5
f 85/85/2 86/86/2 87/87/2
f 86/86/2 85/85/2 88/88/2
f 89/89/3 90/90/3 91/91/3
f 90/90/3 89/89/3 92/92/3
f 93/93/1 94/94/1 95/95/1
f 94/94/1 93/93/1 96/96/1
f 97/97/2 98/98/2 99/99/2
f 98/98/2 97/97/2 100/100/2
f 101/101/6 102/102/6 103/103/6
f 102/102/6 101/101/6 104/104/6
f 105/105/4 106/106/4 107/107/4
f 106/106/4 105/105/4 108/108/4
f 109/109/5 110/110/5 111/111/5
f 110/110/5 109/109/5 112/112/5
f 113/113/3 114/114/3 115/115/3
f 114/114/3 113/113/3 116/116/3
f 117/117/1 118/118/1 119/119/1
f 118/118/1 117/117/1 120/120/1
f 121/121/6 122/122/6 123/123/6
f 122/122/6 121/121/6 124/124/6
f 125/125/1 126/126/1 127/127/1
f 126/126/1 125/125/1 128/128/1
f 129/129/5 130/130/5 131/131/5
f 130/130/5 129/129/5 132/132/5
f 133/133/3 134/134/3 135/135/3
f 134/134/3 133/133/3 136/136/3
f 137/137/4 138/138/4 139/139/4
f 138/138/4 137/137/4 140/140/4
f 141/141/2 142/142/2 143/143/2
f 142/142/2 141/141/2 144/144/2
f 145/145/3 146/146/3 147/147/3
f 146/146/3 145/145/3 148/148/3
f 149/149/6 150/150/6 151/151/6
f 150/150/6 149/149/6 152/152/6
f 153/153/6 152/152/6 154/154/6
f 152/152/6 153/153/6 150/150/6
f 155/155/1 156/156/1 157/157/1
f 156/156/1 155/155/1 158/158/1
f 159/159/5 160/160/5 161/161/5
f 162/162/5 161/161/5 163/163/5
f 161/161/5 162/162/5 159/159/5
f 160/160/5 159/159/5 164/164/5
f 165/165/4 166/166/4 167/167/4
f 167/167/4 168/168/4 169/169/4
f 168/168/4 167/167/4 166/166/4
f 166/166/4 165/165/4 170/170/4
f 171/171/2 172/172/2 173/173/2
f 172/172/2 171/171/2 174/174/2
f 175/175/2 174/174/2 176/176/2
f 174/174/2 175/175/2 172/172/2
f 177/177/2 178/178/2 179/179/2
f 178/178/2 177/177/2 180/180/2
f 181/181/1 182/182/1 183/183/1
f 182/182/1 181/181/1 184/184/1
f 185/185/4 186/186/4 187/187/4
f 186/186/4 185/185/4 188/188/4
f 189/189/3 190/190/3 191/191/3
f 190/190/3 189/189/3 192/192/3
f 193/193/6 194/194/6 195/195/6
f 194/194/6 193/193/6 196/196/6
f 197/197/5 198/198/5 199/199/5
f 198/198/5 197/197/5 200/200/5
f 201/201/2 202/202/2 203/203/2
f 202/202/2 201/201/2 204/204/2
f 205/205/3 206/206/3 207/207/3
f 206/206/3 205/205/3 208/208/3
f 209/209/4 210/210/4 211/211/4
f 210/210/4 209/209/4 212/212/4
f 213/213/1 214/214/1 215/215/1
f 214/214/1 213/213/1 216/216/1
f 217/217/5 218/218/5 219/219/5
f 218/218/5 217/217/5 220/220/5
f 221/221/6 222/222/6 223/223/6
f 222/222/6 221/221/6 224/224/6
f 225/225/2 226/226/2 227/227/2
f 226/226/2 225/225/2 228/228/2
f 229/229/6 230/230/6 231/231/6
f 230/230/6 229/229/6 232/232/6
f 233/233/4 234/234/4 235/235/4
f 234/234/4 233/233/4 236/236/4
f 237/237/5 238/238/5 239/239/5
f 238/238/5 237/237/5 240/240/5
f 241/241/3 242/242/3 243/243/3
f 242/242/3 241/241/3 244/244/3
f 245/245/1 246/246/1 247/247/1
f 246/246/1 245/245/1 248/248/1
f 249/249/5 250/250/5 251/251/5
f 250/250/5 249/249/5 252/252/5
f 253/253/4 254/254/4 255/255/4
f 254/254/4 253/253/4 256/256/4
f 257/257/6 258/258/6 259/259/6
f 258/258/6 257/257/6 260/260/6
f 261/261/2 262/262/2 263/263/2
f 262/262/2 261/261/2 264/264/2
f 265/265/1 266/266/1 267/267/1
f 266/266/1 265/265/1 268/268/1
f 269/269/3 270/270/3 271/271/3
f 270/270/3 269/269/3 272/272/3
f 273/273/2 274/274/2 275/275/2
f 274/274/2 273/273/2 276/276/2
f 277/277/6 278/278/6 279/279/6
f 278/278/6 277/277/6 280/280/6
f 281/281/4 282/282/4 283/283/4
f 282/282/4 281/281/4 284/284/4
f 285/285/5 286/286/5 287/287/5
f 286/286/5 285/285/5 288/288/5
f 289/289/3 290/290/3 291/291/3
f 290/290/3 289/289/3 292/292/3
f 293/293/1 294/294/1 295/295/1
f 294/294/1 293/293/1 296/296/1
f 297/297/4 298/298/4 299/299/4
f 298/298/4 297/297/4 300/300/4
f 301/301/1 302/302/1 303/303/1
f 302/302/1 301/301/1 304/304/1
f 305/305/2 306/306/2 307/307/2
f 306/306/2 305/305/2 308/308/2
f 309/309/3 310/310/3 311/311/3
f 310/310/3 309/309/3 312/312/3
f 313/313/5 314/314/5 315/315/5
f 314/314/5 313/313/5 316/316/5
f 317/317/6 318/318/6 319/319/6
f 318/318/6 317/317/6 320/320/6
f 321/321/2 322/322/2 323/323/2
f 322/322/2 321/321/2 324/324/2
f 325/325/1 326/326/1 327/327/1
f 326/326/1 325/325/1 328/328/1
f 329/329/4 330/330/4 331/331/4
f 330/330/4 329/329/4 332/332/4
f 333/333/3 334/334/3 335/335/3
f 334/334/3 333/333/3 336/336/3
f 337/337/6 338/338/6 339/339/6
f 338/338/6 337/337/6 340/340/6
f 341/341/5 342/342/5 343/343/5
f 342/342/5 341/341/5 344/344/5
f 345/345/5 346/346/5 347/347/5
f 346/346/5 345/345/5 348/348/5
f 349/349/2 350/350/2 351/351/2
f 350/350/2 349/349/2 352/352/2
f 353/353/6 354/354/6 355/355/6
f 354/354/6 353/353/6 356/356/6
f 357/357/4 358/358/4 359/359/4
f 358/358/4 357/357/4 360/360/4
f 361/361/3 362/362/3 363/363/3
f 362/362/3 361/361/3 364/364/3
f 365/365/1 366/366/1 367/367/1
f 366/366/1 365/365/1 368/368/1
