# Blender v2.79 (sub 0) OBJ File: ''
# www.blender.org
mtllib Object_8.mtl
o mesh_1_Thick-4.004
v 0.010196 -0.076103 -0.004857
v 0.035196 -0.094103 -0.004857
v 0.010196 -0.094103 -0.004857
v 0.035196 -0.076103 -0.004857
v 0.010196 -0.076103 0.045143
v 0.010196 -0.094103 -0.004857
v 0.010196 -0.094103 0.045143
v 0.010196 -0.076103 -0.004857
v 0.035196 -0.076103 0.045143
v 0.010196 -0.094103 0.045143
v 0.035196 -0.094103 0.045143
v 0.010196 -0.076103 0.045143
v 0.035196 -0.094103 0.045143
v 0.035196 -0.076103 -0.004857
v 0.035196 -0.076103 0.045143
v 0.035196 -0.094103 -0.004857
v 0.010196 -0.076103 0.045143
v 0.035196 -0.076103 -0.004857
v 0.010196 -0.076103 -0.004857
v 0.035196 -0.076103 0.045143
v 0.035196 -0.094103 -0.004857
v 0.010196 -0.094103 0.045143
v 0.010196 -0.094103 -0.004857
v 0.035196 -0.094103 0.045143
v 0.025196 0.045931 0.029143
v 0.025196 0.070931 0.047143
v 0.025196 0.045931 0.047143
v 0.025196 0.070931 0.029143
v -0.024804 0.045931 0.029143
v 0.025196 0.045931 0.047143
v -0.024804 0.045931 0.047143
v 0.025196 0.045931 0.029143
v -0.024804 0.070931 0.029143
v -0.024804 0.045931 0.047143
v -0.024804 0.070931 0.047143
v -0.024804 0.045931 0.029143
v -0.024804 0.070931 0.047143
v 0.025196 0.070931 0.029143
v -0.024804 0.070931 0.029143
v 0.025196 0.070931 0.047143
v -0.024804 0.045931 0.029143
v 0.025196 0.070931 0.029143
v 0.025196 0.045931 0.029143
v -0.024804 0.070931 0.029143
v 0.025196 0.070931 0.047143
v -0.024804 0.045931 0.047143
v 0.025196 0.045931 0.047143
v -0.024804 0.070931 0.047143
v -0.024804 0.045931 -0.020857
v -0.024804 0.070931 -0.038857
v -0.024804 0.045931 -0.038857
v -0.024804 0.070931 -0.020857
v 0.025196 0.045931 -0.020857
v -0.024804 0.045931 -0.038857
v 0.025196 0.045931 -0.038857
v -0.024804 0.045931 -0.020857
v 0.025196 0.070931 -0.020857
v 0.025196 0.045931 -0.038857
v 0.025196 0.070931 -0.038857
v 0.025196 0.045931 -0.020857
v 0.025196 0.070931 -0.038857
v -0.024804 0.070931 -0.020857
v 0.025196 0.070931 -0.020857
v -0.024804 0.070931 -0.038857
v 0.025196 0.045931 -0.020857
v -0.024804 0.070931 -0.020857
v -0.024804 0.045931 -0.020857
v 0.025196 0.070931 -0.020857
v -0.024804 0.070931 -0.038857
v 0.025196 0.045931 -0.038857
v -0.024804 0.045931 -0.038857
v 0.025196 0.070931 -0.038857
v 0.035196 -0.036103 -0.042857
v 0.010196 -0.018103 -0.042857
v 0.035196 -0.018103 -0.042857
v 0.010196 -0.036103 -0.042857
v 0.035196 -0.036103 0.007143
v 0.035196 -0.018103 -0.042857
v 0.035196 -0.018103 0.007143
v 0.035196 -0.036103 -0.042857
v 0.010196 -0.036103 0.007143
v 0.035196 -0.018103 0.007143
v 0.010196 -0.018103 0.007143
v 0.035196 -0.036103 0.007143
v 0.010196 -0.018103 0.007143
v 0.010196 -0.036103 -0.042857
v 0.010196 -0.036103 0.007143
v 0.010196 -0.018103 -0.042857
v 0.035196 -0.036103 0.007143
v 0.010196 -0.036103 -0.042857
v 0.035196 -0.036103 -0.042857
v 0.010196 -0.036103 0.007143
v 0.010196 -0.018103 -0.042857
v 0.035196 -0.018103 0.007143
v 0.035196 -0.018103 -0.042857
v 0.010196 -0.018103 0.007143
v -0.006804 0.070931 0.029143
v -0.024804 0.070931 -0.020857
v -0.024804 0.070931 0.029143
v -0.006804 0.070931 -0.020857
v -0.024804 0.070931 0.029143
v -0.006804 0.008414 0.029143
v -0.006804 0.070931 0.029143
v -0.024804 0.008414 0.029143
v -0.006804 -0.054103 0.029143
v -0.024804 -0.054103 0.029143
v -0.006804 -0.054103 -0.020857
v -0.024804 -0.054103 0.029143
v -0.024804 -0.054103 -0.020857
v -0.006804 -0.054103 0.029143
v -0.024804 0.008414 -0.020857
v -0.006804 0.070931 -0.020857
v -0.006804 0.008414 -0.020857
v -0.024804 -0.054103 -0.020857
v -0.006804 -0.054103 -0.020857
v -0.024804 0.070931 -0.020857
v -0.006804 -0.054103 0.029143
v -0.006804 0.008414 -0.020857
v -0.006804 0.008414 0.029143
v -0.006804 0.070931 -0.020857
v -0.006804 0.070931 0.029143
v -0.006804 -0.054103 -0.020857
v -0.024804 -0.054103 0.029143
v -0.024804 0.008414 -0.020857
v -0.024804 -0.054103 -0.020857
v -0.024804 0.008414 0.029143
v -0.024804 0.070931 -0.020857
v -0.024804 0.070931 0.029143
v -0.024804 0.095931 -0.004750
v -0.024804 0.070931 0.013250
v -0.024804 0.095931 0.013250
v -0.024804 0.070931 -0.004750
v 0.025196 0.095931 -0.004750
v -0.024804 0.095931 0.013250
v 0.025196 0.095931 0.013250
v -0.024804 0.095931 -0.004750
v 0.025196 0.070931 -0.004750
v 0.025196 0.095931 0.013250
v 0.025196 0.070931 0.013250
v 0.025196 0.095931 -0.004750
v 0.025196 0.070931 0.013250
v -0.024804 0.070931 -0.004750
v 0.025196 0.070931 -0.004750
v -0.024804 0.070931 0.013250
v 0.025196 0.095931 -0.004750
v -0.024804 0.070931 -0.004750
v -0.024804 0.095931 -0.004750
v 0.025196 0.070931 -0.004750
v -0.024804 0.070931 0.013250
v 0.025196 0.095931 0.013250
v -0.024804 0.095931 0.013250
v 0.025196 0.070931 0.013250
v -0.024804 -0.036103 -0.020857
v -0.024804 -0.054103 -0.042857
v -0.024804 -0.054103 -0.020857
v -0.024804 -0.036103 -0.042857
v 0.035196 -0.036103 -0.020857
v -0.024804 -0.054103 -0.020857
v 0.035196 -0.054103 -0.020857
v -0.024804 -0.036103 -0.020857
v 0.035196 -0.036103 -0.042857
v 0.035196 -0.054103 -0.020857
v 0.035196 -0.054103 -0.042857
v 0.035196 -0.036103 -0.020857
v 0.035196 -0.054103 -0.042857
v -0.024804 -0.036103 -0.042857
v 0.035196 -0.036103 -0.042857
v -0.024804 -0.054103 -0.042857
v 0.035196 -0.036103 -0.020857
v -0.024804 -0.036103 -0.042857
v -0.024804 -0.036103 -0.020857
v 0.035196 -0.036103 -0.042857
v -0.024804 -0.054103 -0.042857
v 0.035196 -0.054103 -0.020857
v -0.024804 -0.054103 -0.020857
v 0.035196 -0.054103 -0.042857
v -0.024804 -0.076103 0.013143
v -0.024804 -0.054103 -0.004857
v -0.024804 -0.076103 -0.004857
v -0.024804 -0.054103 0.013143
v 0.035196 -0.076103 0.013143
v -0.024804 -0.076103 -0.004857
v 0.035196 -0.076103 -0.004857
v -0.024804 -0.076103 0.013143
v 0.035196 -0.054103 0.013143
v 0.035196 -0.076103 -0.004857
v 0.035196 -0.054103 -0.004857
v 0.035196 -0.076103 0.013143
v 0.035196 -0.054103 -0.004857
v -0.024804 -0.054103 0.013143
v 0.035196 -0.054103 0.013143
v -0.024804 -0.054103 -0.004857
v 0.035196 -0.076103 0.013143
v -0.024804 -0.054103 0.013143
v -0.024804 -0.076103 0.013143
v 0.035196 -0.054103 0.013143
v -0.024804 -0.054103 -0.004857
v 0.035196 -0.076103 -0.004857
v -0.024804 -0.076103 -0.004857
v 0.035196 -0.054103 -0.004857
vt 0.000000 0.000000
vt 0.025000 -0.018000
vt 0.000000 -0.018000
vt 0.025000 0.000000
vt -0.050000 0.000000
vt 0.000000 -0.018000
vt -0.050000 -0.018000
vt 0.000000 0.000000
vt -0.025000 0.000000
vt 0.000000 -0.018000
vt -0.025000 -0.018000
vt 0.000000 0.000000
vt 0.050000 -0.018000
vt 0.000000 0.000000
vt 0.050000 0.000000
vt 0.000000 -0.018000
vt 0.000000 0.050000
vt 0.025000 -0.000000
vt 0.000000 -0.000000
vt 0.025000 0.050000
vt 0.025000 -0.000000
vt 0.000000 0.050000
vt 0.000000 -0.000000
vt 0.025000 0.050000
vt 0.000000 0.000000
vt 0.025000 -0.018000
vt 0.000000 -0.018000
vt 0.025000 0.000000
vt -0.050000 0.000000
vt 0.000000 -0.018000
vt -0.050000 -0.018000
vt 0.000000 0.000000
vt -0.025000 0.000000
vt 0.000000 -0.018000
vt -0.025000 -0.018000
vt 0.000000 0.000000
vt 0.050000 -0.018000
vt 0.000000 0.000000
vt 0.050000 0.000000
vt 0.000000 -0.018000
vt 0.000000 0.050000
vt 0.025000 -0.000000
vt 0.000000 -0.000000
vt 0.025000 0.050000
vt 0.025000 -0.000000
vt 0.000000 0.050000
vt 0.000000 -0.000000
vt 0.025000 0.050000
vt 0.000000 0.000000
vt 0.025000 -0.018000
vt 0.000000 -0.018000
vt 0.025000 0.000000
vt -0.050000 0.000000
vt 0.000000 -0.018000
vt -0.050000 -0.018000
vt 0.000000 0.000000
vt -0.025000 0.000000
vt 0.000000 -0.018000
vt -0.025000 -0.018000
vt 0.000000 0.000000
vt 0.050000 -0.018000
vt 0.000000 0.000000
vt 0.050000 0.000000
vt 0.000000 -0.018000
vt 0.000000 0.050000
vt 0.025000 -0.000000
vt 0.000000 -0.000000
vt 0.025000 0.050000
vt 0.025000 -0.000000
vt 0.000000 0.050000
vt 0.000000 -0.000000
vt 0.025000 0.050000
vt 0.000000 0.000000
vt 0.025000 -0.018000
vt 0.000000 -0.018000
vt 0.025000 0.000000
vt -0.050000 0.000000
vt 0.000000 -0.018000
vt -0.050000 -0.018000
vt 0.000000 0.000000
vt -0.025000 0.000000
vt 0.000000 -0.018000
vt -0.025000 -0.018000
vt 0.000000 0.000000
vt 0.050000 -0.018000
vt 0.000000 0.000000
vt 0.050000 0.000000
vt 0.000000 -0.018000
vt 0.000000 0.050000
vt 0.025000 -0.000000
vt 0.000000 -0.000000
vt 0.025000 0.050000
vt 0.025000 -0.000000
vt 0.000000 0.050000
vt 0.000000 -0.000000
vt 0.025000 0.050000
vt 0.000000 0.000000
vt 0.050000 -0.018000
vt 0.000000 -0.018000
vt 0.050000 0.000000
vt 0.000000 -0.018000
vt -0.062500 0.000000
vt 0.000000 0.000000
vt -0.062500 -0.018000
vt -0.125000 0.000000
vt -0.125000 -0.018000
vt -0.050000 0.000000
vt 0.000000 -0.018000
vt -0.050000 -0.018000
vt 0.000000 0.000000
vt 0.062500 -0.018000
vt 0.000000 0.000000
vt 0.062500 0.000000
vt 0.125000 -0.018000
vt 0.125000 0.000000
vt 0.000000 -0.018000
vt 0.000000 0.125000
vt 0.050000 0.062500
vt 0.000000 0.062500
vt 0.050000 0.000000
vt 0.000000 0.000000
vt 0.050000 0.125000
vt 0.000000 0.125000
vt 0.050000 0.062500
vt 0.050000 0.125000
vt 0.000000 0.062500
vt 0.050000 0.000000
vt 0.000000 0.000000
vt 0.000000 0.000000
vt 0.025000 -0.018000
vt 0.000000 -0.018000
vt 0.025000 0.000000
vt -0.050000 0.000000
vt 0.000000 -0.018000
vt -0.050000 -0.018000
vt 0.000000 0.000000
vt -0.025000 0.000000
vt 0.000000 -0.018000
vt -0.025000 -0.018000
vt 0.000000 0.000000
vt 0.050000 -0.018000
vt 0.000000 0.000000
vt 0.050000 0.000000
vt 0.000000 -0.018000
vt 0.000000 0.050000
vt 0.025000 -0.000000
vt 0.000000 -0.000000
vt 0.025000 0.050000
vt 0.025000 -0.000000
vt 0.000000 0.050000
vt 0.000000 -0.000000
vt 0.025000 0.050000
vt 0.000000 0.000000
vt 0.022000 -0.018000
vt 0.000000 -0.018000
vt 0.022000 0.000000
vt -0.060000 0.000000
vt 0.000000 -0.018000
vt -0.060000 -0.018000
vt 0.000000 0.000000
vt -0.022000 0.000000
vt 0.000000 -0.018000
vt -0.022000 -0.018000
vt 0.000000 0.000000
vt 0.060000 -0.018000
vt 0.000000 0.000000
vt 0.060000 0.000000
vt 0.000000 -0.018000
vt 0.000000 0.060000
vt 0.022000 -0.000000
vt 0.000000 -0.000000
vt 0.022000 0.060000
vt 0.022000 -0.000000
vt 0.000000 0.060000
vt 0.000000 -0.000000
vt 0.022000 0.060000
vt 0.000000 0.000000
vt 0.022000 -0.018000
vt 0.000000 -0.018000
vt 0.022000 0.000000
vt -0.060000 0.000000
vt 0.000000 -0.018000
vt -0.060000 -0.018000
vt 0.000000 0.000000
vt -0.022000 0.000000
vt 0.000000 -0.018000
vt -0.022000 -0.018000
vt 0.000000 0.000000
vt 0.060000 -0.018000
vt 0.000000 0.000000
vt 0.060000 0.000000
vt 0.000000 -0.018000
vt 0.000000 0.060000
vt 0.022000 -0.000000
vt 0.000000 -0.000000
vt 0.022000 0.060000
vt 0.022000 -0.000000
vt 0.000000 0.060000
vt 0.000000 -0.000000
vt 0.022000 0.060000
vn 0.0000 0.0000 -1.0000
vn -1.0000 -0.0000 -0.0000
vn 0.0000 0.0000 1.0000
vn 1.0000 0.0000 0.0000
vn 0.0000 1.0000 -0.0000
vn 0.0000 -1.0000 -0.0000
usemtl 1.004
s 1
f 1/1/1 2/2/1 3/3/1
f 2/2/1 1/1/1 4/4/1
f 5/5/2 6/6/2 7/7/2
f 6/6/2 5/5/2 8/8/2
f 9/9/3 10/10/3 11/11/3
f 10/10/3 9/9/3 12/12/3
f 13/13/4 14/14/4 15/15/4
f 14/14/4 13/13/4 16/16/4
f 17/17/5 18/18/5 19/19/5
f 18/18/5 17/17/5 20/20/5
f 21/21/6 22/22/6 23/23/6
f 22/22/6 21/21/6 24/24/6
f 25/25/4 26/26/4 27/27/4
f 26/26/4 25/25/4 28/28/4
f 29/29/6 30/30/6 31/31/6
f 30/30/6 29/29/6 32/32/6
f 33/33/2 34/34/2 35/35/2
f 34/34/2 33/33/2 36/36/2
f 37/37/5 38/38/5 39/39/5
f 38/38/5 37/37/5 40/40/5
f 41/41/1 42/42/1 43/43/1
f 42/42/1 41/41/1 44/44/1
f 45/45/3 46/46/3 47/47/3
f 46/46/3 45/45/3 48/48/3
f 49/49/2 50/50/2 51/51/2
f 50/50/2 49/49/2 52/52/2
f 53/53/6 54/54/6 55/55/6
f 54/54/6 53/53/6 56/56/6
f 57/57/4 58/58/4 59/59/4
f 58/58/4 57/57/4 60/60/4
f 61/61/5 62/62/5 63/63/5
f 62/62/5 61/61/5 64/64/5
f 65/65/3 66/66/3 67/67/3
f 66/66/3 65/65/3 68/68/3
f 69/69/1 70/70/1 71/71/1
f 70/70/1 69/69/1 72/72/1
f 73/73/1 74/74/1 75/75/1
f 74/74/1 73/73/1 76/76/1
f 77/77/4 78/78/4 79/79/4
f 78/78/4 77/77/4 80/80/4
f 81/81/3 82/82/3 83/83/3
f 82/82/3 81/81/3 84/84/3
f 85/85/2 86/86/2 87/87/2
f 86/86/2 85/85/2 88/88/2
f 89/89/6 90/90/6 91/91/6
f 90/90/6 89/89/6 92/92/6
f 93/93/5 94/94/5 95/95/5
f 94/94/5 93/93/5 96/96/5
f 97/97/5 98/98/5 99/99/5
f 98/98/5 97/97/5 100/100/5
f 101/101/3 102/102/3 103/103/3
f 102/102/3 101/101/3 104/104/3
f 105/105/3 104/104/3 106/106/3
f 104/104/3 105/105/3 102/102/3
f 107/107/6 108/108/6 109/109/6
f 108/108/6 107/107/6 110/110/6
f 111/111/1 112/112/1 113/113/1
f 114/114/1 113/113/1 115/115/1
f 113/113/1 114/114/1 111/111/1
f 112/112/1 111/111/1 116/116/1
f 117/117/4 118/118/4 119/119/4
f 119/119/4 120/120/4 121/121/4
f 120/120/4 119/119/4 118/118/4
f 118/118/4 117/117/4 122/122/4
f 123/123/2 124/124/2 125/125/2
f 124/124/2 123/123/2 126/126/2
f 127/127/2 126/126/2 128/128/2
f 126/126/2 127/127/2 124/124/2
f 129/129/2 130/130/2 131/131/2
f 130/130/2 129/129/2 132/132/2
f 133/133/5 134/134/5 135/135/5
f 134/134/5 133/133/5 136/136/5
f 137/137/4 138/138/4 139/139/4
f 138/138/4 137/137/4 140/140/4
f 141/141/6 142/142/6 143/143/6
f 142/142/6 141/141/6 144/144/6
f 145/145/1 146/146/1 147/147/1
f 146/146/1 145/145/1 148/148/1
f 149/149/3 150/150/3 151/151/3
f 150/150/3 149/149/3 152/152/3
f 153/153/2 154/154/2 155/155/2
f 154/154/2 153/153/2 156/156/2
f 157/157/3 158/158/3 159/159/3
f 158/158/3 157/157/3 160/160/3
f 161/161/4 162/162/4 163/163/4
f 162/162/4 161/161/4 164/164/4
f 165/165/1 166/166/1 167/167/1
f 166/166/1 165/165/1 168/168/1
f 169/169/5 170/170/5 171/171/5
f 170/170/5 169/169/5 172/172/5
f 173/173/6 174/174/6 175/175/6
f 174/174/6 173/173/6 176/176/6
f 177/177/2 178/178/2 179/179/2
f 178/178/2 177/177/2 180/180/2
f 181/181/6 182/182/6 183/183/6
f 182/182/6 181/181/6 184/184/6
f 185/185/4 186/186/4 187/187/4
f 186/186/4 185/185/4 188/188/4
f 189/189/5 190/190/5 191/191/5
f 190/190/5 189/189/5 192/192/5
f 193/193/3 194/194/3 195/195/3
f 194/194/3 193/193/3 196/196/3
f 197/197/1 198/198/1 199/199/1
f 198/198/1 197/197/1 200/200/1
