# Blender v2.79 (sub 0) OBJ File: ''
# www.blender.org
mtllib Object_6.mtl
o mesh_1_Thick-2.002
v -0.019627 0.033132 -0.020596
v -0.019627 0.058132 -0.038596
v -0.019627 0.033132 -0.038596
v -0.019627 0.058132 -0.020596
v 0.030373 0.033132 -0.020596
v -0.019627 0.033132 -0.038596
v 0.030373 0.033132 -0.038596
v -0.019627 0.033132 -0.020596
v 0.030373 0.058132 -0.020596
v 0.030373 0.033132 -0.038596
v 0.030373 0.058132 -0.038596
v 0.030373 0.033132 -0.020596
v 0.030373 0.058132 -0.038596
v -0.019627 0.058132 -0.020596
v 0.030373 0.058132 -0.020596
v -0.019627 0.058132 -0.038596
v 0.030373 0.033132 -0.020596
v -0.019627 0.058132 -0.020596
v -0.019627 0.033132 -0.020596
v 0.030373 0.058132 -0.020596
v -0.019627 0.058132 -0.038596
v 0.030373 0.033132 -0.038596
v -0.019627 0.033132 -0.038596
v 0.030373 0.058132 -0.038596
v -0.019627 0.083132 -0.004489
v -0.019627 0.058132 0.013511
v -0.019627 0.083132 0.013511
v -0.019627 0.058132 -0.004489
v 0.030373 0.083132 -0.004489
v -0.019627 0.083132 0.013511
v 0.030373 0.083132 0.013511
v -0.019627 0.083132 -0.004489
v 0.030373 0.058132 -0.004489
v 0.030373 0.083132 0.013511
v 0.030373 0.058132 0.013511
v 0.030373 0.083132 -0.004489
v 0.030373 0.058132 0.013511
v -0.019627 0.058132 -0.004489
v 0.030373 0.058132 -0.004489
v -0.019627 0.058132 0.013511
v 0.030373 0.083132 -0.004489
v -0.019627 0.058132 -0.004489
v -0.019627 0.083132 -0.004489
v 0.030373 0.058132 -0.004489
v -0.019627 0.058132 0.013511
v 0.030373 0.083132 0.013511
v -0.019627 0.083132 0.013511
v 0.030373 0.058132 0.013511
v -0.019627 -0.088901 0.013404
v -0.019627 -0.066901 -0.004596
v -0.019627 -0.088901 -0.004596
v -0.019627 -0.066901 0.013404
v 0.040373 -0.088901 0.013404
v -0.019627 -0.088901 -0.004596
v 0.040373 -0.088901 -0.004596
v -0.019627 -0.088901 0.013404
v 0.040373 -0.066901 0.013404
v 0.040373 -0.088901 -0.004596
v 0.040373 -0.066901 -0.004596
v 0.040373 -0.088901 0.013404
v 0.040373 -0.066901 -0.004596
v -0.019627 -0.066901 0.013404
v 0.040373 -0.066901 0.013404
v -0.019627 -0.066901 -0.004596
v 0.040373 -0.088901 0.013404
v -0.019627 -0.066901 0.013404
v -0.019627 -0.088901 0.013404
v 0.040373 -0.066901 0.013404
v -0.019627 -0.066901 -0.004596
v 0.040373 -0.088901 -0.004596
v -0.019627 -0.088901 -0.004596
v 0.040373 -0.066901 -0.004596
v 0.030373 0.033132 0.029404
v 0.030373 0.058132 0.047404
v 0.030373 0.033132 0.047404
v 0.030373 0.058132 0.029404
v -0.019627 0.033132 0.029404
v 0.030373 0.033132 0.047404
v -0.019627 0.033132 0.047404
v 0.030373 0.033132 0.029404
v -0.019627 0.058132 0.029404
v -0.019627 0.033132 0.047404
v -0.019627 0.058132 0.047404
v -0.019627 0.033132 0.029404
v -0.019627 0.058132 0.047404
v 0.030373 0.058132 0.029404
v -0.019627 0.058132 0.029404
v 0.030373 0.058132 0.047404
v -0.019627 0.033132 0.029404
v 0.030373 0.058132 0.029404
v 0.030373 0.033132 0.029404
v -0.019627 0.058132 0.029404
v 0.030373 0.058132 0.047404
v -0.019627 0.033132 0.047404
v 0.030373 0.033132 0.047404
v -0.019627 0.058132 0.047404
v -0.019627 -0.048901 -0.020596
v -0.019627 -0.066901 -0.042596
v -0.019627 -0.066901 -0.020596
v -0.019627 -0.048901 -0.042596
v 0.040373 -0.048901 -0.020596
v -0.019627 -0.066901 -0.020596
v 0.040373 -0.066901 -0.020596
v -0.019627 -0.048901 -0.020596
v 0.040373 -0.048901 -0.042596
v 0.040373 -0.066901 -0.020596
v 0.040373 -0.066901 -0.042596
v 0.040373 -0.048901 -0.020596
v 0.040373 -0.066901 -0.042596
v -0.019627 -0.048901 -0.042596
v 0.040373 -0.048901 -0.042596
v -0.019627 -0.066901 -0.042596
v 0.040373 -0.048901 -0.020596
v -0.019627 -0.048901 -0.042596
v -0.019627 -0.048901 -0.020596
v 0.040373 -0.048901 -0.042596
v -0.019627 -0.066901 -0.042596
v 0.040373 -0.066901 -0.020596
v -0.019627 -0.066901 -0.020596
v 0.040373 -0.066901 -0.042596
v -0.001627 0.058132 0.029404
v -0.019627 0.058132 -0.020596
v -0.019627 0.058132 0.029404
v -0.001627 0.058132 -0.020596
v -0.019627 0.058132 0.029404
v -0.001627 -0.004385 0.029404
v -0.001627 0.058132 0.029404
v -0.019627 -0.004385 0.029404
v -0.001627 -0.066901 0.029404
v -0.019627 -0.066901 0.029404
v -0.001627 -0.066901 -0.020596
v -0.019627 -0.066901 0.029404
v -0.019627 -0.066901 -0.020596
v -0.001627 -0.066901 0.029404
v -0.019627 -0.004385 -0.020596
v -0.001627 0.058132 -0.020596
v -0.001627 -0.004385 -0.020596
v -0.019627 -0.066901 -0.020596
v -0.001627 -0.066901 -0.020596
v -0.019627 0.058132 -0.020596
v -0.001627 -0.066901 0.029404
v -0.001627 -0.004385 -0.020596
v -0.001627 -0.004385 0.029404
v -0.001627 0.058132 -0.020596
v -0.001627 0.058132 0.029404
v -0.001627 -0.066901 -0.020596
v -0.019627 -0.066901 0.029404
v -0.019627 -0.004385 -0.020596
v -0.019627 -0.066901 -0.020596
v -0.019627 -0.004385 0.029404
v -0.019627 0.058132 -0.020596
v -0.019627 0.058132 0.029404
vt 0.000000 0.000000
vt 0.025000 -0.018000
vt 0.000000 -0.018000
vt 0.025000 0.000000
vt -0.050000 0.000000
vt 0.000000 -0.018000
vt -0.050000 -0.018000
vt 0.000000 0.000000
vt -0.025000 0.000000
vt 0.000000 -0.018000
vt -0.025000 -0.018000
vt 0.000000 0.000000
vt 0.050000 -0.018000
vt 0.000000 0.000000
vt 0.050000 0.000000
vt 0.000000 -0.018000
vt 0.000000 0.050000
vt 0.025000 -0.000000
vt 0.000000 -0.000000
vt 0.025000 0.050000
vt 0.025000 -0.000000
vt 0.000000 0.050000
vt 0.000000 -0.000000
vt 0.025000 0.050000
vt 0.000000 0.000000
vt 0.025000 -0.018000
vt 0.000000 -0.018000
vt 0.025000 0.000000
vt -0.050000 0.000000
vt 0.000000 -0.018000
vt -0.050000 -0.018000
vt 0.000000 0.000000
vt -0.025000 0.000000
vt 0.000000 -0.018000
vt -0.025000 -0.018000
vt 0.000000 0.000000
vt 0.050000 -0.018000
vt 0.000000 0.000000
vt 0.050000 0.000000
vt 0.000000 -0.018000
vt 0.000000 0.050000
vt 0.025000 -0.000000
vt 0.000000 -0.000000
vt 0.025000 0.050000
vt 0.025000 -0.000000
vt 0.000000 0.050000
vt 0.000000 -0.000000
vt 0.025000 0.050000
vt 0.000000 0.000000
vt 0.022000 -0.018000
vt 0.000000 -0.018000
vt 0.022000 0.000000
vt -0.060000 0.000000
vt 0.000000 -0.018000
vt -0.060000 -0.018000
vt 0.000000 0.000000
vt -0.022000 0.000000
vt 0.000000 -0.018000
vt -0.022000 -0.018000
vt 0.000000 0.000000
vt 0.060000 -0.018000
vt 0.000000 0.000000
vt 0.060000 0.000000
vt 0.000000 -0.018000
vt 0.000000 0.060000
vt 0.022000 -0.000000
vt 0.000000 -0.000000
vt 0.022000 0.060000
vt 0.022000 -0.000000
vt 0.000000 0.060000
vt 0.000000 -0.000000
vt 0.022000 0.060000
vt 0.000000 0.000000
vt 0.025000 -0.018000
vt 0.000000 -0.018000
vt 0.025000 0.000000
vt -0.050000 0.000000
vt 0.000000 -0.018000
vt -0.050000 -0.018000
vt 0.000000 0.000000
vt -0.025000 0.000000
vt 0.000000 -0.018000
vt -0.025000 -0.018000
vt 0.000000 0.000000
vt 0.050000 -0.018000
vt 0.000000 0.000000
vt 0.050000 0.000000
vt 0.000000 -0.018000
vt 0.000000 0.050000
vt 0.025000 -0.000000
vt 0.000000 -0.000000
vt 0.025000 0.050000
vt 0.025000 -0.000000
vt 0.000000 0.050000
vt 0.000000 -0.000000
vt 0.025000 0.050000
vt 0.000000 0.000000
vt 0.022000 -0.018000
vt 0.000000 -0.018000
vt 0.022000 0.000000
vt -0.060000 0.000000
vt 0.000000 -0.018000
vt -0.060000 -0.018000
vt 0.000000 0.000000
vt -0.022000 0.000000
vt 0.000000 -0.018000
vt -0.022000 -0.018000
vt 0.000000 0.000000
vt 0.060000 -0.018000
vt 0.000000 0.000000
vt 0.060000 0.000000
vt 0.000000 -0.018000
vt 0.000000 0.060000
vt 0.022000 -0.000000
vt 0.000000 -0.000000
vt 0.022000 0.060000
vt 0.022000 -0.000000
vt 0.000000 0.060000
vt 0.000000 -0.000000
vt 0.022000 0.060000
vt 0.000000 0.000000
vt 0.050000 -0.018000
vt 0.000000 -0.018000
vt 0.050000 0.000000
vt 0.000000 -0.018000
vt -0.062500 0.000000
vt 0.000000 0.000000
vt -0.062500 -0.018000
vt -0.125000 0.000000
vt -0.125000 -0.018000
vt -0.050000 0.000000
vt 0.000000 -0.018000
vt -0.050000 -0.018000
vt 0.000000 0.000000
vt 0.062500 -0.018000
vt 0.000000 0.000000
vt 0.062500 0.000000
vt 0.125000 -0.018000
vt 0.125000 0.000000
vt 0.000000 -0.018000
vt 0.000000 0.125000
vt 0.050000 0.062500
vt 0.000000 0.062500
vt 0.050000 0.000000
vt 0.000000 0.000000
vt 0.050000 0.125000
vt 0.000000 0.125000
vt 0.050000 0.062500
vt 0.050000 0.125000
vt 0.000000 0.062500
vt 0.050000 0.000000
vt 0.000000 0.000000
vn -1.0000 0.0000 -0.0000
vn 0.0000 -1.0000 0.0000
vn 1.0000 0.0000 0.0000
vn -0.0000 1.0000 0.0000
vn -0.0000 -0.0000 1.0000
vn -0.0000 0.0000 -1.0000
usemtl 1.022
s 1
f 1/1/1 2/2/1 3/3/1
f 2/2/1 1/1/1 4/4/1
f 5/5/2 6/6/2 7/7/2
f 6/6/2 5/5/2 8/8/2
f 9/9/3 10/10/3 11/11/3
f 10/10/3 9/9/3 12/12/3
f 13/13/4 14/14/4 15/15/4
f 14/14/4 13/13/4 16/16/4
f 17/17/5 18/18/5 19/19/5
f 18/18/5 17/17/5 20/20/5
f 21/21/6 22/22/6 23/23/6
f 22/22/6 21/21/6 24/24/6
f 25/25/1 26/26/1 27/27/1
f 26/26/1 25/25/1 28/28/1
f 29/29/4 30/30/4 31/31/4
f 30/30/4 29/29/4 32/32/4
f 33/33/3 34/34/3 35/35/3
f 34/34/3 33/33/3 36/36/3
f 37/37/2 38/38/2 39/39/2
f 38/38/2 37/37/2 40/40/2
f 41/41/6 42/42/6 43/43/6
f 42/42/6 41/41/6 44/44/6
f 45/45/5 46/46/5 47/47/5
f 46/46/5 45/45/5 48/48/5
f 49/49/1 50/50/1 51/51/1
f 50/50/1 49/49/1 52/52/1
f 53/53/2 54/54/2 55/55/2
f 54/54/2 53/53/2 56/56/2
f 57/57/3 58/58/3 59/59/3
f 58/58/3 57/57/3 60/60/3
f 61/61/4 62/62/4 63/63/4
f 62/62/4 61/61/4 64/64/4
f 65/65/5 66/66/5 67/67/5
f 66/66/5 65/65/5 68/68/5
f 69/69/6 70/70/6 71/71/6
f 70/70/6 69/69/6 72/72/6
f 73/73/3 74/74/3 75/75/3
f 74/74/3 73/73/3 76/76/3
f 77/77/2 78/78/2 79/79/2
f 78/78/2 77/77/2 80/80/2
f 81/81/1 82/82/1 83/83/1
f 82/82/1 81/81/1 84/84/1
f 85/85/4 86/86/4 87/87/4
f 86/86/4 85/85/4 88/88/4
f 89/89/6 90/90/6 91/91/6
f 90/90/6 89/89/6 92/92/6
f 93/93/5 94/94/5 95/95/5
f 94/94/5 93/93/5 96/96/5
f 97/97/1 98/98/1 99/99/1
f 98/98/1 97/97/1 100/100/1
f 101/101/5 102/102/5 103/103/5
f 102/102/5 101/101/5 104/104/5
f 105/105/3 106/106/3 107/107/3
f 106/106/3 105/105/3 108/108/3
f 109/109/6 110/110/6 111/111/6
f 110/110/6 109/109/6 112/112/6
f 113/113/4 114/114/4 115/115/4
f 114/114/4 113/113/4 116/116/4
f 117/117/2 118/118/2 119/119/2
f 118/118/2 117/117/2 120/120/2
f 121/121/4 122/122/4 123/123/4
f 122/122/4 121/121/4 124/124/4
f 125/125/5 126/126/5 127/127/5
f 126/126/5 125/125/5 128/128/5
f 129/129/5 128/128/5 130/130/5
f 128/128/5 129/129/5 126/126/5
f 131/131/2 132/132/2 133/133/2
f 132/132/2 131/131/2 134/134/2
f 135/135/6 136/136/6 137/137/6
f 138/138/6 137/137/6 139/139/6
f 137/137/6 138/138/6 135/135/6
f 136/136/6 135/135/6 140/140/6
f 141/141/3 142/142/3 143/143/3
f 143/143/3 144/144/3 145/145/3
f 144/144/3 143/143/3 142/142/3
f 142/142/3 141/141/3 146/146/3
f 147/147/1 148/148/1 149/149/1
f 148/148/1 147/147/1 150/150/1
f 151/151/1 150/150/1 152/152/1
f 150/150/1 151/151/1 148/148/1
