# Blender v2.79 (sub 0) OBJ File: ''
# www.blender.org
mtllib Object_10.mtl
o mesh_1_Long-1.001
v 0.018836 0.091200 0.013217
v 0.040836 0.091200 -0.004783
v 0.018836 0.091200 -0.004783
v 0.040836 0.091200 0.013217
v 0.018836 0.031200 0.013217
v 0.018836 0.091200 -0.004783
v 0.018836 0.031200 -0.004783
v 0.018836 0.091200 0.013217
v 0.040836 0.031200 0.013217
v 0.018836 0.031200 -0.004783
v 0.040836 0.031200 -0.004783
v 0.018836 0.031200 0.013217
v 0.040836 0.031200 -0.004783
v 0.040836 0.091200 0.013217
v 0.040836 0.031200 0.013217
v 0.040836 0.091200 -0.004783
v 0.018836 0.031200 0.013217
v 0.040836 0.091200 0.013217
v 0.018836 0.091200 0.013217
v 0.040836 0.031200 0.013217
v 0.040836 0.091200 -0.004783
v 0.018836 0.031200 -0.004783
v 0.018836 0.091200 -0.004783
v 0.040836 0.031200 -0.004783
v -0.031164 0.041200 -0.020890
v -0.031164 0.066200 -0.038890
v -0.031164 0.041200 -0.038890
v -0.031164 0.066200 -0.020890
v 0.018836 0.041200 -0.020890
v -0.031164 0.041200 -0.038890
v 0.018836 0.041200 -0.038890
v -0.031164 0.041200 -0.020890
v 0.018836 0.066200 -0.020890
v 0.018836 0.041200 -0.038890
v 0.018836 0.066200 -0.038890
v 0.018836 0.041200 -0.020890
v 0.018836 0.066200 -0.038890
v -0.031164 0.066200 -0.020890
v 0.018836 0.066200 -0.020890
v -0.031164 0.066200 -0.038890
v 0.018836 0.041200 -0.020890
v -0.031164 0.066200 -0.020890
v -0.031164 0.041200 -0.020890
v 0.018836 0.066200 -0.020890
v -0.031164 0.066200 -0.038890
v 0.018836 0.041200 -0.038890
v -0.031164 0.041200 -0.038890
v 0.018836 0.066200 -0.038890
v -0.031164 -0.080834 0.013110
v -0.031164 -0.058834 -0.004890
v -0.031164 -0.080834 -0.004890
v -0.031164 -0.058834 0.013110
v 0.028836 -0.080834 0.013110
v -0.031164 -0.080834 -0.004890
v 0.028836 -0.080834 -0.004890
v -0.031164 -0.080834 0.013110
v 0.028836 -0.058834 0.013110
v 0.028836 -0.080834 -0.004890
v 0.028836 -0.058834 -0.004890
v 0.028836 -0.080834 0.013110
v 0.028836 -0.058834 -0.004890
v -0.031164 -0.058834 0.013110
v 0.028836 -0.058834 0.013110
v -0.031164 -0.058834 -0.004890
v 0.028836 -0.080834 0.013110
v -0.031164 -0.058834 0.013110
v -0.031164 -0.080834 0.013110
v 0.028836 -0.058834 0.013110
v -0.031164 -0.058834 -0.004890
v 0.028836 -0.080834 -0.004890
v -0.031164 -0.080834 -0.004890
v 0.028836 -0.058834 -0.004890
v -0.013164 0.066200 0.029110
v -0.031164 0.066200 -0.020890
v -0.031164 0.066200 0.029110
v -0.013164 0.066200 -0.020890
v -0.031164 0.066200 0.029110
v -0.013164 0.003683 0.029110
v -0.013164 0.066200 0.029110
v -0.031164 0.003683 0.029110
v -0.013164 -0.058834 0.029110
v -0.031164 -0.058834 0.029110
v -0.013164 -0.058834 -0.020890
v -0.031164 -0.058834 0.029110
v -0.031164 -0.058834 -0.020890
v -0.013164 -0.058834 0.029110
v -0.031164 0.003683 -0.020890
v -0.013164 0.066200 -0.020890
v -0.013164 0.003683 -0.020890
v -0.031164 -0.058834 -0.020890
v -0.013164 -0.058834 -0.020890
v -0.031164 0.066200 -0.020890
v -0.013164 -0.058834 0.029110
v -0.013164 0.003683 -0.020890
v -0.013164 0.003683 0.029110
v -0.013164 0.066200 -0.020890
v -0.013164 0.066200 0.029110
v -0.013164 -0.058834 -0.020890
v -0.031164 -0.058834 0.029110
v -0.031164 0.003683 -0.020890
v -0.031164 -0.058834 -0.020890
v -0.031164 0.003683 0.029110
v -0.031164 0.066200 -0.020890
v -0.031164 0.066200 0.029110
v 0.003836 -0.080834 -0.004890
v 0.028836 -0.098834 -0.004890
v 0.003836 -0.098834 -0.004890
v 0.028836 -0.080834 -0.004890
v 0.003836 -0.080834 0.045110
v 0.003836 -0.098834 -0.004890
v 0.003836 -0.098834 0.045110
v 0.003836 -0.080834 -0.004890
v 0.028836 -0.080834 0.045110
v 0.003836 -0.098834 0.045110
v 0.028836 -0.098834 0.045110
v 0.003836 -0.080834 0.045110
v 0.028836 -0.098834 0.045110
v 0.028836 -0.080834 -0.004890
v 0.028836 -0.080834 0.045110
v 0.028836 -0.098834 -0.004890
v 0.003836 -0.080834 0.045110
v 0.028836 -0.080834 -0.004890
v 0.003836 -0.080834 -0.004890
v 0.028836 -0.080834 0.045110
v 0.028836 -0.098834 -0.004890
v 0.003836 -0.098834 0.045110
v 0.003836 -0.098834 -0.004890
v 0.028836 -0.098834 0.045110
v 0.028836 -0.040834 -0.042890
v 0.003836 -0.022834 -0.042890
v 0.028836 -0.022834 -0.042890
v 0.003836 -0.040834 -0.042890
v 0.028836 -0.040834 0.007110
v 0.028836 -0.022834 -0.042890
v 0.028836 -0.022834 0.007110
v 0.028836 -0.040834 -0.042890
v 0.003836 -0.040834 0.007110
v 0.028836 -0.022834 0.007110
v 0.003836 -0.022834 0.007110
v 0.028836 -0.040834 0.007110
v 0.003836 -0.022834 0.007110
v 0.003836 -0.040834 -0.042890
v 0.003836 -0.040834 0.007110
v 0.003836 -0.022834 -0.042890
v 0.028836 -0.040834 0.007110
v 0.003836 -0.040834 -0.042890
v 0.028836 -0.040834 -0.042890
v 0.003836 -0.040834 0.007110
v 0.003836 -0.022834 -0.042890
v 0.028836 -0.022834 0.007110
v 0.028836 -0.022834 -0.042890
v 0.003836 -0.022834 0.007110
v -0.031164 -0.040834 -0.020890
v -0.031164 -0.058834 -0.042890
v -0.031164 -0.058834 -0.020890
v -0.031164 -0.040834 -0.042890
v 0.028836 -0.040834 -0.020890
v -0.031164 -0.058834 -0.020890
v 0.028836 -0.058834 -0.020890
v -0.031164 -0.040834 -0.020890
v 0.028836 -0.040834 -0.042890
v 0.028836 -0.058834 -0.020890
v 0.028836 -0.058834 -0.042890
v 0.028836 -0.040834 -0.020890
v 0.028836 -0.058834 -0.042890
v -0.031164 -0.040834 -0.042890
v 0.028836 -0.040834 -0.042890
v -0.031164 -0.058834 -0.042890
v 0.028836 -0.040834 -0.020890
v -0.031164 -0.040834 -0.042890
v -0.031164 -0.040834 -0.020890
v 0.028836 -0.040834 -0.042890
v -0.031164 -0.058834 -0.042890
v 0.028836 -0.058834 -0.020890
v -0.031164 -0.058834 -0.020890
v 0.028836 -0.058834 -0.042890
v 0.003836 -0.004834 0.007110
v 0.003836 -0.022834 -0.014890
v 0.003836 -0.022834 0.007110
v 0.003836 -0.004834 -0.014890
v 0.063836 -0.004834 0.007110
v 0.003836 -0.022834 0.007110
v 0.063836 -0.022834 0.007110
v 0.003836 -0.004834 0.007110
v 0.063836 -0.004834 -0.014890
v 0.063836 -0.022834 0.007110
v 0.063836 -0.022834 -0.014890
v 0.063836 -0.004834 0.007110
v 0.063836 -0.022834 -0.014890
v 0.003836 -0.004834 -0.014890
v 0.063836 -0.004834 -0.014890
v 0.003836 -0.022834 -0.014890
v 0.063836 -0.004834 0.007110
v 0.003836 -0.004834 -0.014890
v 0.003836 -0.004834 0.007110
v 0.063836 -0.004834 -0.014890
v 0.003836 -0.022834 -0.014890
v 0.063836 -0.022834 0.007110
v 0.003836 -0.022834 0.007110
v 0.063836 -0.022834 -0.014890
v 0.018836 0.041200 0.029110
v 0.018836 0.066200 0.047110
v 0.018836 0.041200 0.047110
v 0.018836 0.066200 0.029110
v -0.031164 0.041200 0.029110
v 0.018836 0.041200 0.047110
v -0.031164 0.041200 0.047110
v 0.018836 0.041200 0.029110
v -0.031164 0.066200 0.029110
v -0.031164 0.041200 0.047110
v -0.031164 0.066200 0.047110
v -0.031164 0.041200 0.029110
v -0.031164 0.066200 0.047110
v 0.018836 0.066200 0.029110
v -0.031164 0.066200 0.029110
v 0.018836 0.066200 0.047110
v -0.031164 0.041200 0.029110
v 0.018836 0.066200 0.029110
v 0.018836 0.041200 0.029110
v -0.031164 0.066200 0.029110
v 0.018836 0.066200 0.047110
v -0.031164 0.041200 0.047110
v 0.018836 0.041200 0.047110
v -0.031164 0.066200 0.047110
v -0.031164 0.091200 -0.004783
v -0.031164 0.066200 0.013217
v -0.031164 0.091200 0.013217
v -0.031164 0.066200 -0.004783
v 0.018836 0.091200 -0.004783
v -0.031164 0.091200 0.013217
v 0.018836 0.091200 0.013217
v -0.031164 0.091200 -0.004783
v 0.018836 0.066200 -0.004783
v 0.018836 0.091200 0.013217
v 0.018836 0.066200 0.013217
v 0.018836 0.091200 -0.004783
v 0.018836 0.066200 0.013217
v -0.031164 0.066200 -0.004783
v 0.018836 0.066200 -0.004783
v -0.031164 0.066200 0.013217
v 0.018836 0.091200 -0.004783
v -0.031164 0.066200 -0.004783
v -0.031164 0.091200 -0.004783
v 0.018836 0.066200 -0.004783
v -0.031164 0.066200 0.013217
v 0.018836 0.091200 0.013217
v -0.031164 0.091200 0.013217
v 0.018836 0.066200 0.013217
vt 0.000000 0.000000
vt 0.022000 -0.018000
vt 0.000000 -0.018000
vt 0.022000 0.000000
vt -0.060000 0.000000
vt 0.000000 -0.018000
vt -0.060000 -0.018000
vt 0.000000 0.000000
vt -0.022000 0.000000
vt 0.000000 -0.018000
vt -0.022000 -0.018000
vt 0.000000 0.000000
vt 0.060000 -0.018000
vt 0.000000 0.000000
vt 0.060000 0.000000
vt 0.000000 -0.018000
vt 0.000000 0.060000
vt 0.022000 -0.000000
vt 0.000000 -0.000000
vt 0.022000 0.060000
vt 0.022000 -0.000000
vt 0.000000 0.060000
vt 0.000000 -0.000000
vt 0.022000 0.060000
vt 0.000000 0.000000
vt 0.025000 -0.018000
vt 0.000000 -0.018000
vt 0.025000 0.000000
vt -0.050000 0.000000
vt 0.000000 -0.018000
vt -0.050000 -0.018000
vt 0.000000 0.000000
vt -0.025000 0.000000
vt 0.000000 -0.018000
vt -0.025000 -0.018000
vt 0.000000 0.000000
vt 0.050000 -0.018000
vt 0.000000 0.000000
vt 0.050000 0.000000
vt 0.000000 -0.018000
vt 0.000000 0.050000
vt 0.025000 -0.000000
vt 0.000000 -0.000000
vt 0.025000 0.050000
vt 0.025000 -0.000000
vt 0.000000 0.050000
vt 0.000000 -0.000000
vt 0.025000 0.050000
vt 0.000000 0.000000
vt 0.022000 -0.018000
vt 0.000000 -0.018000
vt 0.022000 0.000000
vt -0.060000 0.000000
vt 0.000000 -0.018000
vt -0.060000 -0.018000
vt 0.000000 0.000000
vt -0.022000 0.000000
vt 0.000000 -0.018000
vt -0.022000 -0.018000
vt 0.000000 0.000000
vt 0.060000 -0.018000
vt 0.000000 0.000000
vt 0.060000 0.000000
vt 0.000000 -0.018000
vt 0.000000 0.060000
vt 0.022000 -0.000000
vt 0.000000 -0.000000
vt 0.022000 0.060000
vt 0.022000 -0.000000
vt 0.000000 0.060000
vt 0.000000 -0.000000
vt 0.022000 0.060000
vt 0.000000 0.000000
vt 0.050000 -0.018000
vt 0.000000 -0.018000
vt 0.050000 0.000000
vt 0.000000 -0.018000
vt -0.062500 0.000000
vt 0.000000 0.000000
vt -0.062500 -0.018000
vt -0.125000 0.000000
vt -0.125000 -0.018000
vt -0.050000 0.000000
vt 0.000000 -0.018000
vt -0.050000 -0.018000
vt 0.000000 0.000000
vt 0.062500 -0.018000
vt 0.000000 0.000000
vt 0.062500 0.000000
vt 0.125000 -0.018000
vt 0.125000 0.000000
vt 0.000000 -0.018000
vt 0.000000 0.125000
vt 0.050000 0.062500
vt 0.000000 0.062500
vt 0.050000 0.000000
vt 0.000000 0.000000
vt 0.050000 0.125000
vt 0.000000 0.125000
vt 0.050000 0.062500
vt 0.050000 0.125000
vt 0.000000 0.062500
vt 0.050000 0.000000
vt 0.000000 0.000000
vt 0.000000 0.000000
vt 0.025000 -0.018000
vt 0.000000 -0.018000
vt 0.025000 0.000000
vt -0.050000 0.000000
vt 0.000000 -0.018000
vt -0.050000 -0.018000
vt 0.000000 0.000000
vt -0.025000 0.000000
vt 0.000000 -0.018000
vt -0.025000 -0.018000
vt 0.000000 0.000000
vt 0.050000 -0.018000
vt 0.000000 0.000000
vt 0.050000 0.000000
vt 0.000000 -0.018000
vt 0.000000 0.050000
vt 0.025000 -0.000000
vt 0.000000 -0.000000
vt 0.025000 0.050000
vt 0.025000 -0.000000
vt 0.000000 0.050000
vt 0.000000 -0.000000
vt 0.025000 0.050000
vt 0.000000 0.000000
vt 0.025000 -0.018000
vt 0.000000 -0.018000
vt 0.025000 0.000000
vt -0.050000 0.000000
vt 0.000000 -0.018000
vt -0.050000 -0.018000
vt 0.000000 0.000000
vt -0.025000 0.000000
vt 0.000000 -0.018000
vt -0.025000 -0.018000
vt 0.000000 0.000000
vt 0.050000 -0.018000
vt 0.000000 0.000000
vt 0.050000 0.000000
vt 0.000000 -0.018000
vt 0.000000 0.050000
vt 0.025000 -0.000000
vt 0.000000 -0.000000
vt 0.025000 0.050000
vt 0.025000 -0.000000
vt 0.000000 0.050000
vt 0.000000 -0.000000
vt 0.025000 0.050000
vt 0.000000 0.000000
vt 0.022000 -0.018000
vt 0.000000 -0.018000
vt 0.022000 0.000000
vt -0.060000 0.000000
vt 0.000000 -0.018000
vt -0.060000 -0.018000
vt 0.000000 0.000000
vt -0.022000 0.000000
vt 0.000000 -0.018000
vt -0.022000 -0.018000
vt 0.000000 0.000000
vt 0.060000 -0.018000
vt 0.000000 0.000000
vt 0.060000 0.000000
vt 0.000000 -0.018000
vt 0.000000 0.060000
vt 0.022000 -0.000000
vt 0.000000 -0.000000
vt 0.022000 0.060000
vt 0.022000 -0.000000
vt 0.000000 0.060000
vt 0.000000 -0.000000
vt 0.022000 0.060000
vt 0.000000 0.000000
vt 0.022000 -0.018000
vt 0.000000 -0.018000
vt 0.022000 0.000000
vt -0.060000 0.000000
vt 0.000000 -0.018000
vt -0.060000 -0.018000
vt 0.000000 0.000000
vt -0.022000 0.000000
vt 0.000000 -0.018000
vt -0.022000 -0.018000
vt 0.000000 0.000000
vt 0.060000 -0.018000
vt 0.000000 0.000000
vt 0.060000 0.000000
vt 0.000000 -0.018000
vt 0.000000 0.060000
vt 0.022000 -0.000000
vt 0.000000 -0.000000
vt 0.022000 0.060000
vt 0.022000 -0.000000
vt 0.000000 0.060000
vt 0.000000 -0.000000
vt 0.022000 0.060000
vt 0.000000 0.000000
vt 0.025000 -0.018000
vt 0.000000 -0.018000
vt 0.025000 0.000000
vt -0.050000 0.000000
vt 0.000000 -0.018000
vt -0.050000 -0.018000
vt 0.000000 0.000000
vt -0.025000 0.000000
vt 0.000000 -0.018000
vt -0.025000 -0.018000
vt 0.000000 0.000000
vt 0.050000 -0.018000
vt 0.000000 0.000000
vt 0.050000 0.000000
vt 0.000000 -0.018000
vt 0.000000 0.050000
vt 0.025000 -0.000000
vt 0.000000 -0.000000
vt 0.025000 0.050000
vt 0.025000 -0.000000
vt 0.000000 0.050000
vt 0.000000 -0.000000
vt 0.025000 0.050000
vt 0.000000 0.000000
vt 0.025000 -0.018000
vt 0.000000 -0.018000
vt 0.025000 0.000000
vt -0.050000 0.000000
vt 0.000000 -0.018000
vt -0.050000 -0.018000
vt 0.000000 0.000000
vt -0.025000 0.000000
vt 0.000000 -0.018000
vt -0.025000 -0.018000
vt 0.000000 0.000000
vt 0.050000 -0.018000
vt 0.000000 0.000000
vt 0.050000 0.000000
vt 0.000000 -0.018000
vt 0.000000 0.050000
vt 0.025000 -0.000000
vt 0.000000 -0.000000
vt 0.025000 0.050000
vt 0.025000 -0.000000
vt 0.000000 0.050000
vt 0.000000 -0.000000
vt 0.025000 0.050000
vn 0.0000 1.0000 0.0000
vn -1.0000 -0.0000 0.0000
vn 0.0000 -1.0000 0.0000
vn 1.0000 0.0000 0.0000
vn 0.0000 -0.0000 1.0000
vn 0.0000 0.0000 -1.0000
usemtl 1.026
s 1
f 1/1/1 2/2/1 3/3/1
f 2/2/1 1/1/1 4/4/1
f 5/5/2 6/6/2 7/7/2
f 6/6/2 5/5/2 8/8/2
f 9/9/3 10/10/3 11/11/3
f 10/10/3 9/9/3 12/12/3
f 13/13/4 14/14/4 15/15/4
f 14/14/4 13/13/4 16/16/4
f 17/17/5 18/18/5 19/19/5
f 18/18/5 17/17/5 20/20/5
f 21/21/6 22/22/6 23/23/6
f 22/22/6 21/21/6 24/24/6
f 25/25/2 26/26/2 27/27/2
f 26/26/2 25/25/2 28/28/2
f 29/29/3 30/30/3 31/31/3
f 30/30/3 29/29/3 32/32/3
f 33/33/4 34/34/4 35/35/4
f 34/34/4 33/33/4 36/36/4
f 37/37/1 38/38/1 39/39/1
f 38/38/1 37/37/1 40/40/1
f 41/41/5 42/42/5 43/43/5
f 42/42/5 41/41/5 44/44/5
f 45/45/6 46/46/6 47/47/6
f 46/46/6 45/45/6 48/48/6
f 49/49/2 50/50/2 51/51/2
f 50/50/2 49/49/2 52/52/2
f 53/53/3 54/54/3 55/55/3
f 54/54/3 53/53/3 56/56/3
f 57/57/4 58/58/4 59/59/4
f 58/58/4 57/57/4 60/60/4
f 61/61/1 62/62/1 63/63/1
f 62/62/1 61/61/1 64/64/1
f 65/65/5 66/66/5 67/67/5
f 66/66/5 65/65/5 68/68/5
f 69/69/6 70/70/6 71/71/6
f 70/70/6 69/69/6 72/72/6
f 73/73/1 74/74/1 75/75/1
f 74/74/1 73/73/1 76/76/1
f 77/77/5 78/78/5 79/79/5
f 78/78/5 77/77/5 80/80/5
f 81/81/5 80/80/5 82/82/5
f 80/80/5 81/81/5 78/78/5
f 83/83/3 84/84/3 85/85/3
f 84/84/3 83/83/3 86/86/3
f 87/87/6 88/88/6 89/89/6
f 90/90/6 89/89/6 91/91/6
f 89/89/6 90/90/6 87/87/6
f 88/88/6 87/87/6 92/92/6
f 93/93/4 94/94/4 95/95/4
f 95/95/4 96/96/4 97/97/4
f 96/96/4 95/95/4 94/94/4
f 94/94/4 93/93/4 98/98/4
f 99/99/2 100/100/2 101/101/2
f 100/100/2 99/99/2 102/102/2
f 103/103/2 102/102/2 104/104/2
f 102/102/2 103/103/2 100/100/2
f 105/105/6 106/106/6 107/107/6
f 106/106/6 105/105/6 108/108/6
f 109/109/2 110/110/2 111/111/2
f 110/110/2 109/109/2 112/112/2
f 113/113/5 114/114/5 115/115/5
f 114/114/5 113/113/5 116/116/5
f 117/117/4 118/118/4 119/119/4
f 118/118/4 117/117/4 120/120/4
f 121/121/1 122/122/1 123/123/1
f 122/122/1 121/121/1 124/124/1
f 125/125/3 126/126/3 127/127/3
f 126/126/3 125/125/3 128/128/3
f 129/129/6 130/130/6 131/131/6
f 130/130/6 129/129/6 132/132/6
f 133/133/4 134/134/4 135/135/4
f 134/134/4 133/133/4 136/136/4
f 137/137/5 138/138/5 139/139/5
f 138/138/5 137/137/5 140/140/5
f 141/141/2 142/142/2 143/143/2
f 142/142/2 141/141/2 144/144/2
f 145/145/3 146/146/3 147/147/3
f 146/146/3 145/145/3 148/148/3
f 149/149/1 150/150/1 151/151/1
f 150/150/1 149/149/1 152/152/1
f 153/153/2 154/154/2 155/155/2
f 154/154/2 153/153/2 156/156/2
f 157/157/5 158/158/5 159/159/5
f 158/158/5 157/157/5 160/160/5
f 161/161/4 162/162/4 163/163/4
f 162/162/4 161/161/4 164/164/4
f 165/165/6 166/166/6 167/167/6
f 166/166/6 165/165/6 168/168/6
f 169/169/1 170/170/1 171/171/1
f 170/170/1 169/169/1 172/172/1
f 173/173/3 174/174/3 175/175/3
f 174/174/3 173/173/3 176/176/3
f 177/177/2 178/178/2 179/179/2
f 178/178/2 177/177/2 180/180/2
f 181/181/5 182/182/5 183/183/5
f 182/182/5 181/181/5 184/184/5
f 185/185/4 186/186/4 187/187/4
f 186/186/4 185/185/4 188/188/4
f 189/189/6 190/190/6 191/191/6
f 190/190/6 189/189/6 192/192/6
f 193/193/1 194/194/1 195/195/1
f 194/194/1 193/193/1 196/196/1
f 197/197/3 198/198/3 199/199/3
f 198/198/3 197/197/3 200/200/3
f 201/201/4 202/202/4 203/203/4
f 202/202/4 201/201/4 204/204/4
f 205/205/3 206/206/3 207/207/3
f 206/206/3 205/205/3 208/208/3
f 209/209/2 210/210/2 211/211/2
f 210/210/2 209/209/2 212/212/2
f 213/213/1 214/214/1 215/215/1
f 214/214/1 213/213/1 216/216/1
f 217/217/6 218/218/6 219/219/6
f 218/218/6 217/217/6 220/220/6
f 221/221/5 222/222/5 223/223/5
f 222/222/5 221/221/5 224/224/5
f 225/225/2 226/226/2 227/227/2
f 226/226/2 225/225/2 228/228/2
f 229/229/1 230/230/1 231/231/1
f 230/230/1 229/229/1 232/232/1
f 233/233/4 234/234/4 235/235/4
f 234/234/4 233/233/4 236/236/4
f 237/237/3 238/238/3 239/239/3
f 238/238/3 237/237/3 240/240/3
f 241/241/6 242/242/6 243/243/6
f 242/242/6 241/241/6 244/244/6
f 245/245/5 246/246/5 247/247/5
f 246/246/5 245/245/5 248/248/5
