# Blender v2.78 (sub 0) OBJ File: ''
# www.blender.org
mtllib Distractor_4.mtl
o mesh_1_Thick-2
v -0.011075 -0.017157 -0.025000
v -0.036075 -0.017157 -0.043000
v -0.011075 -0.017157 -0.043000
v -0.036075 -0.017157 -0.025000
v -0.011075 0.032843 -0.025000
v -0.011075 -0.017157 -0.043000
v -0.011075 0.032843 -0.043000
v -0.011075 -0.017157 -0.025000
v -0.036075 0.032843 -0.025000
v -0.011075 0.032843 -0.043000
v -0.036075 0.032843 -0.043000
v -0.011075 0.032843 -0.025000
v -0.036075 0.032843 -0.043000
v -0.036075 -0.017157 -0.025000
v -0.036075 0.032843 -0.025000
v -0.036075 -0.017157 -0.043000
v -0.011075 0.032843 -0.025000
v -0.036075 -0.017157 -0.025000
v -0.011075 -0.017157 -0.025000
v -0.036075 0.032843 -0.025000
v -0.036075 -0.017157 -0.043000
v -0.011075 0.032843 -0.043000
v -0.011075 -0.017157 -0.043000
v -0.036075 0.032843 -0.043000
v -0.054075 -0.017157 0.011000
v -0.036075 -0.017157 -0.011000
v -0.036075 -0.017157 0.011000
v -0.054075 -0.017157 -0.011000
v -0.054075 0.042843 0.011000
v -0.036075 -0.017157 0.011000
v -0.036075 0.042843 0.011000
v -0.054075 -0.017157 0.011000
v -0.054075 0.042843 -0.011000
v -0.036075 0.042843 0.011000
v -0.036075 0.042843 -0.011000
v -0.054075 0.042843 0.011000
v -0.036075 0.042843 -0.011000
v -0.054075 -0.017157 -0.011000
v -0.054075 0.042843 -0.011000
v -0.036075 -0.017157 -0.011000
v -0.054075 0.042843 0.011000
v -0.054075 -0.017157 -0.011000
v -0.054075 -0.017157 0.011000
v -0.054075 0.042843 -0.011000
v -0.036075 -0.017157 -0.011000
v -0.036075 0.042843 0.011000
v -0.036075 -0.017157 0.011000
v -0.036075 0.042843 -0.011000
v -0.036075 0.000843 0.025000
v -0.036075 -0.017157 -0.025000
v -0.036075 -0.017157 0.025000
v -0.036075 0.000843 -0.025000
v -0.036075 -0.017157 0.025000
v 0.026442 0.000843 0.025000
v -0.036075 0.000843 0.025000
v 0.026442 -0.017157 0.025000
v 0.088959 0.000843 0.025000
v 0.088959 -0.017157 0.025000
v 0.088959 0.000843 -0.025000
v 0.088959 -0.017157 0.025000
v 0.088959 -0.017157 -0.025000
v 0.088959 0.000843 0.025000
v 0.026442 -0.017157 -0.025000
v -0.036075 0.000843 -0.025000
v 0.026442 0.000843 -0.025000
v 0.088959 -0.017157 -0.025000
v 0.088959 0.000843 -0.025000
v -0.036075 -0.017157 -0.025000
v 0.088959 0.000843 0.025000
v 0.026442 0.000843 -0.025000
v 0.026442 0.000843 0.025000
v -0.036075 0.000843 -0.025000
v -0.036075 0.000843 0.025000
v 0.088959 0.000843 -0.025000
v 0.088959 -0.017157 0.025000
v 0.026442 -0.017157 -0.025000
v 0.088959 -0.017157 -0.025000
v 0.026442 -0.017157 0.025000
v -0.036075 -0.017157 -0.025000
v -0.036075 -0.017157 0.025000
v -0.011075 0.032843 0.025000
v -0.036075 0.032843 0.043000
v -0.011075 0.032843 0.043000
v -0.036075 0.032843 0.025000
v -0.011075 -0.017157 0.025000
v -0.011075 0.032843 0.043000
v -0.011075 -0.017157 0.043000
v -0.011075 0.032843 0.025000
v -0.036075 -0.017157 0.025000
v -0.011075 -0.017157 0.043000
v -0.036075 -0.017157 0.043000
v -0.011075 -0.017157 0.025000
v -0.036075 -0.017157 0.043000
v -0.036075 0.032843 0.025000
v -0.036075 -0.017157 0.025000
v -0.036075 0.032843 0.043000
v -0.011075 -0.017157 0.025000
v -0.036075 0.032843 0.025000
v -0.011075 0.032843 0.025000
v -0.036075 -0.017157 0.025000
v -0.036075 0.032843 0.043000
v -0.011075 -0.017157 0.043000
v -0.011075 0.032843 0.043000
v -0.036075 -0.017157 0.043000
vt 0.0000 0.0000
vt 0.0250 -0.0180
vt 0.0000 -0.0180
vt 0.0250 0.0000
vt -0.0500 0.0000
vt 0.0000 -0.0180
vt -0.0500 -0.0180
vt 0.0000 0.0000
vt -0.0250 0.0000
vt 0.0000 -0.0180
vt -0.0250 -0.0180
vt 0.0000 0.0000
vt 0.0500 -0.0180
vt 0.0000 0.0000
vt 0.0500 0.0000
vt 0.0000 -0.0180
vt 0.0000 0.0500
vt 0.0250 -0.0000
vt 0.0000 -0.0000
vt 0.0250 0.0500
vt 0.0250 -0.0000
vt 0.0000 0.0500
vt 0.0000 -0.0000
vt 0.0250 0.0500
vt 0.0000 0.0000
vt 0.0220 -0.0180
vt 0.0000 -0.0180
vt 0.0220 0.0000
vt -0.0600 0.0000
vt 0.0000 -0.0180
vt -0.0600 -0.0180
vt 0.0000 0.0000
vt -0.0220 0.0000
vt 0.0000 -0.0180
vt -0.0220 -0.0180
vt 0.0000 0.0000
vt 0.0600 -0.0180
vt 0.0000 0.0000
vt 0.0600 0.0000
vt 0.0000 -0.0180
vt 0.0000 0.0600
vt 0.0220 -0.0000
vt 0.0000 -0.0000
vt 0.0220 0.0600
vt 0.0220 -0.0000
vt 0.0000 0.0600
vt 0.0000 -0.0000
vt 0.0220 0.0600
vt 0.0000 0.0000
vt 0.0500 -0.0180
vt 0.0000 -0.0180
vt 0.0500 0.0000
vt 0.0000 -0.0180
vt -0.0625 0.0000
vt 0.0000 0.0000
vt -0.0625 -0.0180
vt -0.1250 0.0000
vt -0.1250 -0.0180
vt -0.0500 0.0000
vt 0.0000 -0.0180
vt -0.0500 -0.0180
vt 0.0000 0.0000
vt 0.0625 -0.0180
vt 0.0000 0.0000
vt 0.0625 0.0000
vt 0.1250 -0.0180
vt 0.1250 0.0000
vt 0.0000 -0.0180
vt 0.0000 0.1250
vt 0.0500 0.0625
vt 0.0000 0.0625
vt 0.0500 0.0000
vt 0.0000 0.0000
vt 0.0500 0.1250
vt 0.0000 0.1250
vt 0.0500 0.0625
vt 0.0500 0.1250
vt 0.0000 0.0625
vt 0.0500 0.0000
vt 0.0000 0.0000
vt 0.0000 0.0000
vt 0.0250 -0.0180
vt 0.0000 -0.0180
vt 0.0250 0.0000
vt -0.0500 0.0000
vt 0.0000 -0.0180
vt -0.0500 -0.0180
vt 0.0000 0.0000
vt -0.0250 0.0000
vt 0.0000 -0.0180
vt -0.0250 -0.0180
vt 0.0000 0.0000
vt 0.0500 -0.0180
vt 0.0000 0.0000
vt 0.0500 0.0000
vt 0.0000 -0.0180
vt 0.0000 0.0500
vt 0.0250 -0.0000
vt 0.0000 -0.0000
vt 0.0250 0.0500
vt 0.0250 -0.0000
vt 0.0000 0.0500
vt 0.0000 -0.0000
vt 0.0250 0.0500
vn 0.0000 -1.0000 -0.0000
vn 1.0000 -0.0000 0.0000
vn 0.0000 1.0000 0.0000
vn -1.0000 0.0000 0.0000
vn 0.0000 -0.0000 1.0000
vn 0.0000 0.0000 -1.0000
usemtl 1.004
s 1
f 1/1/1 2/2/1 3/3/1
f 2/2/1 1/1/1 4/4/1
f 5/5/2 6/6/2 7/7/2
f 6/6/2 5/5/2 8/8/2
f 9/9/3 10/10/3 11/11/3
f 10/10/3 9/9/3 12/12/3
f 13/13/4 14/14/4 15/15/4
f 14/14/4 13/13/4 16/16/4
f 17/17/5 18/18/5 19/19/5
f 18/18/5 17/17/5 20/20/5
f 21/21/6 22/22/6 23/23/6
f 22/22/6 21/21/6 24/24/6
f 25/25/1 26/26/1 27/27/1
f 26/26/1 25/25/1 28/28/1
f 29/29/5 30/30/5 31/31/5
f 30/30/5 29/29/5 32/32/5
f 33/33/3 34/34/3 35/35/3
f 34/34/3 33/33/3 36/36/3
f 37/37/6 38/38/6 39/39/6
f 38/38/6 37/37/6 40/40/6
f 41/41/4 42/42/4 43/43/4
f 42/42/4 41/41/4 44/44/4
f 45/45/2 46/46/2 47/47/2
f 46/46/2 45/45/2 48/48/2
f 49/49/4 50/50/4 51/51/4
f 50/50/4 49/49/4 52/52/4
f 53/53/5 54/54/5 55/55/5
f 54/54/5 53/53/5 56/56/5
f 57/57/5 56/56/5 58/58/5
f 56/56/5 57/57/5 54/54/5
f 59/59/2 60/60/2 61/61/2
f 60/60/2 59/59/2 62/62/2
f 63/63/6 64/64/6 65/65/6
f 66/66/6 65/65/6 67/67/6
f 65/65/6 66/66/6 63/63/6
f 64/64/6 63/63/6 68/68/6
f 69/69/3 70/70/3 71/71/3
f 71/71/3 72/72/3 73/73/3
f 72/72/3 71/71/3 70/70/3
f 70/70/3 69/69/3 74/74/3
f 75/75/1 76/76/1 77/77/1
f 76/76/1 75/75/1 78/78/1
f 79/79/1 78/78/1 80/80/1
f 78/78/1 79/79/1 76/76/1
f 81/81/3 82/82/3 83/83/3
f 82/82/3 81/81/3 84/84/3
f 85/85/2 86/86/2 87/87/2
f 86/86/2 85/85/2 88/88/2
f 89/89/1 90/90/1 91/91/1
f 90/90/1 89/89/1 92/92/1
f 93/93/4 94/94/4 95/95/4
f 94/94/4 93/93/4 96/96/4
f 97/97/6 98/98/6 99/99/6
f 98/98/6 97/97/6 100/100/6
f 101/101/5 102/102/5 103/103/5
f 102/102/5 101/101/5 104/104/5
