# Blender v2.78 (sub 0) OBJ File: ''
# www.blender.org
mtllib Object_2.mtl
o mesh_1_Base-1.004
v -0.046266 0.005534 0.024977
v -0.046266 -0.012466 -0.025023
v -0.046266 -0.012466 0.024977
v -0.046266 0.005534 -0.025023
v -0.046266 -0.012466 0.024977
v 0.016251 0.005534 0.024977
v -0.046266 0.005534 0.024977
v 0.016251 -0.012466 0.024977
v 0.078767 0.005534 0.024977
v 0.078767 -0.012466 0.024977
v 0.078767 0.005534 -0.025023
v 0.078767 -0.012466 0.024977
v 0.078767 -0.012466 -0.025023
v 0.078767 0.005534 0.024977
v 0.016251 -0.012466 -0.025023
v -0.046266 0.005534 -0.025023
v 0.016251 0.005534 -0.025023
v 0.078767 -0.012466 -0.025023
v 0.078767 0.005534 -0.025023
v -0.046266 -0.012466 -0.025023
v 0.078767 0.005534 0.024977
v 0.016251 0.005534 -0.025023
v 0.016251 0.005534 0.024977
v -0.046266 0.005534 -0.025023
v -0.046266 0.005534 0.024977
v 0.078767 0.005534 -0.025023
v 0.078767 -0.012466 0.024977
v 0.016251 -0.012466 -0.025023
v 0.078767 -0.012466 -0.025023
v 0.016251 -0.012466 0.024977
v -0.046266 -0.012466 -0.025023
v -0.046266 -0.012466 0.024977
v -0.071266 -0.012466 -0.008916
v -0.046266 -0.012466 0.009084
v -0.071266 -0.012466 0.009084
v -0.046266 -0.012466 -0.008916
v -0.071266 0.037534 -0.008916
v -0.071266 -0.012466 0.009084
v -0.071266 0.037534 0.009084
v -0.071266 -0.012466 -0.008916
v -0.046266 0.037534 -0.008916
v -0.071266 0.037534 0.009084
v -0.046266 0.037534 0.009084
v -0.071266 0.037534 -0.008916
v -0.046266 0.037534 0.009084
v -0.046266 -0.012466 -0.008916
v -0.046266 0.037534 -0.008916
v -0.046266 -0.012466 0.009084
v -0.071266 0.037534 -0.008916
v -0.046266 -0.012466 -0.008916
v -0.071266 -0.012466 -0.008916
v -0.046266 0.037534 -0.008916
v -0.046266 -0.012466 0.009084
v -0.071266 0.037534 0.009084
v -0.071266 -0.012466 0.009084
v -0.046266 0.037534 0.009084
vt 0.0000 0.0000
vt 0.0500 -0.0180
vt 0.0000 -0.0180
vt 0.0500 0.0000
vt 0.0000 -0.0180
vt -0.0625 0.0000
vt 0.0000 0.0000
vt -0.0625 -0.0180
vt -0.1250 0.0000
vt -0.1250 -0.0180
vt -0.0500 0.0000
vt 0.0000 -0.0180
vt -0.0500 -0.0180
vt 0.0000 0.0000
vt 0.0625 -0.0180
vt 0.0000 0.0000
vt 0.0625 0.0000
vt 0.1250 -0.0180
vt 0.1250 0.0000
vt 0.0000 -0.0180
vt 0.0000 0.1250
vt 0.0500 0.0625
vt 0.0000 0.0625
vt 0.0500 0.0000
vt 0.0000 0.0000
vt 0.0500 0.1250
vt 0.0000 0.1250
vt 0.0500 0.0625
vt 0.0500 0.1250
vt 0.0000 0.0625
vt 0.0500 0.0000
vt 0.0000 0.0000
vt 0.0000 0.0000
vt 0.0250 -0.0180
vt 0.0000 -0.0180
vt 0.0250 0.0000
vt -0.0500 0.0000
vt 0.0000 -0.0180
vt -0.0500 -0.0180
vt 0.0000 0.0000
vt -0.0250 0.0000
vt 0.0000 -0.0180
vt -0.0250 -0.0180
vt 0.0000 0.0000
vt 0.0500 -0.0180
vt 0.0000 0.0000
vt 0.0500 0.0000
vt 0.0000 -0.0180
vt 0.0000 0.0500
vt 0.0250 -0.0000
vt 0.0000 -0.0000
vt 0.0250 0.0500
vt 0.0250 -0.0000
vt 0.0000 0.0500
vt 0.0000 -0.0000
vt 0.0250 0.0500
vn -1.0000 0.0000 0.0000
vn 0.0000 0.0000 1.0000
vn 1.0000 0.0000 0.0000
vn 0.0000 0.0000 -1.0000
vn 0.0000 1.0000 0.0000
vn 0.0000 -1.0000 -0.0000
usemtl 1.018
s 1
f 1/1/1 2/2/1 3/3/1
f 2/2/1 1/1/1 4/4/1
f 5/5/2 6/6/2 7/7/2
f 6/6/2 5/5/2 8/8/2
f 9/9/2 8/8/2 10/10/2
f 8/8/2 9/9/2 6/6/2
f 11/11/3 12/12/3 13/13/3
f 12/12/3 11/11/3 14/14/3
f 15/15/4 16/16/4 17/17/4
f 18/18/4 17/17/4 19/19/4
f 17/17/4 18/18/4 15/15/4
f 16/16/4 15/15/4 20/20/4
f 21/21/5 22/22/5 23/23/5
f 23/23/5 24/24/5 25/25/5
f 24/24/5 23/23/5 22/22/5
f 22/22/5 21/21/5 26/26/5
f 27/27/6 28/28/6 29/29/6
f 28/28/6 27/27/6 30/30/6
f 31/31/6 30/30/6 32/32/6
f 30/30/6 31/31/6 28/28/6
f 33/33/6 34/34/6 35/35/6
f 34/34/6 33/33/6 36/36/6
f 37/37/1 38/38/1 39/39/1
f 38/38/1 37/37/1 40/40/1
f 41/41/5 42/42/5 43/43/5
f 42/42/5 41/41/5 44/44/5
f 45/45/3 46/46/3 47/47/3
f 46/46/3 45/45/3 48/48/3
f 49/49/4 50/50/4 51/51/4
f 50/50/4 49/49/4 52/52/4
f 53/53/2 54/54/2 55/55/2
f 54/54/2 53/53/2 56/56/2
