# Blender v2.78 (sub 0) OBJ File: ''
# www.blender.org
mtllib Distractor_7.mtl
o mesh_1_Thick-5
v 0.040878 0.037565 -0.040682
v 0.022878 0.012565 -0.040736
v 0.022878 0.037565 -0.040682
v 0.040878 0.012565 -0.040736
v 0.040878 0.037456 0.009318
v 0.022878 0.037565 -0.040682
v 0.022878 0.037456 0.009318
v 0.040878 0.037565 -0.040682
v 0.040878 0.012456 0.009264
v 0.022878 0.037456 0.009318
v 0.022878 0.012456 0.009264
v 0.040878 0.037456 0.009318
v 0.022878 0.012456 0.009264
v 0.040878 0.012565 -0.040736
v 0.040878 0.012456 0.009264
v 0.022878 0.012565 -0.040736
v 0.040878 0.037456 0.009318
v 0.040878 0.012565 -0.040736
v 0.040878 0.037565 -0.040682
v 0.040878 0.012456 0.009264
v 0.022878 0.012565 -0.040736
v 0.022878 0.037456 0.009318
v 0.022878 0.037565 -0.040682
v 0.022878 0.012456 0.009264
v -0.036155 0.027517 0.031187
v -0.061155 0.027517 0.049187
v -0.036155 0.027517 0.049187
v -0.061155 0.027517 0.031187
v -0.036155 -0.022483 0.031187
v -0.036155 0.027517 0.049187
v -0.036155 -0.022483 0.049187
v -0.036155 0.027517 0.031187
v -0.061155 -0.022483 0.031187
v -0.036155 -0.022483 0.049187
v -0.061155 -0.022483 0.049187
v -0.036155 -0.022483 0.031187
v -0.061155 -0.022483 0.049187
v -0.061155 0.027517 0.031187
v -0.061155 -0.022483 0.031187
v -0.061155 0.027517 0.049187
v -0.036155 -0.022483 0.031187
v -0.061155 0.027517 0.031187
v -0.036155 0.027517 0.031187
v -0.061155 -0.022483 0.031187
v -0.061155 0.027517 0.049187
v -0.036155 -0.022483 0.049187
v -0.036155 0.027517 0.049187
v -0.061155 -0.022483 0.049187
v 0.085878 -0.022483 0.015187
v 0.063878 -0.022483 -0.002813
v 0.085878 -0.022483 -0.002813
v 0.063878 -0.022483 0.015187
v 0.085878 0.037517 0.015187
v 0.085878 -0.022483 -0.002813
v 0.085878 0.037517 -0.002813
v 0.085878 -0.022483 0.015187
v 0.063878 0.037517 0.015187
v 0.085878 0.037517 -0.002813
v 0.063878 0.037517 -0.002813
v 0.085878 0.037517 0.015187
v 0.063878 0.037517 -0.002813
v 0.063878 -0.022483 0.015187
v 0.063878 0.037517 0.015187
v 0.063878 -0.022483 -0.002813
v 0.085878 0.037517 0.015187
v 0.063878 -0.022483 0.015187
v 0.085878 -0.022483 0.015187
v 0.063878 0.037517 0.015187
v 0.063878 -0.022483 -0.002813
v 0.085878 0.037517 -0.002813
v 0.085878 -0.022483 -0.002813
v 0.063878 0.037517 -0.002813
v 0.040878 -0.022483 -0.018813
v 0.058878 -0.022435 -0.040813
v 0.058878 -0.022483 -0.018813
v 0.040878 -0.022435 -0.040813
v 0.040878 0.037517 -0.018682
v 0.058878 -0.022483 -0.018813
v 0.058878 0.037517 -0.018682
v 0.040878 -0.022483 -0.018813
v 0.040878 0.037565 -0.040682
v 0.058878 0.037517 -0.018682
v 0.058878 0.037565 -0.040682
v 0.040878 0.037517 -0.018682
v 0.058878 0.037565 -0.040682
v 0.040878 -0.022435 -0.040813
v 0.040878 0.037565 -0.040682
v 0.058878 -0.022435 -0.040813
v 0.040878 0.037517 -0.018682
v 0.040878 -0.022435 -0.040813
v 0.040878 -0.022483 -0.018813
v 0.040878 0.037565 -0.040682
v 0.058878 -0.022435 -0.040813
v 0.058878 0.037517 -0.018682
v 0.058878 -0.022483 -0.018813
v 0.058878 0.037565 -0.040682
v -0.036155 -0.022483 -0.018813
v -0.061155 -0.022483 -0.036813
v -0.036155 -0.022483 -0.036813
v -0.061155 -0.022483 -0.018813
v -0.036155 0.027517 -0.018813
v -0.036155 -0.022483 -0.036813
v -0.036155 0.027517 -0.036813
v -0.036155 -0.022483 -0.018813
v -0.061155 0.027517 -0.018813
v -0.036155 0.027517 -0.036813
v -0.061155 0.027517 -0.036813
v -0.036155 0.027517 -0.018813
v -0.061155 0.027517 -0.036813
v -0.061155 -0.022483 -0.018813
v -0.061155 0.027517 -0.018813
v -0.061155 -0.022483 -0.036813
v -0.036155 0.027517 -0.018813
v -0.061155 -0.022483 -0.018813
v -0.036155 -0.022483 -0.018813
v -0.061155 0.027517 -0.018813
v -0.061155 -0.022483 -0.036813
v -0.036155 0.027517 -0.036813
v -0.036155 -0.022483 -0.036813
v -0.061155 0.027517 -0.036813
v -0.086155 -0.022483 -0.002705
v -0.061155 -0.022483 0.015295
v -0.086155 -0.022483 0.015295
v -0.061155 -0.022483 -0.002705
v -0.086155 0.027517 -0.002705
v -0.086155 -0.022483 0.015295
v -0.086155 0.027517 0.015295
v -0.086155 -0.022483 -0.002705
v -0.061155 0.027517 -0.002705
v -0.086155 0.027517 0.015295
v -0.061155 0.027517 0.015295
v -0.086155 0.027517 -0.002705
v -0.061155 0.027517 0.015295
v -0.061155 -0.022483 -0.002705
v -0.061155 0.027517 -0.002705
v -0.061155 -0.022483 0.015295
v -0.086155 0.027517 -0.002705
v -0.061155 -0.022483 -0.002705
v -0.086155 -0.022483 -0.002705
v -0.061155 0.027517 -0.002705
v -0.061155 -0.022483 0.015295
v -0.086155 0.027517 0.015295
v -0.086155 -0.022483 0.015295
v -0.061155 0.027517 0.015295
v -0.061155 -0.004483 0.031187
v -0.061155 -0.022483 -0.018813
v -0.061155 -0.022483 0.031187
v -0.061155 -0.004483 -0.018813
v -0.061155 -0.022483 0.031187
v 0.001362 -0.004483 0.031187
v -0.061155 -0.004483 0.031187
v 0.001362 -0.022483 0.031187
v 0.063878 -0.004483 0.031187
v 0.063878 -0.022483 0.031187
v 0.063878 -0.004483 -0.018813
v 0.063878 -0.022483 0.031187
v 0.063878 -0.022483 -0.018813
v 0.063878 -0.004483 0.031187
v 0.001362 -0.022483 -0.018813
v -0.061155 -0.004483 -0.018813
v 0.001362 -0.004483 -0.018813
v 0.063878 -0.022483 -0.018813
v 0.063878 -0.004483 -0.018813
v -0.061155 -0.022483 -0.018813
v 0.063878 -0.004483 0.031187
v 0.001362 -0.004483 -0.018813
v 0.001362 -0.004483 0.031187
v -0.061155 -0.004483 -0.018813
v -0.061155 -0.004483 0.031187
v 0.063878 -0.004483 -0.018813
v 0.063878 -0.022483 0.031187
v 0.001362 -0.022483 -0.018813
v 0.063878 -0.022483 -0.018813
v 0.001362 -0.022483 0.031187
v -0.061155 -0.022483 -0.018813
v -0.061155 -0.022483 0.031187
vt 0.0000 0.0000
vt 0.0250 -0.0180
vt 0.0000 -0.0180
vt 0.0250 0.0000
vt -0.0500 0.0000
vt 0.0000 -0.0180
vt -0.0500 -0.0180
vt 0.0000 0.0000
vt -0.0250 0.0000
vt 0.0000 -0.0180
vt -0.0250 -0.0180
vt 0.0000 0.0000
vt 0.0500 -0.0180
vt 0.0000 0.0000
vt 0.0500 0.0000
vt 0.0000 -0.0180
vt 0.0000 0.0500
vt 0.0250 -0.0000
vt 0.0000 -0.0000
vt 0.0250 0.0500
vt 0.0250 -0.0000
vt 0.0000 0.0500
vt 0.0000 -0.0000
vt 0.0250 0.0500
vt 0.0000 0.0000
vt 0.0250 -0.0180
vt 0.0000 -0.0180
vt 0.0250 0.0000
vt -0.0500 0.0000
vt 0.0000 -0.0180
vt -0.0500 -0.0180
vt 0.0000 0.0000
vt -0.0250 0.0000
vt 0.0000 -0.0180
vt -0.0250 -0.0180
vt 0.0000 0.0000
vt 0.0500 -0.0180
vt 0.0000 0.0000
vt 0.0500 0.0000
vt 0.0000 -0.0180
vt 0.0000 0.0500
vt 0.0250 -0.0000
vt 0.0000 -0.0000
vt 0.0250 0.0500
vt 0.0250 -0.0000
vt 0.0000 0.0500
vt 0.0000 -0.0000
vt 0.0250 0.0500
vt 0.0000 0.0000
vt 0.0220 -0.0180
vt 0.0000 -0.0180
vt 0.0220 0.0000
vt -0.0600 0.0000
vt 0.0000 -0.0180
vt -0.0600 -0.0180
vt 0.0000 0.0000
vt -0.0220 0.0000
vt 0.0000 -0.0180
vt -0.0220 -0.0180
vt 0.0000 0.0000
vt 0.0600 -0.0180
vt 0.0000 0.0000
vt 0.0600 0.0000
vt 0.0000 -0.0180
vt 0.0000 0.0600
vt 0.0220 -0.0000
vt 0.0000 -0.0000
vt 0.0220 0.0600
vt 0.0220 -0.0000
vt 0.0000 0.0600
vt 0.0000 -0.0000
vt 0.0220 0.0600
vt 0.0000 0.0000
vt 0.0220 -0.0180
vt 0.0000 -0.0180
vt 0.0220 0.0000
vt -0.0600 0.0000
vt 0.0000 -0.0180
vt -0.0600 -0.0180
vt 0.0000 0.0000
vt -0.0220 0.0000
vt 0.0000 -0.0180
vt -0.0220 -0.0180
vt 0.0000 0.0000
vt 0.0600 -0.0180
vt 0.0000 0.0000
vt 0.0600 0.0000
vt 0.0000 -0.0180
vt 0.0000 0.0600
vt 0.0220 -0.0000
vt 0.0000 -0.0000
vt 0.0220 0.0600
vt 0.0220 -0.0000
vt 0.0000 0.0600
vt 0.0000 -0.0000
vt 0.0220 0.0600
vt 0.0000 0.0000
vt 0.0250 -0.0180
vt 0.0000 -0.0180
vt 0.0250 0.0000
vt -0.0500 0.0000
vt 0.0000 -0.0180
vt -0.0500 -0.0180
vt 0.0000 0.0000
vt -0.0250 0.0000
vt 0.0000 -0.0180
vt -0.0250 -0.0180
vt 0.0000 0.0000
vt 0.0500 -0.0180
vt 0.0000 0.0000
vt 0.0500 0.0000
vt 0.0000 -0.0180
vt 0.0000 0.0500
vt 0.0250 -0.0000
vt 0.0000 -0.0000
vt 0.0250 0.0500
vt 0.0250 -0.0000
vt 0.0000 0.0500
vt 0.0000 -0.0000
vt 0.0250 0.0500
vt 0.0000 0.0000
vt 0.0250 -0.0180
vt 0.0000 -0.0180
vt 0.0250 0.0000
vt -0.0500 0.0000
vt 0.0000 -0.0180
vt -0.0500 -0.0180
vt 0.0000 0.0000
vt -0.0250 0.0000
vt 0.0000 -0.0180
vt -0.0250 -0.0180
vt 0.0000 0.0000
vt 0.0500 -0.0180
vt 0.0000 0.0000
vt 0.0500 0.0000
vt 0.0000 -0.0180
vt 0.0000 0.0500
vt 0.0250 -0.0000
vt 0.0000 -0.0000
vt 0.0250 0.0500
vt 0.0250 -0.0000
vt 0.0000 0.0500
vt 0.0000 -0.0000
vt 0.0250 0.0500
vt 0.0000 0.0000
vt 0.0500 -0.0180
vt 0.0000 -0.0180
vt 0.0500 0.0000
vt 0.0000 -0.0180
vt -0.0625 0.0000
vt 0.0000 0.0000
vt -0.0625 -0.0180
vt -0.1250 0.0000
vt -0.1250 -0.0180
vt -0.0500 0.0000
vt 0.0000 -0.0180
vt -0.0500 -0.0180
vt 0.0000 0.0000
vt 0.0625 -0.0180
vt 0.0000 0.0000
vt 0.0625 0.0000
vt 0.1250 -0.0180
vt 0.1250 0.0000
vt 0.0000 -0.0180
vt 0.0000 0.1250
vt 0.0500 0.0625
vt 0.0000 0.0625
vt 0.0500 0.0000
vt 0.0000 0.0000
vt 0.0500 0.1250
vt 0.0000 0.1250
vt 0.0500 0.0625
vt 0.0500 0.1250
vt 0.0000 0.0625
vt 0.0500 0.0000
vt 0.0000 0.0000
vn 0.0000 0.0022 -1.0000
vn 0.0000 1.0000 0.0022
vn 0.0000 -0.0022 1.0000
vn 0.0000 -1.0000 -0.0022
vn 1.0000 0.0000 0.0000
vn -1.0000 0.0000 0.0000
vn 0.0000 1.0000 0.0000
vn 0.0000 -1.0000 0.0000
vn 0.0000 0.0000 -1.0000
vn 0.0000 0.0000 1.0000
usemtl 1.007
s 1
f 1/1/1 2/2/1 3/3/1
f 2/2/1 1/1/1 4/4/1
f 5/5/2 6/6/2 7/7/2
f 6/6/2 5/5/2 8/8/2
f 9/9/3 10/10/3 11/11/3
f 10/10/3 9/9/3 12/12/3
f 13/13/4 14/14/4 15/15/4
f 14/14/4 13/13/4 16/16/4
f 17/17/5 18/18/5 19/19/5
f 18/18/5 17/17/5 20/20/5
f 21/21/6 22/22/6 23/23/6
f 22/22/6 21/21/6 24/24/6
f 25/25/7 26/26/7 27/27/7
f 26/26/7 25/25/7 28/28/7
f 29/29/5 30/30/5 31/31/5
f 30/30/5 29/29/5 32/32/5
f 33/33/8 34/34/8 35/35/8
f 34/34/8 33/33/8 36/36/8
f 37/37/6 38/38/6 39/39/6
f 38/38/6 37/37/6 40/40/6
f 41/41/9 42/42/9 43/43/9
f 42/42/9 41/41/9 44/44/9
f 45/45/10 46/46/10 47/47/10
f 46/46/10 45/45/10 48/48/10
f 49/49/8 50/50/8 51/51/8
f 50/50/8 49/49/8 52/52/8
f 53/53/5 54/54/5 55/55/5
f 54/54/5 53/53/5 56/56/5
f 57/57/7 58/58/7 59/59/7
f 58/58/7 57/57/7 60/60/7
f 61/61/6 62/62/6 63/63/6
f 62/62/6 61/61/6 64/64/6
f 65/65/10 66/66/10 67/67/10
f 66/66/10 65/65/10 68/68/10
f 69/69/9 70/70/9 71/71/9
f 70/70/9 69/69/9 72/72/9
f 73/73/4 74/74/4 75/75/4
f 74/74/4 73/73/4 76/76/4
f 77/77/3 78/78/3 79/79/3
f 78/78/3 77/77/3 80/80/3
f 81/81/2 82/82/2 83/83/2
f 82/82/2 81/81/2 84/84/2
f 85/85/1 86/86/1 87/87/1
f 86/86/1 85/85/1 88/88/1
f 89/89/6 90/90/6 91/91/6
f 90/90/6 89/89/6 92/92/6
f 93/93/5 94/94/5 95/95/5
f 94/94/5 93/93/5 96/96/5
f 97/97/8 98/98/8 99/99/8
f 98/98/8 97/97/8 100/100/8
f 101/101/5 102/102/5 103/103/5
f 102/102/5 101/101/5 104/104/5
f 105/105/7 106/106/7 107/107/7
f 106/106/7 105/105/7 108/108/7
f 109/109/6 110/110/6 111/111/6
f 110/110/6 109/109/6 112/112/6
f 113/113/10 114/114/10 115/115/10
f 114/114/10 113/113/10 116/116/10
f 117/117/9 118/118/9 119/119/9
f 118/118/9 117/117/9 120/120/9
f 121/121/8 122/122/8 123/123/8
f 122/122/8 121/121/8 124/124/8
f 125/125/6 126/126/6 127/127/6
f 126/126/6 125/125/6 128/128/6
f 129/129/7 130/130/7 131/131/7
f 130/130/7 129/129/7 132/132/7
f 133/133/5 134/134/5 135/135/5
f 134/134/5 133/133/5 136/136/5
f 137/137/9 138/138/9 139/139/9
f 138/138/9 137/137/9 140/140/9
f 141/141/10 142/142/10 143/143/10
f 142/142/10 141/141/10 144/144/10
f 145/145/6 146/146/6 147/147/6
f 146/146/6 145/145/6 148/148/6
f 149/149/10 150/150/10 151/151/10
f 150/150/10 149/149/10 152/152/10
f 153/153/10 152/152/10 154/154/10
f 152/152/10 153/153/10 150/150/10
f 155/155/5 156/156/5 157/157/5
f 156/156/5 155/155/5 158/158/5
f 159/159/9 160/160/9 161/161/9
f 162/162/9 161/161/9 163/163/9
f 161/161/9 162/162/9 159/159/9
f 160/160/9 159/159/9 164/164/9
f 165/165/7 166/166/7 167/167/7
f 167/167/7 168/168/7 169/169/7
f 168/168/7 167/167/7 166/166/7
f 166/166/7 165/165/7 170/170/7
f 171/171/8 172/172/8 173/173/8
f 172/172/8 171/171/8 174/174/8
f 175/175/8 174/174/8 176/176/8
f 174/174/8 175/175/8 172/172/8
