# Blender v2.78 (sub 0) OBJ File: ''
# www.blender.org
mtllib Object_1.mtl
o mesh_1_Base-1.003
v -0.062517 0.009000 0.025000
v -0.062517 -0.009000 -0.025000
v -0.062517 -0.009000 0.025000
v -0.062517 0.009000 -0.025000
v -0.062517 -0.009000 0.025000
v -0.000000 0.009000 0.025000
v -0.062517 0.009000 0.025000
v -0.000000 -0.009000 0.025000
v 0.062517 0.009000 0.025000
v 0.062517 -0.009000 0.025000
v 0.062517 0.009000 -0.025000
v 0.062517 -0.009000 0.025000
v 0.062517 -0.009000 -0.025000
v 0.062517 0.009000 0.025000
v -0.000000 -0.009000 -0.025000
v -0.062517 0.009000 -0.025000
v -0.000000 0.009000 -0.025000
v 0.062517 -0.009000 -0.025000
v 0.062517 0.009000 -0.025000
v -0.062517 -0.009000 -0.025000
v 0.062517 0.009000 0.025000
v -0.000000 0.009000 -0.025000
v -0.000000 0.009000 0.025000
v -0.062517 0.009000 -0.025000
v -0.062517 0.009000 0.025000
v 0.062517 0.009000 -0.025000
v 0.062517 -0.009000 0.025000
v -0.000000 -0.009000 -0.025000
v 0.062517 -0.009000 -0.025000
v -0.000000 -0.009000 0.025000
v -0.062517 -0.009000 -0.025000
v -0.062517 -0.009000 0.025000
vt 0.0000 0.0000
vt 0.0500 -0.0180
vt 0.0000 -0.0180
vt 0.0500 0.0000
vt 0.0000 -0.0180
vt -0.0625 0.0000
vt 0.0000 0.0000
vt -0.0625 -0.0180
vt -0.1250 0.0000
vt -0.1250 -0.0180
vt -0.0500 0.0000
vt 0.0000 -0.0180
vt -0.0500 -0.0180
vt 0.0000 0.0000
vt 0.0625 -0.0180
vt 0.0000 0.0000
vt 0.0625 0.0000
vt 0.1250 -0.0180
vt 0.1250 0.0000
vt 0.0000 -0.0180
vt 0.0000 0.1250
vt 0.0500 0.0625
vt 0.0000 0.0625
vt 0.0500 0.0000
vt 0.0000 0.0000
vt 0.0500 0.1250
vt 0.0000 0.1250
vt 0.0500 0.0625
vt 0.0500 0.1250
vt 0.0000 0.0625
vt 0.0500 0.0000
vt 0.0000 0.0000
vn -1.0000 0.0000 0.0000
vn 0.0000 0.0000 1.0000
vn 1.0000 0.0000 0.0000
vn 0.0000 0.0000 -1.0000
vn 0.0000 1.0000 0.0000
vn 0.0000 -1.0000 -0.0000
usemtl 1.017
s 1
f 1/1/1 2/2/1 3/3/1
f 2/2/1 1/1/1 4/4/1
f 5/5/2 6/6/2 7/7/2
f 6/6/2 5/5/2 8/8/2
f 9/9/2 8/8/2 10/10/2
f 8/8/2 9/9/2 6/6/2
f 11/11/3 12/12/3 13/13/3
f 12/12/3 11/11/3 14/14/3
f 15/15/4 16/16/4 17/17/4
f 18/18/4 17/17/4 19/19/4
f 17/17/4 18/18/4 15/15/4
f 16/16/4 15/15/4 20/20/4
f 21/21/5 22/22/5 23/23/5
f 23/23/5 24/24/5 25/25/5
f 24/24/5 23/23/5 22/22/5
f 22/22/5 21/21/5 26/26/5
f 27/27/6 28/28/6 29/29/6
f 28/28/6 27/27/6 30/30/6
f 31/31/6 30/30/6 32/32/6
f 30/30/6 31/31/6 28/28/6
