# Blender v2.78 (sub 0) OBJ File: ''
# www.blender.org
mtllib Distractor_1.mtl
o mesh_1_Base-1
v -0.067832 0.009000 0.023693
v -0.067832 -0.009000 -0.026307
v -0.067832 -0.009000 0.023693
v -0.067832 0.009000 -0.026307
v 0.035168 0.009000 0.023693
v -0.067832 -0.009000 0.023693
v 0.035168 -0.009000 0.023693
v -0.067832 0.009000 0.023693
v 0.035168 0.009000 -0.026307
v 0.035168 -0.009000 0.023693
v 0.035168 -0.009000 -0.026307
v 0.035168 0.009000 0.023693
v 0.035168 -0.009000 -0.026307
v -0.067832 0.009000 -0.026307
v 0.035168 0.009000 -0.026307
v -0.067832 -0.009000 -0.026307
v 0.035168 0.009000 0.023693
v -0.067832 0.009000 -0.026307
v -0.067832 0.009000 0.023693
v 0.035168 0.009000 -0.026307
v -0.067832 -0.009000 -0.026307
v 0.035168 -0.009000 0.023693
v -0.067832 -0.009000 0.023693
v 0.035168 -0.009000 -0.026307
v 0.057168 0.009000 0.033693
v 0.035168 -0.009000 0.033693
v 0.057168 -0.009000 0.033693
v 0.035168 0.009000 0.033693
v 0.057168 0.009000 -0.026307
v 0.057168 -0.009000 0.033693
v 0.057168 -0.009000 -0.026307
v 0.057168 0.009000 0.033693
v 0.035168 0.009000 -0.026307
v 0.057168 -0.009000 -0.026307
v 0.035168 -0.009000 -0.026307
v 0.057168 0.009000 -0.026307
v 0.035168 -0.009000 -0.026307
v 0.035168 0.009000 0.033693
v 0.035168 0.009000 -0.026307
v 0.035168 -0.009000 0.033693
v 0.057168 0.009000 -0.026307
v 0.035168 0.009000 0.033693
v 0.057168 0.009000 0.033693
v 0.035168 0.009000 -0.026307
v 0.035168 -0.009000 0.033693
v 0.057168 -0.009000 -0.026307
v 0.057168 -0.009000 0.033693
v 0.035168 -0.009000 -0.026307
vt 0.0000 0.0000
vt 0.0500 -0.0180
vt 0.0000 -0.0180
vt 0.0500 0.0000
vt -0.1030 0.0000
vt 0.0000 -0.0180
vt -0.1030 -0.0180
vt 0.0000 0.0000
vt -0.0500 0.0000
vt 0.0000 -0.0180
vt -0.0500 -0.0180
vt 0.0000 0.0000
vt 0.1030 -0.0180
vt 0.0000 0.0000
vt 0.1030 0.0000
vt 0.0000 -0.0180
vt 0.0000 0.1250
vt 0.0500 0.0220
vt 0.0000 0.0220
vt 0.0500 0.1250
vt 0.0500 0.0220
vt 0.0000 0.1250
vt 0.0000 0.0220
vt 0.0500 0.1250
vt 0.0000 0.0000
vt 0.0220 -0.0180
vt 0.0000 -0.0180
vt 0.0220 0.0000
vt -0.0600 0.0000
vt 0.0000 -0.0180
vt -0.0600 -0.0180
vt 0.0000 0.0000
vt -0.0220 0.0000
vt 0.0000 -0.0180
vt -0.0220 -0.0180
vt 0.0000 0.0000
vt 0.0600 -0.0180
vt 0.0000 0.0000
vt 0.0600 0.0000
vt 0.0000 -0.0180
vt 0.0000 0.0600
vt 0.0220 -0.0000
vt 0.0000 -0.0000
vt 0.0220 0.0600
vt 0.0220 -0.0000
vt 0.0000 0.0600
vt 0.0000 -0.0000
vt 0.0220 0.0600
vn -1.0000 0.0000 0.0000
vn 0.0000 -0.0000 1.0000
vn 1.0000 0.0000 0.0000
vn 0.0000 0.0000 -1.0000
vn 0.0000 1.0000 0.0000
vn 0.0000 -1.0000 -0.0000
usemtl 1
s 1
f 1/1/1 2/2/1 3/3/1
f 2/2/1 1/1/1 4/4/1
f 5/5/2 6/6/2 7/7/2
f 6/6/2 5/5/2 8/8/2
f 9/9/3 10/10/3 11/11/3
f 10/10/3 9/9/3 12/12/3
f 13/13/4 14/14/4 15/15/4
f 14/14/4 13/13/4 16/16/4
f 17/17/5 18/18/5 19/19/5
f 18/18/5 17/17/5 20/20/5
f 21/21/6 22/22/6 23/23/6
f 22/22/6 21/21/6 24/24/6
f 25/25/2 26/26/2 27/27/2
f 26/26/2 25/25/2 28/28/2
f 29/29/3 30/30/3 31/31/3
f 30/30/3 29/29/3 32/32/3
f 33/33/4 34/34/4 35/35/4
f 34/34/4 33/33/4 36/36/4
f 37/37/1 38/38/1 39/39/1
f 38/38/1 37/37/1 40/40/1
f 41/41/5 42/42/5 43/43/5
f 42/42/5 41/41/5 44/44/5
f 45/45/6 46/46/6 47/47/6
f 46/46/6 45/45/6 48/48/6
