# Blender v2.78 (sub 0) OBJ File: ''
# www.blender.org
mtllib Distractor_9.mtl
o mesh_1_Thick-2.001
v -0.036587 -0.031172 -0.020912
v -0.061587 -0.030969 -0.038911
v -0.036587 -0.030969 -0.038911
v -0.061587 -0.031172 -0.020912
v -0.036587 0.018825 -0.020350
v -0.036587 -0.030969 -0.038911
v -0.036587 0.019028 -0.038348
v -0.036587 -0.031172 -0.020912
v -0.061587 0.018825 -0.020350
v -0.036587 0.019028 -0.038348
v -0.061587 0.019028 -0.038348
v -0.036587 0.018825 -0.020350
v -0.061587 0.019028 -0.038348
v -0.061587 -0.031172 -0.020912
v -0.061587 0.018825 -0.020350
v -0.061587 -0.030969 -0.038911
v -0.036587 0.018825 -0.020350
v -0.061587 -0.031172 -0.020912
v -0.036587 -0.031172 -0.020912
v -0.061587 0.018825 -0.020350
v -0.061587 -0.030969 -0.038911
v -0.036587 0.019028 -0.038348
v -0.036587 -0.030969 -0.038911
v -0.061587 0.019028 -0.038348
v 0.040446 0.028828 -0.042912
v 0.022446 0.003828 -0.042912
v 0.022446 0.028828 -0.042912
v 0.040446 0.003828 -0.042912
v 0.040446 0.028828 0.007088
v 0.022446 0.028828 -0.042912
v 0.022446 0.028828 0.007088
v 0.040446 0.028828 -0.042912
v 0.040446 0.003828 0.007088
v 0.022446 0.028828 0.007088
v 0.022446 0.003828 0.007088
v 0.040446 0.028828 0.007088
v 0.022446 0.003828 0.007088
v 0.040446 0.003828 -0.042912
v 0.040446 0.003828 0.007088
v 0.022446 0.003828 -0.042912
v 0.040446 0.028828 0.007088
v 0.040446 0.003828 -0.042912
v 0.040446 0.028828 -0.042912
v 0.040446 0.003828 0.007088
v 0.022446 0.003828 -0.042912
v 0.022446 0.028828 0.007088
v 0.022446 0.028828 -0.042912
v 0.022446 0.003828 0.007088
v 0.004446 0.003828 0.007088
v 0.022446 0.003828 -0.014912
v 0.022446 0.003828 0.007088
v 0.004446 0.003828 -0.014912
v 0.004446 0.063828 0.007088
v 0.022446 0.003828 0.007088
v 0.022446 0.063828 0.007088
v 0.004446 0.003828 0.007088
v 0.004446 0.063828 -0.014912
v 0.022446 0.063828 0.007088
v 0.022446 0.063828 -0.014912
v 0.004446 0.063828 0.007088
v 0.022446 0.063828 -0.014912
v 0.004446 0.003828 -0.014912
v 0.004446 0.063828 -0.014912
v 0.022446 0.003828 -0.014912
v 0.004446 0.063828 0.007088
v 0.004446 0.003828 -0.014912
v 0.004446 0.003828 0.007088
v 0.004446 0.063828 -0.014912
v 0.022446 0.003828 -0.014912
v 0.022446 0.063828 0.007088
v 0.022446 0.003828 0.007088
v 0.022446 0.063828 -0.014912
v -0.066587 -0.013172 0.029088
v -0.066587 -0.031172 -0.020912
v -0.066587 -0.031172 0.029088
v -0.066587 -0.013172 -0.020912
v -0.066587 -0.031172 0.029088
v -0.004070 -0.013172 0.029088
v -0.066587 -0.013172 0.029088
v -0.004070 -0.031172 0.029088
v 0.058446 -0.013172 0.029088
v 0.058446 -0.031172 0.029088
v 0.058446 -0.013172 -0.020912
v 0.058446 -0.031172 0.029088
v 0.058446 -0.031172 -0.020912
v 0.058446 -0.013172 0.029088
v -0.004070 -0.031172 -0.020912
v -0.066587 -0.013172 -0.020912
v -0.004070 -0.013172 -0.020912
v 0.058446 -0.031172 -0.020912
v 0.058446 -0.013172 -0.020912
v -0.066587 -0.031172 -0.020912
v 0.058446 -0.013172 0.029088
v -0.004070 -0.013172 -0.020912
v -0.004070 -0.013172 0.029088
v -0.066587 -0.013172 -0.020912
v -0.066587 -0.013172 0.029088
v 0.058446 -0.013172 -0.020912
v 0.058446 -0.031172 0.029088
v -0.004070 -0.031172 -0.020912
v 0.058446 -0.031172 -0.020912
v -0.004070 -0.031172 0.029088
v -0.066587 -0.031172 -0.020912
v -0.066587 -0.031172 0.029088
v -0.041587 0.018828 0.029088
v -0.066587 0.018828 0.047088
v -0.041587 0.018828 0.047088
v -0.066587 0.018828 0.029088
v -0.041587 -0.031172 0.029088
v -0.041587 0.018828 0.047088
v -0.041587 -0.031172 0.047088
v -0.041587 0.018828 0.029088
v -0.066587 -0.031172 0.029088
v -0.041587 -0.031172 0.047088
v -0.066587 -0.031172 0.047088
v -0.041587 -0.031172 0.029088
v -0.066587 -0.031172 0.047088
v -0.066587 0.018828 0.029088
v -0.066587 -0.031172 0.029088
v -0.066587 0.018828 0.047088
v -0.041587 -0.031172 0.029088
v -0.066587 0.018828 0.029088
v -0.041587 0.018828 0.029088
v -0.066587 -0.031172 0.029088
v -0.066587 0.018828 0.047088
v -0.041587 -0.031172 0.047088
v -0.041587 0.018828 0.047088
v -0.066587 -0.031172 0.047088
v -0.091587 0.018828 0.013195
v -0.091587 0.040828 -0.004805
v -0.091587 0.018828 -0.004805
v -0.091587 0.040828 0.013195
v -0.031587 0.018828 0.013195
v -0.091587 0.018828 -0.004805
v -0.031587 0.018828 -0.004805
v -0.091587 0.018828 0.013195
v -0.031587 0.040828 0.013195
v -0.031587 0.018828 -0.004805
v -0.031587 0.040828 -0.004805
v -0.031587 0.018828 0.013195
v -0.031587 0.040828 -0.004805
v -0.091587 0.040828 0.013195
v -0.031587 0.040828 0.013195
v -0.091587 0.040828 -0.004805
v -0.031587 0.018828 0.013195
v -0.091587 0.040828 0.013195
v -0.091587 0.018828 0.013195
v -0.031587 0.040828 0.013195
v -0.091587 0.040828 -0.004805
v -0.031587 0.018828 -0.004805
v -0.091587 0.018828 -0.004805
v -0.031587 0.040828 -0.004805
v 0.080446 -0.031172 0.013088
v 0.058446 -0.031172 -0.004912
v 0.080446 -0.031172 -0.004912
v 0.058446 -0.031172 0.013088
v 0.080446 0.028828 0.013088
v 0.080446 -0.031172 -0.004912
v 0.080446 0.028828 -0.004912
v 0.080446 -0.031172 0.013088
v 0.058446 0.028828 0.013088
v 0.080446 0.028828 -0.004912
v 0.058446 0.028828 -0.004912
v 0.080446 0.028828 0.013088
v 0.058446 0.028828 -0.004912
v 0.058446 -0.031172 0.013088
v 0.058446 0.028828 0.013088
v 0.058446 -0.031172 -0.004912
v 0.080446 0.028828 0.013088
v 0.058446 -0.031172 0.013088
v 0.080446 -0.031172 0.013088
v 0.058446 0.028828 0.013088
v 0.058446 -0.031172 -0.004912
v 0.080446 0.028828 -0.004912
v 0.080446 -0.031172 -0.004912
v 0.058446 0.028828 -0.004912
v -0.091587 -0.031172 -0.004805
v -0.066587 -0.031172 0.013195
v -0.091587 -0.031172 0.013195
v -0.066587 -0.031172 -0.004805
v -0.091587 0.018828 -0.004805
v -0.091587 -0.031172 0.013195
v -0.091587 0.018828 0.013195
v -0.091587 -0.031172 -0.004805
v -0.066587 0.018828 -0.004805
v -0.091587 0.018828 0.013195
v -0.066587 0.018828 0.013195
v -0.091587 0.018828 -0.004805
v -0.066587 0.018828 0.013195
v -0.066587 -0.031172 -0.004805
v -0.066587 0.018828 -0.004805
v -0.066587 -0.031172 0.013195
v -0.091587 0.018828 -0.004805
v -0.066587 -0.031172 -0.004805
v -0.091587 -0.031172 -0.004805
v -0.066587 0.018828 -0.004805
v -0.066587 -0.031172 0.013195
v -0.091587 0.018828 0.013195
v -0.091587 -0.031172 0.013195
v -0.066587 0.018828 0.013195
v 0.040446 -0.031172 -0.020912
v 0.058446 -0.031172 -0.042912
v 0.058446 -0.031172 -0.020912
v 0.040446 -0.031172 -0.042912
v 0.040446 0.028828 -0.020912
v 0.058446 -0.031172 -0.020912
v 0.058446 0.028828 -0.020912
v 0.040446 -0.031172 -0.020912
v 0.040446 0.028828 -0.042912
v 0.058446 0.028828 -0.020912
v 0.058446 0.028828 -0.042912
v 0.040446 0.028828 -0.020912
v 0.058446 0.028828 -0.042912
v 0.040446 -0.031172 -0.042912
v 0.040446 0.028828 -0.042912
v 0.058446 -0.031172 -0.042912
v 0.040446 0.028828 -0.020912
v 0.040446 -0.031172 -0.042912
v 0.040446 -0.031172 -0.020912
v 0.040446 0.028828 -0.042912
v 0.058446 -0.031172 -0.042912
v 0.058446 0.028828 -0.020912
v 0.058446 -0.031172 -0.020912
v 0.058446 0.028828 -0.042912
v 0.080446 0.003828 -0.004912
v 0.098446 0.028828 -0.004912
v 0.098446 0.003828 -0.004912
v 0.080446 0.028828 -0.004912
v 0.080446 0.003828 0.045088
v 0.098446 0.003828 -0.004912
v 0.098446 0.003828 0.045088
v 0.080446 0.003828 -0.004912
v 0.080446 0.028828 0.045088
v 0.098446 0.003828 0.045088
v 0.098446 0.028828 0.045088
v 0.080446 0.003828 0.045088
v 0.098446 0.028828 0.045088
v 0.080446 0.028828 -0.004912
v 0.080446 0.028828 0.045088
v 0.098446 0.028828 -0.004912
v 0.080446 0.003828 0.045088
v 0.080446 0.028828 -0.004912
v 0.080446 0.003828 -0.004912
v 0.080446 0.028828 0.045088
v 0.098446 0.028828 -0.004912
v 0.098446 0.003828 0.045088
v 0.098446 0.003828 -0.004912
v 0.098446 0.028828 0.045088
vt 0.0000 0.0000
vt 0.0250 -0.0180
vt 0.0000 -0.0180
vt 0.0250 0.0000
vt -0.0500 0.0000
vt 0.0000 -0.0180
vt -0.0500 -0.0180
vt 0.0000 0.0000
vt -0.0250 0.0000
vt 0.0000 -0.0180
vt -0.0250 -0.0180
vt 0.0000 0.0000
vt 0.0500 -0.0180
vt 0.0000 0.0000
vt 0.0500 0.0000
vt 0.0000 -0.0180
vt 0.0000 0.0500
vt 0.0250 -0.0000
vt 0.0000 -0.0000
vt 0.0250 0.0500
vt 0.0250 -0.0000
vt 0.0000 0.0500
vt 0.0000 -0.0000
vt 0.0250 0.0500
vt 0.0000 0.0000
vt 0.0250 -0.0180
vt 0.0000 -0.0180
vt 0.0250 0.0000
vt -0.0500 0.0000
vt 0.0000 -0.0180
vt -0.0500 -0.0180
vt 0.0000 0.0000
vt -0.0250 0.0000
vt 0.0000 -0.0180
vt -0.0250 -0.0180
vt 0.0000 0.0000
vt 0.0500 -0.0180
vt 0.0000 0.0000
vt 0.0500 0.0000
vt 0.0000 -0.0180
vt 0.0000 0.0500
vt 0.0250 -0.0000
vt 0.0000 -0.0000
vt 0.0250 0.0500
vt 0.0250 -0.0000
vt 0.0000 0.0500
vt 0.0000 -0.0000
vt 0.0250 0.0500
vt 0.0000 0.0000
vt 0.0220 -0.0180
vt 0.0000 -0.0180
vt 0.0220 0.0000
vt -0.0600 0.0000
vt 0.0000 -0.0180
vt -0.0600 -0.0180
vt 0.0000 0.0000
vt -0.0220 0.0000
vt 0.0000 -0.0180
vt -0.0220 -0.0180
vt 0.0000 0.0000
vt 0.0600 -0.0180
vt 0.0000 0.0000
vt 0.0600 0.0000
vt 0.0000 -0.0180
vt 0.0000 0.0600
vt 0.0220 -0.0000
vt 0.0000 -0.0000
vt 0.0220 0.0600
vt 0.0220 -0.0000
vt 0.0000 0.0600
vt 0.0000 -0.0000
vt 0.0220 0.0600
vt 0.0000 0.0000
vt 0.0500 -0.0180
vt 0.0000 -0.0180
vt 0.0500 0.0000
vt 0.0000 -0.0180
vt -0.0625 0.0000
vt 0.0000 0.0000
vt -0.0625 -0.0180
vt -0.1250 0.0000
vt -0.1250 -0.0180
vt -0.0500 0.0000
vt 0.0000 -0.0180
vt -0.0500 -0.0180
vt 0.0000 0.0000
vt 0.0625 -0.0180
vt 0.0000 0.0000
vt 0.0625 0.0000
vt 0.1250 -0.0180
vt 0.1250 0.0000
vt 0.0000 -0.0180
vt 0.0000 0.1250
vt 0.0500 0.0625
vt 0.0000 0.0625
vt 0.0500 0.0000
vt 0.0000 0.0000
vt 0.0500 0.1250
vt 0.0000 0.1250
vt 0.0500 0.0625
vt 0.0500 0.1250
vt 0.0000 0.0625
vt 0.0500 0.0000
vt 0.0000 0.0000
vt 0.0000 0.0000
vt 0.0250 -0.0180
vt 0.0000 -0.0180
vt 0.0250 0.0000
vt -0.0500 0.0000
vt 0.0000 -0.0180
vt -0.0500 -0.0180
vt 0.0000 0.0000
vt -0.0250 0.0000
vt 0.0000 -0.0180
vt -0.0250 -0.0180
vt 0.0000 0.0000
vt 0.0500 -0.0180
vt 0.0000 0.0000
vt 0.0500 0.0000
vt 0.0000 -0.0180
vt 0.0000 0.0500
vt 0.0250 -0.0000
vt 0.0000 -0.0000
vt 0.0250 0.0500
vt 0.0250 -0.0000
vt 0.0000 0.0500
vt 0.0000 -0.0000
vt 0.0250 0.0500
vt 0.0000 0.0000
vt 0.0220 -0.0180
vt 0.0000 -0.0180
vt 0.0220 0.0000
vt -0.0600 0.0000
vt 0.0000 -0.0180
vt -0.0600 -0.0180
vt 0.0000 0.0000
vt -0.0220 0.0000
vt 0.0000 -0.0180
vt -0.0220 -0.0180
vt 0.0000 0.0000
vt 0.0600 -0.0180
vt 0.0000 0.0000
vt 0.0600 0.0000
vt 0.0000 -0.0180
vt 0.0000 0.0600
vt 0.0220 -0.0000
vt 0.0000 -0.0000
vt 0.0220 0.0600
vt 0.0220 -0.0000
vt 0.0000 0.0600
vt 0.0000 -0.0000
vt 0.0220 0.0600
vt 0.0000 0.0000
vt 0.0220 -0.0180
vt 0.0000 -0.0180
vt 0.0220 0.0000
vt -0.0600 0.0000
vt 0.0000 -0.0180
vt -0.0600 -0.0180
vt 0.0000 0.0000
vt -0.0220 0.0000
vt 0.0000 -0.0180
vt -0.0220 -0.0180
vt 0.0000 0.0000
vt 0.0600 -0.0180
vt 0.0000 0.0000
vt 0.0600 0.0000
vt 0.0000 -0.0180
vt 0.0000 0.0600
vt 0.0220 -0.0000
vt 0.0000 -0.0000
vt 0.0220 0.0600
vt 0.0220 -0.0000
vt 0.0000 0.0600
vt 0.0000 -0.0000
vt 0.0220 0.0600
vt 0.0000 0.0000
vt 0.0250 -0.0180
vt 0.0000 -0.0180
vt 0.0250 0.0000
vt -0.0500 0.0000
vt 0.0000 -0.0180
vt -0.0500 -0.0180
vt 0.0000 0.0000
vt -0.0250 0.0000
vt 0.0000 -0.0180
vt -0.0250 -0.0180
vt 0.0000 0.0000
vt 0.0500 -0.0180
vt 0.0000 0.0000
vt 0.0500 0.0000
vt 0.0000 -0.0180
vt 0.0000 0.0500
vt 0.0250 -0.0000
vt 0.0000 -0.0000
vt 0.0250 0.0500
vt 0.0250 -0.0000
vt 0.0000 0.0500
vt 0.0000 -0.0000
vt 0.0250 0.0500
vt 0.0000 0.0000
vt 0.0220 -0.0180
vt 0.0000 -0.0180
vt 0.0220 0.0000
vt -0.0600 0.0000
vt 0.0000 -0.0180
vt -0.0600 -0.0180
vt 0.0000 0.0000
vt -0.0220 0.0000
vt 0.0000 -0.0180
vt -0.0220 -0.0180
vt 0.0000 0.0000
vt 0.0600 -0.0180
vt 0.0000 0.0000
vt 0.0600 0.0000
vt 0.0000 -0.0180
vt 0.0000 0.0600
vt 0.0220 -0.0000
vt 0.0000 -0.0000
vt 0.0220 0.0600
vt 0.0220 -0.0000
vt 0.0000 0.0600
vt 0.0000 -0.0000
vt 0.0220 0.0600
vt 0.0000 0.0000
vt 0.0250 -0.0180
vt 0.0000 -0.0180
vt 0.0250 0.0000
vt -0.0500 0.0000
vt 0.0000 -0.0180
vt -0.0500 -0.0180
vt 0.0000 0.0000
vt -0.0250 0.0000
vt 0.0000 -0.0180
vt -0.0250 -0.0180
vt 0.0000 0.0000
vt 0.0500 -0.0180
vt 0.0000 0.0000
vt 0.0500 0.0000
vt 0.0000 -0.0180
vt 0.0000 0.0500
vt 0.0250 -0.0000
vt 0.0000 -0.0000
vt 0.0250 0.0500
vt 0.0250 -0.0000
vt 0.0000 0.0500
vt 0.0000 -0.0000
vt 0.0250 0.0500
vn 0.0000 -0.9999 -0.0112
vn 1.0000 -0.0000 0.0000
vn 0.0000 0.9999 0.0112
vn -1.0000 -0.0000 0.0000
vn 0.0000 -0.0112 0.9999
vn 0.0000 0.0112 -0.9999
vn 0.0000 0.0000 -1.0000
vn 0.0000 1.0000 0.0000
vn 0.0000 -0.0000 1.0000
vn 0.0000 -1.0000 -0.0000
usemtl 1.010
s 1
f 1/1/1 2/2/1 3/3/1
f 2/2/1 1/1/1 4/4/1
f 5/5/2 6/6/2 7/7/2
f 6/6/2 5/5/2 8/8/2
f 9/9/3 10/10/3 11/11/3
f 10/10/3 9/9/3 12/12/3
f 13/13/4 14/14/4 15/15/4
f 14/14/4 13/13/4 16/16/4
f 17/17/5 18/18/5 19/19/5
f 18/18/5 17/17/5 20/20/5
f 21/21/6 22/22/6 23/23/6
f 22/22/6 21/21/6 24/24/6
f 25/25/7 26/26/7 27/27/7
f 26/26/7 25/25/7 28/28/7
f 29/29/8 30/30/8 31/31/8
f 30/30/8 29/29/8 32/32/8
f 33/33/9 34/34/9 35/35/9
f 34/34/9 33/33/9 36/36/9
f 37/37/10 38/38/10 39/39/10
f 38/38/10 37/37/10 40/40/10
f 41/41/2 42/42/2 43/43/2
f 42/42/2 41/41/2 44/44/2
f 45/45/4 46/46/4 47/47/4
f 46/46/4 45/45/4 48/48/4
f 49/49/10 50/50/10 51/51/10
f 50/50/10 49/49/10 52/52/10
f 53/53/9 54/54/9 55/55/9
f 54/54/9 53/53/9 56/56/9
f 57/57/8 58/58/8 59/59/8
f 58/58/8 57/57/8 60/60/8
f 61/61/7 62/62/7 63/63/7
f 62/62/7 61/61/7 64/64/7
f 65/65/4 66/66/4 67/67/4
f 66/66/4 65/65/4 68/68/4
f 69/69/2 70/70/2 71/71/2
f 70/70/2 69/69/2 72/72/2
f 73/73/4 74/74/4 75/75/4
f 74/74/4 73/73/4 76/76/4
f 77/77/9 78/78/9 79/79/9
f 78/78/9 77/77/9 80/80/9
f 81/81/9 80/80/9 82/82/9
f 80/80/9 81/81/9 78/78/9
f 83/83/2 84/84/2 85/85/2
f 84/84/2 83/83/2 86/86/2
f 87/87/7 88/88/7 89/89/7
f 90/90/7 89/89/7 91/91/7
f 89/89/7 90/90/7 87/87/7
f 88/88/7 87/87/7 92/92/7
f 93/93/8 94/94/8 95/95/8
f 95/95/8 96/96/8 97/97/8
f 96/96/8 95/95/8 94/94/8
f 94/94/8 93/93/8 98/98/8
f 99/99/10 100/100/10 101/101/10
f 100/100/10 99/99/10 102/102/10
f 103/103/10 102/102/10 104/104/10
f 102/102/10 103/103/10 100/100/10
f 105/105/8 106/106/8 107/107/8
f 106/106/8 105/105/8 108/108/8
f 109/109/2 110/110/2 111/111/2
f 110/110/2 109/109/2 112/112/2
f 113/113/10 114/114/10 115/115/10
f 114/114/10 113/113/10 116/116/10
f 117/117/4 118/118/4 119/119/4
f 118/118/4 117/117/4 120/120/4
f 121/121/7 122/122/7 123/123/7
f 122/122/7 121/121/7 124/124/7
f 125/125/9 126/126/9 127/127/9
f 126/126/9 125/125/9 128/128/9
f 129/129/4 130/130/4 131/131/4
f 130/130/4 129/129/4 132/132/4
f 133/133/10 134/134/10 135/135/10
f 134/134/10 133/133/10 136/136/10
f 137/137/2 138/138/2 139/139/2
f 138/138/2 137/137/2 140/140/2
f 141/141/8 142/142/8 143/143/8
f 142/142/8 141/141/8 144/144/8
f 145/145/9 146/146/9 147/147/9
f 146/146/9 145/145/9 148/148/9
f 149/149/7 150/150/7 151/151/7
f 150/150/7 149/149/7 152/152/7
f 153/153/10 154/154/10 155/155/10
f 154/154/10 153/153/10 156/156/10
f 157/157/2 158/158/2 159/159/2
f 158/158/2 157/157/2 160/160/2
f 161/161/8 162/162/8 163/163/8
f 162/162/8 161/161/8 164/164/8
f 165/165/4 166/166/4 167/167/4
f 166/166/4 165/165/4 168/168/4
f 169/169/9 170/170/9 171/171/9
f 170/170/9 169/169/9 172/172/9
f 173/173/7 174/174/7 175/175/7
f 174/174/7 173/173/7 176/176/7
f 177/177/10 178/178/10 179/179/10
f 178/178/10 177/177/10 180/180/10
f 181/181/4 182/182/4 183/183/4
f 182/182/4 181/181/4 184/184/4
f 185/185/8 186/186/8 187/187/8
f 186/186/8 185/185/8 188/188/8
f 189/189/2 190/190/2 191/191/2
f 190/190/2 189/189/2 192/192/2
f 193/193/7 194/194/7 195/195/7
f 194/194/7 193/193/7 196/196/7
f 197/197/9 198/198/9 199/199/9
f 198/198/9 197/197/9 200/200/9
f 201/201/10 202/202/10 203/203/10
f 202/202/10 201/201/10 204/204/10
f 205/205/9 206/206/9 207/207/9
f 206/206/9 205/205/9 208/208/9
f 209/209/8 210/210/8 211/211/8
f 210/210/8 209/209/8 212/212/8
f 213/213/7 214/214/7 215/215/7
f 214/214/7 213/213/7 216/216/7
f 217/217/4 218/218/4 219/219/4
f 218/218/4 217/217/4 220/220/4
f 221/221/2 222/222/2 223/223/2
f 222/222/2 221/221/2 224/224/2
f 225/225/7 226/226/7 227/227/7
f 226/226/7 225/225/7 228/228/7
f 229/229/10 230/230/10 231/231/10
f 230/230/10 229/229/10 232/232/10
f 233/233/9 234/234/9 235/235/9
f 234/234/9 233/233/9 236/236/9
f 237/237/8 238/238/8 239/239/8
f 238/238/8 237/237/8 240/240/8
f 241/241/4 242/242/4 243/243/4
f 242/242/4 241/241/4 244/244/4
f 245/245/2 246/246/2 247/247/2
f 246/246/2 245/245/2 248/248/2
